G04 #@! TF.FileFunction,Legend,Bot*
%FSLAX46Y46*%
G04 Gerber Fmt 4.6, Leading zero omitted, Abs format (unit mm)*
G04 Created by KiCad (PCBNEW 4.0.2-stable) date Wed 13 Apr 2016 05:19:08 PM PDT*
%MOMM*%
G01*
G04 APERTURE LIST*
%ADD10C,0.100000*%
%ADD11C,0.050000*%
%ADD12C,0.125000*%
G04 APERTURE END LIST*
D10*
D11*
X135000000Y-110635000D02*
X135000000Y-109365000D01*
X196595000Y-110000000D02*
X73405000Y-110000000D01*
X196570000Y-115080000D02*
X196570000Y-104920000D01*
X196570000Y-115080000D02*
X199110000Y-115080000D01*
X199110000Y-115080000D02*
X199110000Y-104920000D01*
X199110000Y-104920000D02*
X196570000Y-104920000D01*
X70890000Y-115080000D02*
X70890000Y-104920000D01*
X70890000Y-115080000D02*
X70890000Y-104920000D01*
X70890000Y-104920000D02*
X73430000Y-104920000D01*
X73430000Y-104920000D02*
X73430000Y-115080000D01*
X73430000Y-115080000D02*
X70890000Y-115080000D01*
D12*
X199520000Y-113940952D02*
X199496190Y-113893333D01*
X199496190Y-113821905D01*
X199520000Y-113750476D01*
X199567619Y-113702857D01*
X199615238Y-113679048D01*
X199710476Y-113655238D01*
X199781905Y-113655238D01*
X199877143Y-113679048D01*
X199924762Y-113702857D01*
X199972381Y-113750476D01*
X199996190Y-113821905D01*
X199996190Y-113869524D01*
X199972381Y-113940952D01*
X199948571Y-113964762D01*
X199781905Y-113964762D01*
X199781905Y-113869524D01*
X199734286Y-111341429D02*
X199734286Y-111174763D01*
X199996190Y-111174763D02*
X199496190Y-111174763D01*
X199496190Y-111412858D01*
X199853333Y-108610953D02*
X199853333Y-108849048D01*
X199996190Y-108563334D02*
X199496190Y-108730001D01*
X199996190Y-108896667D01*
X199734286Y-106225714D02*
X199758095Y-106297143D01*
X199781905Y-106320952D01*
X199829524Y-106344762D01*
X199900952Y-106344762D01*
X199948571Y-106320952D01*
X199972381Y-106297143D01*
X199996190Y-106249524D01*
X199996190Y-106059048D01*
X199496190Y-106059048D01*
X199496190Y-106225714D01*
X199520000Y-106273333D01*
X199543810Y-106297143D01*
X199591429Y-106320952D01*
X199639048Y-106320952D01*
X199686667Y-106297143D01*
X199710476Y-106273333D01*
X199734286Y-106225714D01*
X199734286Y-106059048D01*
X70408571Y-106344762D02*
X70432381Y-106320952D01*
X70456190Y-106249524D01*
X70456190Y-106201905D01*
X70432381Y-106130476D01*
X70384762Y-106082857D01*
X70337143Y-106059048D01*
X70241905Y-106035238D01*
X70170476Y-106035238D01*
X70075238Y-106059048D01*
X70027619Y-106082857D01*
X69980000Y-106130476D01*
X69956190Y-106201905D01*
X69956190Y-106249524D01*
X69980000Y-106320952D01*
X70003810Y-106344762D01*
X70456190Y-108599048D02*
X69956190Y-108599048D01*
X69956190Y-108718095D01*
X69980000Y-108789524D01*
X70027619Y-108837143D01*
X70075238Y-108860952D01*
X70170476Y-108884762D01*
X70241905Y-108884762D01*
X70337143Y-108860952D01*
X70384762Y-108837143D01*
X70432381Y-108789524D01*
X70456190Y-108718095D01*
X70456190Y-108599048D01*
X70194286Y-111162858D02*
X70194286Y-111329524D01*
X70456190Y-111400953D02*
X70456190Y-111162858D01*
X69956190Y-111162858D01*
X69956190Y-111400953D01*
X70408571Y-113405238D02*
X70432381Y-113381428D01*
X70456190Y-113310000D01*
X70456190Y-113262381D01*
X70432381Y-113190952D01*
X70384762Y-113143333D01*
X70337143Y-113119524D01*
X70241905Y-113095714D01*
X70170476Y-113095714D01*
X70075238Y-113119524D01*
X70027619Y-113143333D01*
X69980000Y-113190952D01*
X69956190Y-113262381D01*
X69956190Y-113310000D01*
X69980000Y-113381428D01*
X70003810Y-113405238D01*
X70456190Y-113690952D02*
X70432381Y-113643333D01*
X70408571Y-113619524D01*
X70360952Y-113595714D01*
X70218095Y-113595714D01*
X70170476Y-113619524D01*
X70146667Y-113643333D01*
X70122857Y-113690952D01*
X70122857Y-113762381D01*
X70146667Y-113810000D01*
X70170476Y-113833809D01*
X70218095Y-113857619D01*
X70360952Y-113857619D01*
X70408571Y-113833809D01*
X70432381Y-113810000D01*
X70456190Y-113762381D01*
X70456190Y-113690952D01*
X70456190Y-114071905D02*
X70122857Y-114071905D01*
X70170476Y-114071905D02*
X70146667Y-114095714D01*
X70122857Y-114143333D01*
X70122857Y-114214762D01*
X70146667Y-114262381D01*
X70194286Y-114286190D01*
X70456190Y-114286190D01*
X70194286Y-114286190D02*
X70146667Y-114310000D01*
X70122857Y-114357619D01*
X70122857Y-114429047D01*
X70146667Y-114476667D01*
X70194286Y-114500476D01*
X70456190Y-114500476D01*
M02*
