M48
;DRILL file {KiCad 4.0.2-stable} date Wed 13 Apr 2016 05:20:39 PM PDT
;FORMAT={-:-/ absolute / inch / decimal}
FMAT,2
INCH,TZ
T1C0.013
T2C0.024
T3C0.025
T4C0.031
T5C0.032
T6C0.039
T7C0.040
T8C0.120
%
G90
G05
M72
T1
X3.031Y-4.289
X3.08Y-4.064
X3.13Y-4.077
X3.182Y-4.042
X3.229Y-4.076
X3.287Y-4.128
X3.331Y-4.103
X3.386Y-4.115
X3.524Y-4.334
X3.536Y-4.485
X3.663Y-4.064
X3.716Y-4.09
X3.765Y-4.041
X3.815Y-4.078
X3.87Y-4.131
X3.908Y-4.104
X3.957Y-4.117
X4.022Y-4.027
X4.069Y-4.13
X4.071Y-3.982
X4.091Y-4.419
X4.222Y-4.347
X4.306Y-4.119
X4.405Y-4.303
X4.429Y-4.133
X4.506Y-4.263
X4.529Y-4.121
X4.606Y-4.178
X4.629Y-4.238
X4.729Y-4.191
X4.8228Y-4.4201
X4.829Y-4.12
X4.929Y-4.147
X4.97Y-4.735
X5.029Y-4.149
X5.122Y-4.169
X5.229Y-4.119
X5.329Y-4.119
X5.372Y-4.511
X5.422Y-4.119
X5.523Y-4.133
X5.621Y-4.132
X5.722Y-4.159
X5.82Y-4.159
X5.922Y-4.146
X6.021Y-4.132
X6.276Y-4.191
X6.358Y-4.611
X6.408Y-3.966
X6.409Y-3.966
X6.46Y-3.992
X6.509Y-3.943
X6.56Y-3.979
X6.5866Y-4.3476
X6.611Y-4.032
X6.651Y-4.005
X6.698Y-4.005
X6.916Y-4.549
X6.9606Y-4.3224
X7.076Y-4.3134
X7.131Y-4.572
X7.379Y-4.571
X7.461Y-4.073
T2
X6.572Y-4.529
X6.622Y-4.529
X6.672Y-4.529
T3
X6.571Y-4.686
X7.2874Y-4.2913
X7.394Y-4.2913
X7.815Y-4.0551
X7.815Y-4.6063
T4
X3.872Y-4.592
X4.0689Y-4.592
X4.177Y-4.684
X4.222Y-3.9764
X4.222Y-4.5764
X4.322Y-3.9764
X4.322Y-4.5764
X4.3739Y-4.684
X4.422Y-3.9764
X4.422Y-4.5764
X4.522Y-3.9764
X4.522Y-4.5764
X4.622Y-3.9764
X4.622Y-4.5764
X4.722Y-3.9764
X4.722Y-4.5764
X4.822Y-3.9764
X4.822Y-4.5764
X4.922Y-3.9764
X4.922Y-4.5764
X4.9281Y-4.681
X5.022Y-3.9764
X5.022Y-4.5764
X5.122Y-3.9764
X5.122Y-4.5764
X5.125Y-4.681
X5.222Y-3.9764
X5.222Y-4.5764
X5.322Y-3.9764
X5.322Y-4.5764
X5.422Y-3.9764
X5.422Y-4.5764
X5.522Y-3.9764
X5.522Y-4.5764
X5.622Y-3.9764
X5.622Y-4.5764
X5.6281Y-4.683
X5.722Y-3.9764
X5.722Y-4.5764
X5.822Y-3.9764
X5.822Y-4.5764
X5.825Y-4.683
X5.922Y-3.9764
X5.922Y-4.5764
X6.022Y-3.9764
X6.022Y-4.5764
X6.122Y-3.9764
X6.122Y-4.5764
X6.358Y-4.493
X6.358Y-4.6899
X6.917Y-4.424
X6.917Y-4.724
X7.017Y-4.424
X7.017Y-4.724
X7.117Y-4.424
X7.117Y-4.724
X7.217Y-4.424
X7.217Y-4.724
T5
X6.902Y-4.022
X7.002Y-4.022
X7.102Y-4.022
X7.294Y-4.022
X7.394Y-4.022
X7.494Y-4.022
T6
X4.489Y-4.683
X4.789Y-4.683
X5.226Y-4.683
X5.526Y-4.683
X5.927Y-4.683
X6.227Y-4.683
X6.873Y-4.167
X6.873Y-4.29
X7.173Y-4.167
X7.173Y-4.29
X7.281Y-4.172
X7.379Y-4.416
X7.379Y-4.716
X7.504Y-4.415
X7.504Y-4.715
X7.581Y-4.172
X7.649Y-4.52
X7.649Y-4.62
T7
X2.8409Y-4.1807
X2.8409Y-4.1807
X2.8409Y-4.2807
X2.8409Y-4.2807
X2.8409Y-4.3807
X2.8409Y-4.3807
X2.8409Y-4.4807
X2.8409Y-4.4807
X3.031Y-4.289
X3.031Y-4.389
X3.131Y-4.289
X3.131Y-4.389
X3.231Y-4.289
X3.231Y-4.389
X3.331Y-4.289
X3.331Y-4.389
X3.615Y-4.289
X3.615Y-4.389
X3.715Y-4.289
X3.715Y-4.389
X3.815Y-4.289
X3.815Y-4.389
X3.915Y-4.289
X3.915Y-4.389
X6.361Y-4.2
X6.361Y-4.3
X6.461Y-4.2
X6.461Y-4.3
X6.561Y-4.2
X6.561Y-4.3
X6.661Y-4.2
X6.661Y-4.3
X7.79Y-4.1807
X7.79Y-4.2807
X7.79Y-4.3807
X7.79Y-4.4807
X7.964Y-4.279
X7.964Y-4.379
T8
X2.65Y-4.05
X2.65Y-4.6
X8.Y-4.05
X8.Y-4.6
T0
M30
