G04 #@! TF.FileFunction,Legend,Top*
%FSLAX46Y46*%
G04 Gerber Fmt 4.6, Leading zero omitted, Abs format (unit mm)*
G04 Created by KiCad (PCBNEW 4.0.2-stable) date Wed 13 Apr 2016 05:19:08 PM PDT*
%MOMM*%
G01*
G04 APERTURE LIST*
%ADD10C,0.100000*%
%ADD11C,0.150000*%
G04 APERTURE END LIST*
D10*
D11*
X185903219Y-109000000D02*
G75*
G03X185903219Y-109000000I-803219J0D01*
G01*
X69596000Y-102870000D02*
G75*
G03X69596000Y-102870000I-2286000J0D01*
G01*
X157795000Y-101135000D02*
X156525000Y-101135000D01*
X157795000Y-116105000D02*
X156525000Y-116105000D01*
X104945000Y-116105000D02*
X106215000Y-116105000D01*
X104945000Y-101135000D02*
X106215000Y-101135000D01*
X157795000Y-101135000D02*
X157795000Y-116105000D01*
X104945000Y-101135000D02*
X104945000Y-116105000D01*
X156525000Y-101135000D02*
X156525000Y-100200000D01*
X166649400Y-103886000D02*
X166649400Y-103378000D01*
X164363400Y-103886000D02*
X164363400Y-103378000D01*
X158775400Y-103886000D02*
X164363400Y-103886000D01*
X171983400Y-103886000D02*
X166649400Y-103886000D01*
X171983400Y-112014000D02*
X158775400Y-112014000D01*
X158267400Y-112522000D02*
X172491400Y-112522000D01*
X172491400Y-103378000D02*
X158267400Y-103378000D01*
X158267400Y-103400000D02*
X158807400Y-103950000D01*
X158267400Y-112500000D02*
X158807400Y-111950000D01*
X158807400Y-111950000D02*
X158807400Y-103950000D01*
X158267400Y-112500000D02*
X158267400Y-103400000D01*
X158267400Y-112500000D02*
X158267400Y-103400000D01*
X158807400Y-111950000D02*
X158807400Y-103950000D01*
X158267400Y-112500000D02*
X158807400Y-111950000D01*
X158267400Y-103400000D02*
X158807400Y-103950000D01*
X172491400Y-103400000D02*
X171951400Y-103950000D01*
X172491400Y-112500000D02*
X171951400Y-111950000D01*
X171951400Y-111950000D02*
X171951400Y-103950000D01*
X172491400Y-112500000D02*
X172491400Y-103400000D01*
X172491400Y-112500000D02*
X172491400Y-103400000D01*
X171951400Y-111950000D02*
X171951400Y-103950000D01*
X172491400Y-112500000D02*
X171951400Y-111950000D01*
X172491400Y-103400000D02*
X171951400Y-103950000D01*
D10*
X98755200Y-107823000D02*
X98755200Y-108077000D01*
X98755200Y-108077000D02*
X99771200Y-108077000D01*
X99771200Y-108077000D02*
X99771200Y-107823000D01*
X98755200Y-105791000D02*
X98755200Y-105537000D01*
X98755200Y-105537000D02*
X99771200Y-105537000D01*
X99771200Y-105537000D02*
X99771200Y-105791000D01*
X77724000Y-107823000D02*
X77724000Y-108077000D01*
X77724000Y-108077000D02*
X78740000Y-108077000D01*
X78740000Y-108077000D02*
X78740000Y-107823000D01*
X77724000Y-105791000D02*
X77724000Y-105537000D01*
X77724000Y-105537000D02*
X78740000Y-105537000D01*
X78740000Y-105537000D02*
X78740000Y-105791000D01*
X80289400Y-107823000D02*
X80289400Y-108077000D01*
X80289400Y-108077000D02*
X81305400Y-108077000D01*
X81305400Y-108077000D02*
X81305400Y-107823000D01*
X80289400Y-105791000D02*
X80289400Y-105537000D01*
X80289400Y-105537000D02*
X81305400Y-105537000D01*
X81305400Y-105537000D02*
X81305400Y-105791000D01*
X82677000Y-107823000D02*
X82677000Y-108077000D01*
X82677000Y-108077000D02*
X83693000Y-108077000D01*
X83693000Y-108077000D02*
X83693000Y-107823000D01*
X82677000Y-105791000D02*
X82677000Y-105537000D01*
X82677000Y-105537000D02*
X83693000Y-105537000D01*
X83693000Y-105537000D02*
X83693000Y-105791000D01*
X85521800Y-107823000D02*
X85521800Y-108077000D01*
X85521800Y-108077000D02*
X86537800Y-108077000D01*
X86537800Y-108077000D02*
X86537800Y-107823000D01*
X85521800Y-105791000D02*
X85521800Y-105537000D01*
X85521800Y-105537000D02*
X86537800Y-105537000D01*
X86537800Y-105537000D02*
X86537800Y-105791000D01*
X84099400Y-107823000D02*
X84099400Y-108077000D01*
X84099400Y-108077000D02*
X85115400Y-108077000D01*
X85115400Y-108077000D02*
X85115400Y-107823000D01*
X84099400Y-105791000D02*
X84099400Y-105537000D01*
X84099400Y-105537000D02*
X85115400Y-105537000D01*
X85115400Y-105537000D02*
X85115400Y-105791000D01*
X81508600Y-107823000D02*
X81508600Y-108077000D01*
X81508600Y-108077000D02*
X82524600Y-108077000D01*
X82524600Y-108077000D02*
X82524600Y-107823000D01*
X81508600Y-105791000D02*
X81508600Y-105537000D01*
X81508600Y-105537000D02*
X82524600Y-105537000D01*
X82524600Y-105537000D02*
X82524600Y-105791000D01*
X78994000Y-107823000D02*
X78994000Y-108077000D01*
X78994000Y-108077000D02*
X80010000Y-108077000D01*
X80010000Y-108077000D02*
X80010000Y-107823000D01*
X78994000Y-105791000D02*
X78994000Y-105537000D01*
X78994000Y-105537000D02*
X80010000Y-105537000D01*
X80010000Y-105537000D02*
X80010000Y-105791000D01*
X92532200Y-107823000D02*
X92532200Y-108077000D01*
X92532200Y-108077000D02*
X93548200Y-108077000D01*
X93548200Y-108077000D02*
X93548200Y-107823000D01*
X92532200Y-105791000D02*
X92532200Y-105537000D01*
X92532200Y-105537000D02*
X93548200Y-105537000D01*
X93548200Y-105537000D02*
X93548200Y-105791000D01*
X95123000Y-107823000D02*
X95123000Y-108077000D01*
X95123000Y-108077000D02*
X96139000Y-108077000D01*
X96139000Y-108077000D02*
X96139000Y-107823000D01*
X95123000Y-105791000D02*
X95123000Y-105537000D01*
X95123000Y-105537000D02*
X96139000Y-105537000D01*
X96139000Y-105537000D02*
X96139000Y-105791000D01*
X97561400Y-107823000D02*
X97561400Y-108077000D01*
X97561400Y-108077000D02*
X98577400Y-108077000D01*
X98577400Y-108077000D02*
X98577400Y-107823000D01*
X97561400Y-105791000D02*
X97561400Y-105537000D01*
X97561400Y-105537000D02*
X98577400Y-105537000D01*
X98577400Y-105537000D02*
X98577400Y-105791000D01*
X99999800Y-107797600D02*
X99999800Y-108051600D01*
X99999800Y-108051600D02*
X101015800Y-108051600D01*
X101015800Y-108051600D02*
X101015800Y-107797600D01*
X99999800Y-105765600D02*
X99999800Y-105511600D01*
X99999800Y-105511600D02*
X101015800Y-105511600D01*
X101015800Y-105511600D02*
X101015800Y-105765600D01*
X96393000Y-107823000D02*
X96393000Y-108077000D01*
X96393000Y-108077000D02*
X97409000Y-108077000D01*
X97409000Y-108077000D02*
X97409000Y-107823000D01*
X96393000Y-105791000D02*
X96393000Y-105537000D01*
X96393000Y-105537000D02*
X97409000Y-105537000D01*
X97409000Y-105537000D02*
X97409000Y-105791000D01*
X93878400Y-107823000D02*
X93878400Y-108077000D01*
X93878400Y-108077000D02*
X94894400Y-108077000D01*
X94894400Y-108077000D02*
X94894400Y-107823000D01*
X93878400Y-105791000D02*
X93878400Y-105537000D01*
X93878400Y-105537000D02*
X94894400Y-105537000D01*
X94894400Y-105537000D02*
X94894400Y-105791000D01*
X102692200Y-100761800D02*
X102692200Y-100507800D01*
X102692200Y-100507800D02*
X101676200Y-100507800D01*
X101676200Y-100507800D02*
X101676200Y-100761800D01*
X102692200Y-102793800D02*
X102692200Y-103047800D01*
X102692200Y-103047800D02*
X101676200Y-103047800D01*
X101676200Y-103047800D02*
X101676200Y-102793800D01*
X103860600Y-100761800D02*
X103860600Y-100507800D01*
X103860600Y-100507800D02*
X102844600Y-100507800D01*
X102844600Y-100507800D02*
X102844600Y-100761800D01*
X103860600Y-102793800D02*
X103860600Y-103047800D01*
X103860600Y-103047800D02*
X102844600Y-103047800D01*
X102844600Y-103047800D02*
X102844600Y-102793800D01*
X162280600Y-105333800D02*
X162280600Y-105587800D01*
X162280600Y-105587800D02*
X163296600Y-105587800D01*
X163296600Y-105587800D02*
X163296600Y-105333800D01*
X162280600Y-103301800D02*
X162280600Y-103047800D01*
X162280600Y-103047800D02*
X163296600Y-103047800D01*
X163296600Y-103047800D02*
X163296600Y-103301800D01*
X164820600Y-105333800D02*
X164820600Y-105587800D01*
X164820600Y-105587800D02*
X165836600Y-105587800D01*
X165836600Y-105587800D02*
X165836600Y-105333800D01*
X164820600Y-103301800D02*
X164820600Y-103047800D01*
X164820600Y-103047800D02*
X165836600Y-103047800D01*
X165836600Y-103047800D02*
X165836600Y-103301800D01*
X167259000Y-105333800D02*
X167259000Y-105587800D01*
X167259000Y-105587800D02*
X168275000Y-105587800D01*
X168275000Y-105587800D02*
X168275000Y-105333800D01*
X167259000Y-103301800D02*
X167259000Y-103047800D01*
X167259000Y-103047800D02*
X168275000Y-103047800D01*
X168275000Y-103047800D02*
X168275000Y-103301800D01*
X169621200Y-105333800D02*
X169621200Y-105587800D01*
X169621200Y-105587800D02*
X170637200Y-105587800D01*
X170637200Y-105587800D02*
X170637200Y-105333800D01*
X169621200Y-103301800D02*
X169621200Y-103047800D01*
X169621200Y-103047800D02*
X170637200Y-103047800D01*
X170637200Y-103047800D02*
X170637200Y-103301800D01*
X168427400Y-105333800D02*
X168427400Y-105587800D01*
X168427400Y-105587800D02*
X169443400Y-105587800D01*
X169443400Y-105587800D02*
X169443400Y-105333800D01*
X168427400Y-103301800D02*
X168427400Y-103047800D01*
X168427400Y-103047800D02*
X169443400Y-103047800D01*
X169443400Y-103047800D02*
X169443400Y-103301800D01*
X166116000Y-105333800D02*
X166116000Y-105587800D01*
X166116000Y-105587800D02*
X167132000Y-105587800D01*
X167132000Y-105587800D02*
X167132000Y-105333800D01*
X166116000Y-103301800D02*
X166116000Y-103047800D01*
X166116000Y-103047800D02*
X167132000Y-103047800D01*
X167132000Y-103047800D02*
X167132000Y-103301800D01*
X163576000Y-105333800D02*
X163576000Y-105587800D01*
X163576000Y-105587800D02*
X164592000Y-105587800D01*
X164592000Y-105587800D02*
X164592000Y-105333800D01*
X163576000Y-103301800D02*
X163576000Y-103047800D01*
X163576000Y-103047800D02*
X164592000Y-103047800D01*
X164592000Y-103047800D02*
X164592000Y-103301800D01*
D11*
X169898800Y-113336600D02*
X166498800Y-113336600D01*
X169895856Y-113339544D02*
G75*
G02X168198800Y-117436600I-1697056J-1697056D01*
G01*
X166501744Y-113339544D02*
G75*
G03X168198800Y-117436600I1697056J-1697056D01*
G01*
X173396800Y-119854600D02*
X174666800Y-119854600D01*
X173396800Y-112504600D02*
X174666800Y-112504600D01*
X185606800Y-112504600D02*
X184336800Y-112504600D01*
X185606800Y-119854600D02*
X184336800Y-119854600D01*
X173396800Y-119854600D02*
X173396800Y-112504600D01*
X185606800Y-119854600D02*
X185606800Y-112504600D01*
X174666800Y-119854600D02*
X174666800Y-120789600D01*
X188610819Y-109000000D02*
G75*
G03X188610819Y-109000000I-803219J0D01*
G01*
X167706619Y-119024400D02*
G75*
G03X167706619Y-119024400I-803219J0D01*
G01*
X199303219Y-117000000D02*
G75*
G03X199303219Y-117000000I-803219J0D01*
G01*
X199303219Y-103000000D02*
G75*
G03X199303219Y-103000000I-803219J0D01*
G01*
X174294800Y-100126800D02*
X174294800Y-101396800D01*
X175082200Y-100876100D02*
X175044100Y-100622100D01*
X175044100Y-100622100D02*
X174866300Y-100342700D01*
X174866300Y-100342700D02*
X174548800Y-100126800D01*
X174548800Y-100126800D02*
X174104300Y-100114100D01*
X174104300Y-100114100D02*
X173748700Y-100317300D01*
X173748700Y-100317300D02*
X173570900Y-100609400D01*
X173570900Y-100609400D02*
X173520100Y-100926900D01*
X173520100Y-100926900D02*
X173621700Y-101333300D01*
X173621700Y-101333300D02*
X173964600Y-101587300D01*
X173964600Y-101587300D02*
X174142400Y-101676200D01*
X182676800Y-103936800D02*
X173024800Y-103936800D01*
X173024800Y-100888800D02*
X173024800Y-99618800D01*
X173024800Y-99618800D02*
X182676800Y-99618800D01*
X182676800Y-99618800D02*
X182676800Y-104698800D01*
X173024800Y-104698800D02*
X173024800Y-102158800D01*
X173024800Y-102158800D02*
X173024800Y-100888800D01*
X188696600Y-113436400D02*
X188696600Y-118516400D01*
X188696600Y-118516400D02*
X186156600Y-118516400D01*
X186156600Y-118516400D02*
X186156600Y-113436400D01*
X186156600Y-113436400D02*
X188696600Y-113436400D01*
X180924200Y-107111800D02*
X175844200Y-107111800D01*
X175844200Y-107111800D02*
X175844200Y-104571800D01*
X175844200Y-104571800D02*
X180924200Y-104571800D01*
X180924200Y-104571800D02*
X180924200Y-107111800D01*
X175844200Y-107696000D02*
X180924200Y-107696000D01*
X180924200Y-107696000D02*
X180924200Y-110236000D01*
X180924200Y-110236000D02*
X175844200Y-110236000D01*
X175844200Y-110236000D02*
X175844200Y-107696000D01*
X189331600Y-118491000D02*
X189331600Y-113411000D01*
X189331600Y-113411000D02*
X191871600Y-113411000D01*
X191871600Y-113411000D02*
X191871600Y-118491000D01*
X191871600Y-118491000D02*
X189331600Y-118491000D01*
X186207400Y-104698800D02*
X191287400Y-104698800D01*
X191287400Y-104698800D02*
X191287400Y-107238800D01*
X191287400Y-107238800D02*
X186207400Y-107238800D01*
X186207400Y-107238800D02*
X186207400Y-104698800D01*
X139090400Y-120218200D02*
X134010400Y-120218200D01*
X134010400Y-120218200D02*
X134010400Y-117678200D01*
X134010400Y-117678200D02*
X139090400Y-117678200D01*
X139090400Y-117678200D02*
X139090400Y-120218200D01*
X115290600Y-117678200D02*
X120370600Y-117678200D01*
X120370600Y-117678200D02*
X120370600Y-120218200D01*
X120370600Y-120218200D02*
X115290600Y-120218200D01*
X115290600Y-120218200D02*
X115290600Y-117678200D01*
X156895800Y-120218200D02*
X151815800Y-120218200D01*
X151815800Y-120218200D02*
X151815800Y-117678200D01*
X151815800Y-117678200D02*
X156895800Y-117678200D01*
X156895800Y-117678200D02*
X156895800Y-120218200D01*
X201015600Y-109956600D02*
X201015600Y-107416600D01*
X200735600Y-112776600D02*
X200735600Y-111226600D01*
X201015600Y-109956600D02*
X203555600Y-109956600D01*
X203835600Y-111226600D02*
X203835600Y-112776600D01*
X203835600Y-112776600D02*
X200735600Y-112776600D01*
X203555600Y-109956600D02*
X203555600Y-107416600D01*
X203555600Y-107416600D02*
X201015600Y-107416600D01*
X195598600Y-117547000D02*
X195398600Y-117547000D01*
X193004600Y-117547000D02*
X193184600Y-117547000D01*
X193314957Y-114319256D02*
G75*
G03X192998600Y-117547000I1003643J-1727744D01*
G01*
X193185532Y-114994994D02*
G75*
G03X193184600Y-117098000I1133068J-1052006D01*
G01*
X195625326Y-117534220D02*
G75*
G03X195278600Y-114297000I-1306726J1497220D01*
G01*
X195397853Y-117060889D02*
G75*
G03X195378600Y-115013000I-1079253J1013889D01*
G01*
X131175000Y-120147400D02*
X124175000Y-120147400D01*
X124175000Y-120147400D02*
X124175000Y-117647400D01*
X124175000Y-117647400D02*
X131175000Y-117647400D01*
X131175000Y-117647400D02*
X131175000Y-120147400D01*
X97348800Y-115386800D02*
X104348800Y-115386800D01*
X104348800Y-115386800D02*
X104348800Y-117886800D01*
X104348800Y-117886800D02*
X97348800Y-117886800D01*
X97348800Y-117886800D02*
X97348800Y-115386800D01*
X105095800Y-117723600D02*
X112095800Y-117723600D01*
X112095800Y-117723600D02*
X112095800Y-120223600D01*
X112095800Y-120223600D02*
X105095800Y-120223600D01*
X105095800Y-120223600D02*
X105095800Y-117723600D01*
X148955000Y-120198200D02*
X141955000Y-120198200D01*
X141955000Y-120198200D02*
X141955000Y-117698200D01*
X141955000Y-117698200D02*
X148955000Y-117698200D01*
X148955000Y-117698200D02*
X148955000Y-120198200D01*
X162743200Y-113122200D02*
X162743200Y-120122200D01*
X162743200Y-120122200D02*
X160243200Y-120122200D01*
X160243200Y-120122200D02*
X160243200Y-113122200D01*
X160243200Y-113122200D02*
X162743200Y-113122200D01*
X184251600Y-100126800D02*
X184251600Y-101396800D01*
X185039000Y-100876100D02*
X185000900Y-100622100D01*
X185000900Y-100622100D02*
X184823100Y-100342700D01*
X184823100Y-100342700D02*
X184505600Y-100126800D01*
X184505600Y-100126800D02*
X184061100Y-100114100D01*
X184061100Y-100114100D02*
X183705500Y-100317300D01*
X183705500Y-100317300D02*
X183527700Y-100609400D01*
X183527700Y-100609400D02*
X183476900Y-100926900D01*
X183476900Y-100926900D02*
X183578500Y-101333300D01*
X183578500Y-101333300D02*
X183921400Y-101587300D01*
X183921400Y-101587300D02*
X184099200Y-101676200D01*
X192633600Y-103936800D02*
X182981600Y-103936800D01*
X182981600Y-100888800D02*
X182981600Y-99618800D01*
X182981600Y-99618800D02*
X192633600Y-99618800D01*
X192633600Y-99618800D02*
X192633600Y-104698800D01*
X182981600Y-104698800D02*
X182981600Y-102158800D01*
X182981600Y-102158800D02*
X182981600Y-100888800D01*
X96901000Y-106146600D02*
X96901000Y-105638600D01*
X94615000Y-106146600D02*
X94615000Y-105638600D01*
X89027000Y-106146600D02*
X94615000Y-106146600D01*
X102235000Y-106146600D02*
X96901000Y-106146600D01*
X102235000Y-114274600D02*
X89027000Y-114274600D01*
X88519000Y-114782600D02*
X102743000Y-114782600D01*
X102743000Y-105638600D02*
X88519000Y-105638600D01*
X88519000Y-105660600D02*
X89059000Y-106210600D01*
X88519000Y-114760600D02*
X89059000Y-114210600D01*
X89059000Y-114210600D02*
X89059000Y-106210600D01*
X88519000Y-114760600D02*
X88519000Y-105660600D01*
X88519000Y-114760600D02*
X88519000Y-105660600D01*
X89059000Y-114210600D02*
X89059000Y-106210600D01*
X88519000Y-114760600D02*
X89059000Y-114210600D01*
X88519000Y-105660600D02*
X89059000Y-106210600D01*
X102743000Y-105660600D02*
X102203000Y-106210600D01*
X102743000Y-114760600D02*
X102203000Y-114210600D01*
X102203000Y-114210600D02*
X102203000Y-106210600D01*
X102743000Y-114760600D02*
X102743000Y-105660600D01*
X102743000Y-114760600D02*
X102743000Y-105660600D01*
X102203000Y-114210600D02*
X102203000Y-106210600D01*
X102743000Y-114760600D02*
X102203000Y-114210600D01*
X102743000Y-105660600D02*
X102203000Y-106210600D01*
X82067400Y-106146600D02*
X82067400Y-105638600D01*
X79781400Y-106146600D02*
X79781400Y-105638600D01*
X74193400Y-106146600D02*
X79781400Y-106146600D01*
X87401400Y-106146600D02*
X82067400Y-106146600D01*
X87401400Y-114274600D02*
X74193400Y-114274600D01*
X73685400Y-114782600D02*
X87909400Y-114782600D01*
X87909400Y-105638600D02*
X73685400Y-105638600D01*
X73685400Y-105660600D02*
X74225400Y-106210600D01*
X73685400Y-114760600D02*
X74225400Y-114210600D01*
X74225400Y-114210600D02*
X74225400Y-106210600D01*
X73685400Y-114760600D02*
X73685400Y-105660600D01*
X73685400Y-114760600D02*
X73685400Y-105660600D01*
X74225400Y-114210600D02*
X74225400Y-106210600D01*
X73685400Y-114760600D02*
X74225400Y-114210600D01*
X73685400Y-105660600D02*
X74225400Y-106210600D01*
X87909400Y-105660600D02*
X87369400Y-106210600D01*
X87909400Y-114760600D02*
X87369400Y-114210600D01*
X87369400Y-114210600D02*
X87369400Y-106210600D01*
X87909400Y-114760600D02*
X87909400Y-105660600D01*
X87909400Y-114760600D02*
X87909400Y-105660600D01*
X87369400Y-114210600D02*
X87369400Y-106210600D01*
X87909400Y-114760600D02*
X87369400Y-114210600D01*
X87909400Y-105660600D02*
X87369400Y-106210600D01*
X205486000Y-102870000D02*
G75*
G03X205486000Y-102870000I-2286000J0D01*
G01*
X205486000Y-116840000D02*
G75*
G03X205486000Y-116840000I-2286000J0D01*
G01*
X69596000Y-116840000D02*
G75*
G03X69596000Y-116840000I-2286000J0D01*
G01*
X185819841Y-109904762D02*
X186819841Y-109666667D01*
X186105555Y-109476190D01*
X186819841Y-109285714D01*
X185819841Y-109047619D01*
X185819841Y-108190476D02*
X185819841Y-108666667D01*
X186296031Y-108714286D01*
X186248412Y-108666667D01*
X186200793Y-108571429D01*
X186200793Y-108333333D01*
X186248412Y-108238095D01*
X186296031Y-108190476D01*
X186391270Y-108142857D01*
X186629365Y-108142857D01*
X186724603Y-108190476D01*
X186772222Y-108238095D01*
X186819841Y-108333333D01*
X186819841Y-108571429D01*
X186772222Y-108666667D01*
X186724603Y-108714286D01*
X65976667Y-100274381D02*
X65643333Y-99798190D01*
X65405238Y-100274381D02*
X65405238Y-99274381D01*
X65786191Y-99274381D01*
X65881429Y-99322000D01*
X65929048Y-99369619D01*
X65976667Y-99464857D01*
X65976667Y-99607714D01*
X65929048Y-99702952D01*
X65881429Y-99750571D01*
X65786191Y-99798190D01*
X65405238Y-99798190D01*
X66405238Y-99750571D02*
X66738572Y-99750571D01*
X66881429Y-100274381D02*
X66405238Y-100274381D01*
X66405238Y-99274381D01*
X66881429Y-99274381D01*
X67643334Y-99750571D02*
X67310000Y-99750571D01*
X67310000Y-100274381D02*
X67310000Y-99274381D01*
X67786191Y-99274381D01*
X68310000Y-99274381D02*
X68310000Y-99512476D01*
X68071905Y-99417238D02*
X68310000Y-99512476D01*
X68548096Y-99417238D01*
X68167143Y-99702952D02*
X68310000Y-99512476D01*
X68452858Y-99702952D01*
X69071905Y-99274381D02*
X69071905Y-99512476D01*
X68833810Y-99417238D02*
X69071905Y-99512476D01*
X69310001Y-99417238D01*
X68929048Y-99702952D02*
X69071905Y-99512476D01*
X69214763Y-99702952D01*
X161172381Y-101476190D02*
X160172381Y-101476190D01*
X161172381Y-100476190D02*
X161172381Y-101047619D01*
X161172381Y-100761905D02*
X160172381Y-100761905D01*
X160315238Y-100857143D01*
X160410476Y-100952381D01*
X160458095Y-101047619D01*
X159561305Y-116022381D02*
X159561305Y-115022381D01*
X159942258Y-115022381D01*
X160037496Y-115070000D01*
X160085115Y-115117619D01*
X160132734Y-115212857D01*
X160132734Y-115355714D01*
X160085115Y-115450952D01*
X160037496Y-115498571D01*
X159942258Y-115546190D01*
X159561305Y-115546190D01*
X160989877Y-115022381D02*
X160799400Y-115022381D01*
X160704162Y-115070000D01*
X160656543Y-115117619D01*
X160561305Y-115260476D01*
X160513686Y-115450952D01*
X160513686Y-115831905D01*
X160561305Y-115927143D01*
X160608924Y-115974762D01*
X160704162Y-116022381D01*
X160894639Y-116022381D01*
X160989877Y-115974762D01*
X161037496Y-115927143D01*
X161085115Y-115831905D01*
X161085115Y-115593810D01*
X161037496Y-115498571D01*
X160989877Y-115450952D01*
X160894639Y-115403333D01*
X160704162Y-115403333D01*
X160608924Y-115450952D01*
X160561305Y-115498571D01*
X160513686Y-115593810D01*
X168706895Y-118488981D02*
X168706895Y-119298505D01*
X168754514Y-119393743D01*
X168802133Y-119441362D01*
X168897371Y-119488981D01*
X169087848Y-119488981D01*
X169183086Y-119441362D01*
X169230705Y-119393743D01*
X169278324Y-119298505D01*
X169278324Y-118488981D01*
X170278324Y-119488981D02*
X169706895Y-119488981D01*
X169992609Y-119488981D02*
X169992609Y-118488981D01*
X169897371Y-118631838D01*
X169802133Y-118727076D01*
X169706895Y-118774695D01*
X169924181Y-120751505D02*
X170733705Y-120751505D01*
X170828943Y-120703886D01*
X170876562Y-120656267D01*
X170924181Y-120561029D01*
X170924181Y-120370552D01*
X170876562Y-120275314D01*
X170828943Y-120227695D01*
X170733705Y-120180076D01*
X169924181Y-120180076D01*
X170019419Y-119751505D02*
X169971800Y-119703886D01*
X169924181Y-119608648D01*
X169924181Y-119370552D01*
X169971800Y-119275314D01*
X170019419Y-119227695D01*
X170114657Y-119180076D01*
X170209895Y-119180076D01*
X170352752Y-119227695D01*
X170924181Y-119799124D01*
X170924181Y-119180076D01*
X185992521Y-109904762D02*
X186992521Y-109666667D01*
X186278235Y-109476190D01*
X186992521Y-109285714D01*
X185992521Y-109047619D01*
X186325854Y-108238095D02*
X186992521Y-108238095D01*
X185944902Y-108476191D02*
X186659188Y-108714286D01*
X186659188Y-108095238D01*
X167623241Y-119929162D02*
X168623241Y-119691067D01*
X167908955Y-119500590D01*
X168623241Y-119310114D01*
X167623241Y-119072019D01*
X167623241Y-118786305D02*
X167623241Y-118167257D01*
X168004193Y-118500591D01*
X168004193Y-118357733D01*
X168051812Y-118262495D01*
X168099431Y-118214876D01*
X168194670Y-118167257D01*
X168432765Y-118167257D01*
X168528003Y-118214876D01*
X168575622Y-118262495D01*
X168623241Y-118357733D01*
X168623241Y-118643448D01*
X168575622Y-118738686D01*
X168528003Y-118786305D01*
X199219841Y-117904762D02*
X200219841Y-117666667D01*
X199505555Y-117476190D01*
X200219841Y-117285714D01*
X199219841Y-117047619D01*
X199315079Y-116714286D02*
X199267460Y-116666667D01*
X199219841Y-116571429D01*
X199219841Y-116333333D01*
X199267460Y-116238095D01*
X199315079Y-116190476D01*
X199410317Y-116142857D01*
X199505555Y-116142857D01*
X199648412Y-116190476D01*
X200219841Y-116761905D01*
X200219841Y-116142857D01*
X199219841Y-103904762D02*
X200219841Y-103666667D01*
X199505555Y-103476190D01*
X200219841Y-103285714D01*
X199219841Y-103047619D01*
X200219841Y-102142857D02*
X200219841Y-102714286D01*
X200219841Y-102428572D02*
X199219841Y-102428572D01*
X199362698Y-102523810D01*
X199457936Y-102619048D01*
X199505555Y-102714286D01*
X185923181Y-102754038D02*
X185446990Y-103087372D01*
X185923181Y-103325467D02*
X184923181Y-103325467D01*
X184923181Y-102944514D01*
X184970800Y-102849276D01*
X185018419Y-102801657D01*
X185113657Y-102754038D01*
X185256514Y-102754038D01*
X185351752Y-102801657D01*
X185399371Y-102849276D01*
X185446990Y-102944514D01*
X185446990Y-103325467D01*
X184923181Y-102468324D02*
X185923181Y-102134991D01*
X184923181Y-101801657D01*
X185018419Y-101515943D02*
X184970800Y-101468324D01*
X184923181Y-101373086D01*
X184923181Y-101134990D01*
X184970800Y-101039752D01*
X185018419Y-100992133D01*
X185113657Y-100944514D01*
X185208895Y-100944514D01*
X185351752Y-100992133D01*
X185923181Y-101563562D01*
X185923181Y-100944514D01*
X191379101Y-116391986D02*
X190902910Y-116725320D01*
X191379101Y-116963415D02*
X190379101Y-116963415D01*
X190379101Y-116582462D01*
X190426720Y-116487224D01*
X190474339Y-116439605D01*
X190569577Y-116391986D01*
X190712434Y-116391986D01*
X190807672Y-116439605D01*
X190855291Y-116487224D01*
X190902910Y-116582462D01*
X190902910Y-116963415D01*
X190807672Y-115820558D02*
X190760053Y-115915796D01*
X190712434Y-115963415D01*
X190617196Y-116011034D01*
X190569577Y-116011034D01*
X190474339Y-115963415D01*
X190426720Y-115915796D01*
X190379101Y-115820558D01*
X190379101Y-115630081D01*
X190426720Y-115534843D01*
X190474339Y-115487224D01*
X190569577Y-115439605D01*
X190617196Y-115439605D01*
X190712434Y-115487224D01*
X190760053Y-115534843D01*
X190807672Y-115630081D01*
X190807672Y-115820558D01*
X190855291Y-115915796D01*
X190902910Y-115963415D01*
X190998149Y-116011034D01*
X191188625Y-116011034D01*
X191283863Y-115963415D01*
X191331482Y-115915796D01*
X191379101Y-115820558D01*
X191379101Y-115630081D01*
X191331482Y-115534843D01*
X191283863Y-115487224D01*
X191188625Y-115439605D01*
X190998149Y-115439605D01*
X190902910Y-115487224D01*
X190855291Y-115534843D01*
X190807672Y-115630081D01*
X177968614Y-109794301D02*
X177635280Y-109318110D01*
X177397185Y-109794301D02*
X177397185Y-108794301D01*
X177778138Y-108794301D01*
X177873376Y-108841920D01*
X177920995Y-108889539D01*
X177968614Y-108984777D01*
X177968614Y-109127634D01*
X177920995Y-109222872D01*
X177873376Y-109270491D01*
X177778138Y-109318110D01*
X177397185Y-109318110D01*
X178301947Y-108794301D02*
X178968614Y-108794301D01*
X178540042Y-109794301D01*
X178466454Y-105918261D02*
X178133120Y-105442070D01*
X177895025Y-105918261D02*
X177895025Y-104918261D01*
X178275978Y-104918261D01*
X178371216Y-104965880D01*
X178418835Y-105013499D01*
X178466454Y-105108737D01*
X178466454Y-105251594D01*
X178418835Y-105346832D01*
X178371216Y-105394451D01*
X178275978Y-105442070D01*
X177895025Y-105442070D01*
X179323597Y-104918261D02*
X179133120Y-104918261D01*
X179037882Y-104965880D01*
X178990263Y-105013499D01*
X178895025Y-105156356D01*
X178847406Y-105346832D01*
X178847406Y-105727785D01*
X178895025Y-105823023D01*
X178942644Y-105870642D01*
X179037882Y-105918261D01*
X179228359Y-105918261D01*
X179323597Y-105870642D01*
X179371216Y-105823023D01*
X179418835Y-105727785D01*
X179418835Y-105489690D01*
X179371216Y-105394451D01*
X179323597Y-105346832D01*
X179228359Y-105299213D01*
X179037882Y-105299213D01*
X178942644Y-105346832D01*
X178895025Y-105394451D01*
X178847406Y-105489690D01*
X187553861Y-115868746D02*
X187077670Y-116202080D01*
X187553861Y-116440175D02*
X186553861Y-116440175D01*
X186553861Y-116059222D01*
X186601480Y-115963984D01*
X186649099Y-115916365D01*
X186744337Y-115868746D01*
X186887194Y-115868746D01*
X186982432Y-115916365D01*
X187030051Y-115963984D01*
X187077670Y-116059222D01*
X187077670Y-116440175D01*
X186553861Y-114963984D02*
X186553861Y-115440175D01*
X187030051Y-115487794D01*
X186982432Y-115440175D01*
X186934813Y-115344937D01*
X186934813Y-115106841D01*
X186982432Y-115011603D01*
X187030051Y-114963984D01*
X187125290Y-114916365D01*
X187363385Y-114916365D01*
X187458623Y-114963984D01*
X187506242Y-115011603D01*
X187553861Y-115106841D01*
X187553861Y-115344937D01*
X187506242Y-115440175D01*
X187458623Y-115487794D01*
X188829654Y-102921061D02*
X188496320Y-102444870D01*
X188258225Y-102921061D02*
X188258225Y-101921061D01*
X188639178Y-101921061D01*
X188734416Y-101968680D01*
X188782035Y-102016299D01*
X188829654Y-102111537D01*
X188829654Y-102254394D01*
X188782035Y-102349632D01*
X188734416Y-102397251D01*
X188639178Y-102444870D01*
X188258225Y-102444870D01*
X189686797Y-102254394D02*
X189686797Y-102921061D01*
X189448701Y-101873442D02*
X189210606Y-102587728D01*
X189829654Y-102587728D01*
X136134814Y-122900701D02*
X135801480Y-122424510D01*
X135563385Y-122900701D02*
X135563385Y-121900701D01*
X135944338Y-121900701D01*
X136039576Y-121948320D01*
X136087195Y-121995939D01*
X136134814Y-122091177D01*
X136134814Y-122234034D01*
X136087195Y-122329272D01*
X136039576Y-122376891D01*
X135944338Y-122424510D01*
X135563385Y-122424510D01*
X136468147Y-121900701D02*
X137087195Y-121900701D01*
X136753861Y-122281653D01*
X136896719Y-122281653D01*
X136991957Y-122329272D01*
X137039576Y-122376891D01*
X137087195Y-122472130D01*
X137087195Y-122710225D01*
X137039576Y-122805463D01*
X136991957Y-122853082D01*
X136896719Y-122900701D01*
X136611004Y-122900701D01*
X136515766Y-122853082D01*
X136468147Y-122805463D01*
X117912854Y-115900461D02*
X117579520Y-115424270D01*
X117341425Y-115900461D02*
X117341425Y-114900461D01*
X117722378Y-114900461D01*
X117817616Y-114948080D01*
X117865235Y-114995699D01*
X117912854Y-115090937D01*
X117912854Y-115233794D01*
X117865235Y-115329032D01*
X117817616Y-115376651D01*
X117722378Y-115424270D01*
X117341425Y-115424270D01*
X118293806Y-114995699D02*
X118341425Y-114948080D01*
X118436663Y-114900461D01*
X118674759Y-114900461D01*
X118769997Y-114948080D01*
X118817616Y-114995699D01*
X118865235Y-115090937D01*
X118865235Y-115186175D01*
X118817616Y-115329032D01*
X118246187Y-115900461D01*
X118865235Y-115900461D01*
X153940214Y-122900701D02*
X153606880Y-122424510D01*
X153368785Y-122900701D02*
X153368785Y-121900701D01*
X153749738Y-121900701D01*
X153844976Y-121948320D01*
X153892595Y-121995939D01*
X153940214Y-122091177D01*
X153940214Y-122234034D01*
X153892595Y-122329272D01*
X153844976Y-122376891D01*
X153749738Y-122424510D01*
X153368785Y-122424510D01*
X154892595Y-122900701D02*
X154321166Y-122900701D01*
X154606880Y-122900701D02*
X154606880Y-121900701D01*
X154511642Y-122043558D01*
X154416404Y-122138796D01*
X154321166Y-122186415D01*
X201547505Y-116778981D02*
X201547505Y-115778981D01*
X201928458Y-115778981D01*
X202023696Y-115826600D01*
X202071315Y-115874219D01*
X202118934Y-115969457D01*
X202118934Y-116112314D01*
X202071315Y-116207552D01*
X202023696Y-116255171D01*
X201928458Y-116302790D01*
X201547505Y-116302790D01*
X203071315Y-116778981D02*
X202499886Y-116778981D01*
X202785600Y-116778981D02*
X202785600Y-115778981D01*
X202690362Y-115921838D01*
X202595124Y-116017076D01*
X202499886Y-116064695D01*
X197796981Y-116176095D02*
X196796981Y-116176095D01*
X196796981Y-115938000D01*
X196844600Y-115795142D01*
X196939838Y-115699904D01*
X197035076Y-115652285D01*
X197225552Y-115604666D01*
X197368410Y-115604666D01*
X197558886Y-115652285D01*
X197654124Y-115699904D01*
X197749362Y-115795142D01*
X197796981Y-115938000D01*
X197796981Y-116176095D01*
X197796981Y-114652285D02*
X197796981Y-115223714D01*
X197796981Y-114938000D02*
X196796981Y-114938000D01*
X196939838Y-115033238D01*
X197035076Y-115128476D01*
X197082695Y-115223714D01*
X196476981Y-119299905D02*
X195476981Y-119299905D01*
X196476981Y-118728476D02*
X195905552Y-119157048D01*
X195476981Y-118728476D02*
X196048410Y-119299905D01*
X127508334Y-121754543D02*
X127460715Y-121802162D01*
X127317858Y-121849781D01*
X127222620Y-121849781D01*
X127079762Y-121802162D01*
X126984524Y-121706924D01*
X126936905Y-121611686D01*
X126889286Y-121421210D01*
X126889286Y-121278352D01*
X126936905Y-121087876D01*
X126984524Y-120992638D01*
X127079762Y-120897400D01*
X127222620Y-120849781D01*
X127317858Y-120849781D01*
X127460715Y-120897400D01*
X127508334Y-120945019D01*
X128413096Y-120849781D02*
X127936905Y-120849781D01*
X127889286Y-121325971D01*
X127936905Y-121278352D01*
X128032143Y-121230733D01*
X128270239Y-121230733D01*
X128365477Y-121278352D01*
X128413096Y-121325971D01*
X128460715Y-121421210D01*
X128460715Y-121659305D01*
X128413096Y-121754543D01*
X128365477Y-121802162D01*
X128270239Y-121849781D01*
X128032143Y-121849781D01*
X127936905Y-121802162D01*
X127889286Y-121754543D01*
X100682134Y-114493943D02*
X100634515Y-114541562D01*
X100491658Y-114589181D01*
X100396420Y-114589181D01*
X100253562Y-114541562D01*
X100158324Y-114446324D01*
X100110705Y-114351086D01*
X100063086Y-114160610D01*
X100063086Y-114017752D01*
X100110705Y-113827276D01*
X100158324Y-113732038D01*
X100253562Y-113636800D01*
X100396420Y-113589181D01*
X100491658Y-113589181D01*
X100634515Y-113636800D01*
X100682134Y-113684419D01*
X101539277Y-113922514D02*
X101539277Y-114589181D01*
X101301181Y-113541562D02*
X101063086Y-114255848D01*
X101682134Y-114255848D01*
X108429134Y-116830743D02*
X108381515Y-116878362D01*
X108238658Y-116925981D01*
X108143420Y-116925981D01*
X108000562Y-116878362D01*
X107905324Y-116783124D01*
X107857705Y-116687886D01*
X107810086Y-116497410D01*
X107810086Y-116354552D01*
X107857705Y-116164076D01*
X107905324Y-116068838D01*
X108000562Y-115973600D01*
X108143420Y-115925981D01*
X108238658Y-115925981D01*
X108381515Y-115973600D01*
X108429134Y-116021219D01*
X108762467Y-115925981D02*
X109381515Y-115925981D01*
X109048181Y-116306933D01*
X109191039Y-116306933D01*
X109286277Y-116354552D01*
X109333896Y-116402171D01*
X109381515Y-116497410D01*
X109381515Y-116735505D01*
X109333896Y-116830743D01*
X109286277Y-116878362D01*
X109191039Y-116925981D01*
X108905324Y-116925981D01*
X108810086Y-116878362D01*
X108762467Y-116830743D01*
X145288334Y-121805343D02*
X145240715Y-121852962D01*
X145097858Y-121900581D01*
X145002620Y-121900581D01*
X144859762Y-121852962D01*
X144764524Y-121757724D01*
X144716905Y-121662486D01*
X144669286Y-121472010D01*
X144669286Y-121329152D01*
X144716905Y-121138676D01*
X144764524Y-121043438D01*
X144859762Y-120948200D01*
X145002620Y-120900581D01*
X145097858Y-120900581D01*
X145240715Y-120948200D01*
X145288334Y-120995819D01*
X145669286Y-120995819D02*
X145716905Y-120948200D01*
X145812143Y-120900581D01*
X146050239Y-120900581D01*
X146145477Y-120948200D01*
X146193096Y-120995819D01*
X146240715Y-121091057D01*
X146240715Y-121186295D01*
X146193096Y-121329152D01*
X145621667Y-121900581D01*
X146240715Y-121900581D01*
X164350343Y-116788866D02*
X164397962Y-116836485D01*
X164445581Y-116979342D01*
X164445581Y-117074580D01*
X164397962Y-117217438D01*
X164302724Y-117312676D01*
X164207486Y-117360295D01*
X164017010Y-117407914D01*
X163874152Y-117407914D01*
X163683676Y-117360295D01*
X163588438Y-117312676D01*
X163493200Y-117217438D01*
X163445581Y-117074580D01*
X163445581Y-116979342D01*
X163493200Y-116836485D01*
X163540819Y-116788866D01*
X164445581Y-115836485D02*
X164445581Y-116407914D01*
X164445581Y-116122200D02*
X163445581Y-116122200D01*
X163588438Y-116217438D01*
X163683676Y-116312676D01*
X163731295Y-116407914D01*
X195879981Y-102754038D02*
X195403790Y-103087372D01*
X195879981Y-103325467D02*
X194879981Y-103325467D01*
X194879981Y-102944514D01*
X194927600Y-102849276D01*
X194975219Y-102801657D01*
X195070457Y-102754038D01*
X195213314Y-102754038D01*
X195308552Y-102801657D01*
X195356171Y-102849276D01*
X195403790Y-102944514D01*
X195403790Y-103325467D01*
X194879981Y-102468324D02*
X195879981Y-102134991D01*
X194879981Y-101801657D01*
X195879981Y-100944514D02*
X195879981Y-101515943D01*
X195879981Y-101230229D02*
X194879981Y-101230229D01*
X195022838Y-101325467D01*
X195118076Y-101420705D01*
X195165695Y-101515943D01*
X89812905Y-118282981D02*
X89812905Y-117282981D01*
X90193858Y-117282981D01*
X90289096Y-117330600D01*
X90336715Y-117378219D01*
X90384334Y-117473457D01*
X90384334Y-117616314D01*
X90336715Y-117711552D01*
X90289096Y-117759171D01*
X90193858Y-117806790D01*
X89812905Y-117806790D01*
X90717667Y-117282981D02*
X91336715Y-117282981D01*
X91003381Y-117663933D01*
X91146239Y-117663933D01*
X91241477Y-117711552D01*
X91289096Y-117759171D01*
X91336715Y-117854410D01*
X91336715Y-118092505D01*
X91289096Y-118187743D01*
X91241477Y-118235362D01*
X91146239Y-118282981D01*
X90860524Y-118282981D01*
X90765286Y-118235362D01*
X90717667Y-118187743D01*
X74979305Y-118282981D02*
X74979305Y-117282981D01*
X75360258Y-117282981D01*
X75455496Y-117330600D01*
X75503115Y-117378219D01*
X75550734Y-117473457D01*
X75550734Y-117616314D01*
X75503115Y-117711552D01*
X75455496Y-117759171D01*
X75360258Y-117806790D01*
X74979305Y-117806790D01*
X76407877Y-117616314D02*
X76407877Y-118282981D01*
X76169781Y-117235362D02*
X75931686Y-117949648D01*
X76550734Y-117949648D01*
X201866667Y-100274381D02*
X201533333Y-99798190D01*
X201295238Y-100274381D02*
X201295238Y-99274381D01*
X201676191Y-99274381D01*
X201771429Y-99322000D01*
X201819048Y-99369619D01*
X201866667Y-99464857D01*
X201866667Y-99607714D01*
X201819048Y-99702952D01*
X201771429Y-99750571D01*
X201676191Y-99798190D01*
X201295238Y-99798190D01*
X202295238Y-99750571D02*
X202628572Y-99750571D01*
X202771429Y-100274381D02*
X202295238Y-100274381D01*
X202295238Y-99274381D01*
X202771429Y-99274381D01*
X203533334Y-99750571D02*
X203200000Y-99750571D01*
X203200000Y-100274381D02*
X203200000Y-99274381D01*
X203676191Y-99274381D01*
X204200000Y-99274381D02*
X204200000Y-99512476D01*
X203961905Y-99417238D02*
X204200000Y-99512476D01*
X204438096Y-99417238D01*
X204057143Y-99702952D02*
X204200000Y-99512476D01*
X204342858Y-99702952D01*
X204961905Y-99274381D02*
X204961905Y-99512476D01*
X204723810Y-99417238D02*
X204961905Y-99512476D01*
X205200001Y-99417238D01*
X204819048Y-99702952D02*
X204961905Y-99512476D01*
X205104763Y-99702952D01*
X201866667Y-114244381D02*
X201533333Y-113768190D01*
X201295238Y-114244381D02*
X201295238Y-113244381D01*
X201676191Y-113244381D01*
X201771429Y-113292000D01*
X201819048Y-113339619D01*
X201866667Y-113434857D01*
X201866667Y-113577714D01*
X201819048Y-113672952D01*
X201771429Y-113720571D01*
X201676191Y-113768190D01*
X201295238Y-113768190D01*
X202295238Y-113720571D02*
X202628572Y-113720571D01*
X202771429Y-114244381D02*
X202295238Y-114244381D01*
X202295238Y-113244381D01*
X202771429Y-113244381D01*
X203533334Y-113720571D02*
X203200000Y-113720571D01*
X203200000Y-114244381D02*
X203200000Y-113244381D01*
X203676191Y-113244381D01*
X204200000Y-113244381D02*
X204200000Y-113482476D01*
X203961905Y-113387238D02*
X204200000Y-113482476D01*
X204438096Y-113387238D01*
X204057143Y-113672952D02*
X204200000Y-113482476D01*
X204342858Y-113672952D01*
X204961905Y-113244381D02*
X204961905Y-113482476D01*
X204723810Y-113387238D02*
X204961905Y-113482476D01*
X205200001Y-113387238D01*
X204819048Y-113672952D02*
X204961905Y-113482476D01*
X205104763Y-113672952D01*
X65976667Y-114244381D02*
X65643333Y-113768190D01*
X65405238Y-114244381D02*
X65405238Y-113244381D01*
X65786191Y-113244381D01*
X65881429Y-113292000D01*
X65929048Y-113339619D01*
X65976667Y-113434857D01*
X65976667Y-113577714D01*
X65929048Y-113672952D01*
X65881429Y-113720571D01*
X65786191Y-113768190D01*
X65405238Y-113768190D01*
X66405238Y-113720571D02*
X66738572Y-113720571D01*
X66881429Y-114244381D02*
X66405238Y-114244381D01*
X66405238Y-113244381D01*
X66881429Y-113244381D01*
X67643334Y-113720571D02*
X67310000Y-113720571D01*
X67310000Y-114244381D02*
X67310000Y-113244381D01*
X67786191Y-113244381D01*
X68310000Y-113244381D02*
X68310000Y-113482476D01*
X68071905Y-113387238D02*
X68310000Y-113482476D01*
X68548096Y-113387238D01*
X68167143Y-113672952D02*
X68310000Y-113482476D01*
X68452858Y-113672952D01*
X69071905Y-113244381D02*
X69071905Y-113482476D01*
X68833810Y-113387238D02*
X69071905Y-113482476D01*
X69310001Y-113387238D01*
X68929048Y-113672952D02*
X69071905Y-113482476D01*
X69214763Y-113672952D01*
M02*
