G04 #@! TF.FileFunction,Copper,L2,Bot,Mixed*
%FSLAX46Y46*%
G04 Gerber Fmt 4.6, Leading zero omitted, Abs format (unit mm)*
G04 Created by KiCad (PCBNEW 4.0.2-stable) date Wed 13 Apr 2016 05:19:08 PM PDT*
%MOMM*%
G01*
G04 APERTURE LIST*
%ADD10C,0.100000*%
%ADD11C,1.143000*%
%ADD12C,4.064000*%
%ADD13O,1.600000X1.600000*%
%ADD14R,1.727200X1.727200*%
%ADD15O,1.727200X1.727200*%
%ADD16O,0.899160X1.501140*%
%ADD17C,1.524000*%
%ADD18C,1.998980*%
%ADD19R,2.032000X2.032000*%
%ADD20O,2.032000X2.032000*%
%ADD21R,2.000000X2.000000*%
%ADD22C,2.000000*%
%ADD23R,1.300000X1.300000*%
%ADD24C,1.300000*%
%ADD25O,2.032000X1.727200*%
%ADD26C,0.685800*%
%ADD27C,0.152400*%
%ADD28C,0.254000*%
G04 APERTURE END LIST*
D10*
D11*
X185100000Y-109000000D03*
D12*
X67310000Y-102870000D03*
D13*
X155500000Y-101000000D03*
X152960000Y-101000000D03*
X150420000Y-101000000D03*
X147880000Y-101000000D03*
X145340000Y-101000000D03*
X142800000Y-101000000D03*
X140260000Y-101000000D03*
X137720000Y-101000000D03*
X135180000Y-101000000D03*
X132640000Y-101000000D03*
X130100000Y-101000000D03*
X127560000Y-101000000D03*
X125020000Y-101000000D03*
X122480000Y-101000000D03*
X119940000Y-101000000D03*
X117400000Y-101000000D03*
X114860000Y-101000000D03*
X112320000Y-101000000D03*
X109780000Y-101000000D03*
X107240000Y-101000000D03*
X107240000Y-116240000D03*
X109780000Y-116240000D03*
X112320000Y-116240000D03*
X114860000Y-116240000D03*
X117400000Y-116240000D03*
X119940000Y-116240000D03*
X122480000Y-116240000D03*
X125020000Y-116240000D03*
X127560000Y-116240000D03*
X130100000Y-116240000D03*
X132640000Y-116240000D03*
X135180000Y-116240000D03*
X137720000Y-116240000D03*
X140260000Y-116240000D03*
X142800000Y-116240000D03*
X145340000Y-116240000D03*
X147880000Y-116240000D03*
X150420000Y-116240000D03*
X152960000Y-116240000D03*
X155500000Y-116240000D03*
D14*
X169189400Y-106680000D03*
D15*
X169189400Y-109220000D03*
X166649400Y-106680000D03*
X166649400Y-109220000D03*
X164109400Y-106680000D03*
X164109400Y-109220000D03*
X161569400Y-106680000D03*
X161569400Y-109220000D03*
D16*
X168198800Y-115036600D03*
X166928800Y-115036600D03*
X169468800Y-115036600D03*
D13*
X175691800Y-119989600D03*
X178231800Y-119989600D03*
X180771800Y-119989600D03*
X183311800Y-119989600D03*
X183311800Y-112369600D03*
X180771800Y-112369600D03*
X178231800Y-112369600D03*
X175691800Y-112369600D03*
D11*
X187807600Y-109000000D03*
X166903400Y-119024400D03*
X198500000Y-117000000D03*
X198500000Y-103000000D03*
D17*
X177850800Y-102158800D03*
X180390800Y-102158800D03*
X175310800Y-102158800D03*
D18*
X187426600Y-112166400D03*
X187426600Y-119786400D03*
X182194200Y-105841800D03*
X174574200Y-105841800D03*
X174574200Y-108966000D03*
X182194200Y-108966000D03*
X190601600Y-119761000D03*
X190601600Y-112141000D03*
X184937400Y-105968800D03*
X192557400Y-105968800D03*
X140360400Y-118948200D03*
X132740400Y-118948200D03*
X114020600Y-118948200D03*
X121640600Y-118948200D03*
X158165800Y-118948200D03*
X150545800Y-118948200D03*
D19*
X202285600Y-111226600D03*
D20*
X202285600Y-108686600D03*
D21*
X194284600Y-117348000D03*
D22*
X194284600Y-114808000D03*
D23*
X130175000Y-118897400D03*
D24*
X125175000Y-118897400D03*
D23*
X98348800Y-116636800D03*
D24*
X103348800Y-116636800D03*
D23*
X106095800Y-118973600D03*
D24*
X111095800Y-118973600D03*
D23*
X147955000Y-118948200D03*
D24*
X142955000Y-118948200D03*
D23*
X161493200Y-114122200D03*
D24*
X161493200Y-119122200D03*
D17*
X187807600Y-102158800D03*
X190347600Y-102158800D03*
X185267600Y-102158800D03*
D14*
X99441000Y-108940600D03*
D15*
X99441000Y-111480600D03*
X96901000Y-108940600D03*
X96901000Y-111480600D03*
X94361000Y-108940600D03*
X94361000Y-111480600D03*
X91821000Y-108940600D03*
X91821000Y-111480600D03*
D14*
X84607400Y-108940600D03*
D15*
X84607400Y-111480600D03*
X82067400Y-108940600D03*
X82067400Y-111480600D03*
X79527400Y-108940600D03*
X79527400Y-111480600D03*
X76987400Y-108940600D03*
X76987400Y-111480600D03*
D25*
X197865000Y-113810000D03*
X197865000Y-111270000D03*
X197865000Y-108730000D03*
X197865000Y-106190000D03*
X72160000Y-106190000D03*
X72160000Y-108730000D03*
X72160000Y-111270000D03*
X72160000Y-113810000D03*
X72160000Y-113810000D03*
X72160000Y-111270000D03*
X72160000Y-108730000D03*
X72160000Y-106190000D03*
D12*
X203200000Y-102870000D03*
X203200000Y-116840000D03*
X67310000Y-116840000D03*
D26*
X161493200Y-117119400D03*
X126238000Y-120269000D03*
X122500000Y-112270000D03*
X187426600Y-116103400D03*
X175666400Y-115544600D03*
X170129200Y-101727000D03*
X100507800Y-104571800D03*
X86004400Y-104521000D03*
X102158800Y-102285800D03*
X165328600Y-100152200D03*
X95631000Y-102641400D03*
X80822800Y-102666800D03*
X78232000Y-103225600D03*
X93040200Y-103225600D03*
X162788600Y-100736400D03*
X162763200Y-100736400D03*
X82016600Y-103530400D03*
X96901000Y-103581200D03*
X166624000Y-101066600D03*
X168935400Y-101727000D03*
X99263200Y-104241600D03*
X84607400Y-104216200D03*
X89509600Y-110083600D03*
X89814400Y-113919000D03*
X107238800Y-110413800D03*
X159410400Y-106451400D03*
X76987400Y-108940600D03*
X79502000Y-103555800D03*
X94386400Y-103886000D03*
X164084000Y-101396800D03*
X167300000Y-110430000D03*
X181127400Y-116128800D03*
X136448800Y-114579400D03*
X189509400Y-103454200D03*
X179730000Y-109560000D03*
X176800000Y-109790000D03*
X135356600Y-104622600D03*
X132816600Y-104622600D03*
X103911400Y-112242600D03*
X130098800Y-105892600D03*
X127736600Y-105384600D03*
X125196600Y-105333800D03*
X122656600Y-104648000D03*
X120116600Y-106451400D03*
X117576600Y-107645200D03*
X115036600Y-104673400D03*
X112496600Y-104978200D03*
X109372400Y-104622600D03*
X111887000Y-109296200D03*
X114452400Y-108280200D03*
X116992400Y-106121200D03*
X103352600Y-104902000D03*
X167919400Y-102412800D03*
X98298000Y-104927400D03*
X83489800Y-104851200D03*
X103403400Y-101142800D03*
X145338800Y-105638600D03*
X147828000Y-105638600D03*
X152933400Y-104952800D03*
X150418800Y-105308400D03*
X142773400Y-104952800D03*
X140284200Y-104978200D03*
X137718800Y-104622600D03*
D27*
X150420000Y-116240000D02*
X150420000Y-116282400D01*
X150420000Y-116282400D02*
X151536398Y-117398798D01*
X161213802Y-117398798D02*
X161493200Y-117119400D01*
X151536398Y-117398798D02*
X161213802Y-117398798D01*
X98348800Y-116636800D02*
X102057200Y-116636800D01*
X104394000Y-118973600D02*
X106095800Y-118973600D01*
X102057200Y-116636800D02*
X104394000Y-118973600D01*
X126238000Y-120269000D02*
X127560000Y-118947000D01*
X127560000Y-118947000D02*
X127560000Y-116240000D01*
X127560000Y-116240000D02*
X126787200Y-116240000D01*
X107725600Y-112260000D02*
X103348800Y-116636800D01*
X122490000Y-112260000D02*
X107725600Y-112260000D01*
X122500000Y-112270000D02*
X122490000Y-112260000D01*
X122480000Y-116240000D02*
X122031200Y-116240000D01*
X130100000Y-116240000D02*
X131181400Y-116240000D01*
X141749000Y-115189000D02*
X142800000Y-116240000D01*
X132232400Y-115189000D02*
X141749000Y-115189000D01*
X131181400Y-116240000D02*
X132232400Y-115189000D01*
X192760602Y-115824002D02*
X194284600Y-117348000D01*
X187705998Y-115824002D02*
X192760602Y-115824002D01*
X187426600Y-116103400D02*
X187705998Y-115824002D01*
X193573400Y-115519200D02*
X194284600Y-114808000D01*
X180924200Y-115519200D02*
X193573400Y-115519200D01*
X180619402Y-115823998D02*
X180924200Y-115519200D01*
X175945798Y-115823998D02*
X180619402Y-115823998D01*
X175666400Y-115544600D02*
X175945798Y-115823998D01*
X170103800Y-101752400D02*
X170129200Y-101727000D01*
X170103800Y-101752400D02*
X170129200Y-101727000D01*
X167640000Y-101803200D02*
X168198800Y-101803200D01*
X168198800Y-101803200D02*
X168706800Y-102311200D01*
X169748200Y-101752400D02*
X170103800Y-101752400D01*
X169189400Y-102311200D02*
X169748200Y-101752400D01*
X168706800Y-102311200D02*
X169189400Y-102311200D01*
X100253800Y-104317800D02*
X104648002Y-104317800D01*
X167106600Y-102336600D02*
X167640000Y-101803200D01*
X162077400Y-102336600D02*
X167106600Y-102336600D01*
X161544000Y-101803200D02*
X162077400Y-102336600D01*
X158572200Y-101803200D02*
X161544000Y-101803200D01*
X156667200Y-103708200D02*
X158572200Y-101803200D01*
X105257602Y-103708200D02*
X156667200Y-103708200D01*
X104648002Y-104317800D02*
X105257602Y-103708200D01*
X100507800Y-104571800D02*
X100253800Y-104317800D01*
X86004400Y-104521000D02*
X86207600Y-104521000D01*
X86207600Y-104521000D02*
X86486998Y-104241602D01*
X86486998Y-104241602D02*
X91846402Y-104241602D01*
X91846402Y-104241602D02*
X92481400Y-104876600D01*
X92481400Y-104876600D02*
X97459800Y-104876600D01*
X97459800Y-104876600D02*
X98018600Y-104317800D01*
X98018600Y-104317800D02*
X98526600Y-104317800D01*
X98526600Y-104317800D02*
X99034600Y-104825800D01*
X99034600Y-104825800D02*
X99517200Y-104825800D01*
X99517200Y-104825800D02*
X100025200Y-104317800D01*
X100025200Y-104317800D02*
X100253800Y-104317800D01*
X72160000Y-108730000D02*
X72160000Y-107923200D01*
X72160000Y-107923200D02*
X70891400Y-106654600D01*
X85750400Y-104267000D02*
X86004400Y-104521000D01*
X85420200Y-104267000D02*
X85750400Y-104267000D01*
X84886800Y-104800400D02*
X85420200Y-104267000D01*
X84353400Y-104800400D02*
X84886800Y-104800400D01*
X83820000Y-104267000D02*
X84353400Y-104800400D01*
X83185000Y-104267000D02*
X83820000Y-104267000D01*
X82626200Y-104825800D02*
X83185000Y-104267000D01*
X71780400Y-104825800D02*
X82626200Y-104825800D01*
X70891400Y-105714800D02*
X71780400Y-104825800D01*
X70891400Y-106654600D02*
X70891400Y-105714800D01*
X102158800Y-102285800D02*
X102158800Y-102361998D01*
X165303200Y-100126800D02*
X165328600Y-100152200D01*
X157836342Y-100126800D02*
X165303200Y-100126800D01*
X155905942Y-102057200D02*
X157836342Y-100126800D01*
X102463598Y-102057200D02*
X155905942Y-102057200D01*
X102158800Y-102361998D02*
X102463598Y-102057200D01*
X95631000Y-102641400D02*
X101803200Y-102641400D01*
X101803200Y-102641400D02*
X102158800Y-102285800D01*
X197865000Y-106190000D02*
X197477602Y-106190000D01*
X197477602Y-106190000D02*
X196900800Y-105613198D01*
X196900800Y-105613198D02*
X196900800Y-101549200D01*
X196900800Y-101549200D02*
X195503800Y-100152200D01*
X195503800Y-100152200D02*
X165328600Y-100152200D01*
X80822800Y-102666800D02*
X80822800Y-102641400D01*
X95631000Y-102641400D02*
X80822800Y-102641400D01*
X197865000Y-106190000D02*
X197865000Y-107011200D01*
X93040198Y-103225600D02*
X92760800Y-102946202D01*
X92760800Y-102946202D02*
X81381598Y-102946202D01*
X81381598Y-102946202D02*
X81076800Y-103251000D01*
X81076800Y-103251000D02*
X80568798Y-103251000D01*
X80568798Y-103251000D02*
X80264000Y-102946202D01*
X80264000Y-102946202D02*
X78511398Y-102946202D01*
X78511398Y-102946202D02*
X78232000Y-103225600D01*
X93040198Y-103225600D02*
X93040200Y-103225600D01*
X156006798Y-102387400D02*
X104673400Y-102387400D01*
X93294200Y-102971600D02*
X93040200Y-103225600D01*
X95097600Y-102971600D02*
X93294200Y-102971600D01*
X95351600Y-103225600D02*
X95097600Y-102971600D01*
X95885000Y-103225600D02*
X95351600Y-103225600D01*
X96113600Y-102997000D02*
X95885000Y-103225600D01*
X104063800Y-102997000D02*
X96113600Y-102997000D01*
X104673400Y-102387400D02*
X104063800Y-102997000D01*
X197865000Y-108730000D02*
X197865000Y-107999800D01*
X197865000Y-107999800D02*
X196570600Y-106705400D01*
X196570600Y-106705400D02*
X196570600Y-101701600D01*
X196570600Y-101701600D02*
X195351400Y-100482400D01*
X195351400Y-100482400D02*
X165836600Y-100482400D01*
X165836600Y-100482400D02*
X165582600Y-100736400D01*
X165582600Y-100736400D02*
X165074598Y-100736400D01*
X165074598Y-100736400D02*
X164795200Y-100457002D01*
X164795200Y-100457002D02*
X163067998Y-100457002D01*
X163067998Y-100457002D02*
X162788600Y-100736400D01*
X162763200Y-100736400D02*
X162483802Y-100457002D01*
X162483802Y-100457002D02*
X157937196Y-100457002D01*
X157937196Y-100457002D02*
X156006798Y-102387400D01*
X96901000Y-103581200D02*
X96900998Y-103581200D01*
X82270600Y-103276400D02*
X82016600Y-103530400D01*
X92278200Y-103276400D02*
X82270600Y-103276400D01*
X92811600Y-103809800D02*
X92278200Y-103276400D01*
X93294200Y-103809800D02*
X92811600Y-103809800D01*
X93802200Y-103301800D02*
X93294200Y-103809800D01*
X94970600Y-103301800D02*
X93802200Y-103301800D01*
X95224600Y-103555800D02*
X94970600Y-103301800D01*
X96012000Y-103555800D02*
X95224600Y-103555800D01*
X96240600Y-103327200D02*
X96012000Y-103555800D01*
X96646998Y-103327200D02*
X96240600Y-103327200D01*
X96900998Y-103581200D02*
X96646998Y-103327200D01*
X165963600Y-100812598D02*
X165963600Y-100812600D01*
X97155000Y-103327200D02*
X96901000Y-103581200D01*
X104190800Y-103327200D02*
X97155000Y-103327200D01*
X104800400Y-102717600D02*
X104190800Y-103327200D01*
X156159198Y-102717600D02*
X104800400Y-102717600D01*
X158089598Y-100787200D02*
X156159198Y-102717600D01*
X161950400Y-100787200D02*
X158089598Y-100787200D01*
X162509200Y-101346000D02*
X161950400Y-100787200D01*
X163042600Y-101346000D02*
X162509200Y-101346000D01*
X163576000Y-100812600D02*
X163042600Y-101346000D01*
X164642800Y-100812600D02*
X163576000Y-100812600D01*
X164896800Y-101066600D02*
X164642800Y-100812600D01*
X165709600Y-101066600D02*
X164896800Y-101066600D01*
X165963600Y-100812600D02*
X165709600Y-101066600D01*
X169062400Y-100812600D02*
X166878000Y-100812600D01*
X166878000Y-100812600D02*
X166624000Y-101066600D01*
X197865000Y-111270000D02*
X197865000Y-110438200D01*
X165963598Y-100812600D02*
X165963600Y-100812598D01*
X195224400Y-100812600D02*
X169062400Y-100812600D01*
X169062400Y-100812600D02*
X165963598Y-100812600D01*
X196240400Y-101828600D02*
X195224400Y-100812600D01*
X197865000Y-111270000D02*
X197865000Y-110489000D01*
X197865000Y-110438200D02*
X196240400Y-108813600D01*
X196240400Y-108813600D02*
X196240400Y-101828600D01*
X92024200Y-103936800D02*
X92608400Y-104521000D01*
X92608400Y-104521000D02*
X97332800Y-104521000D01*
X99263200Y-104241600D02*
X99491800Y-104241600D01*
X168681400Y-101473000D02*
X168935400Y-101727000D01*
X167513000Y-101473000D02*
X168681400Y-101473000D01*
X166979600Y-102006400D02*
X167513000Y-101473000D01*
X162229800Y-102006400D02*
X166979600Y-102006400D01*
X161671000Y-101447600D02*
X162229800Y-102006400D01*
X158445200Y-101447600D02*
X161671000Y-101447600D01*
X156514800Y-103378000D02*
X158445200Y-101447600D01*
X105130600Y-103378000D02*
X156514800Y-103378000D01*
X104521000Y-103987600D02*
X105130600Y-103378000D01*
X99745800Y-103987600D02*
X104521000Y-103987600D01*
X99491800Y-104241600D02*
X99745800Y-103987600D01*
X84607400Y-104216200D02*
X84683600Y-104216200D01*
X99009200Y-103987600D02*
X99263200Y-104241600D01*
X97866200Y-103987600D02*
X99009200Y-103987600D01*
X97332800Y-104521000D02*
X97866200Y-103987600D01*
X84963000Y-103936800D02*
X92024200Y-103936800D01*
X84683600Y-104216200D02*
X84963000Y-103936800D01*
X72160000Y-111270000D02*
X72160000Y-110463200D01*
X72160000Y-110463200D02*
X70561200Y-108864400D01*
X84328000Y-103936800D02*
X84607400Y-104216200D01*
X83007200Y-103936800D02*
X84328000Y-103936800D01*
X82473800Y-104470200D02*
X83007200Y-103936800D01*
X71628000Y-104470200D02*
X82473800Y-104470200D01*
X70561200Y-105537000D02*
X71628000Y-104470200D01*
X70561200Y-108864400D02*
X70561200Y-105537000D01*
X72160000Y-111270000D02*
X72160000Y-110437800D01*
X107238800Y-110413800D02*
X107340400Y-110286800D01*
X106273600Y-111353600D02*
X107340400Y-110286800D01*
X103936800Y-111353600D02*
X106273600Y-111353600D01*
X103022400Y-112268000D02*
X103936800Y-111353600D01*
X103022400Y-113207800D02*
X103022400Y-112268000D01*
X101218998Y-115011202D02*
X103022400Y-113207800D01*
X90906602Y-115011202D02*
X101218998Y-115011202D01*
X89814400Y-113919000D02*
X90906602Y-115011202D01*
X107240000Y-110413800D02*
X107238800Y-110413800D01*
X107240000Y-110413800D02*
X107240000Y-110361800D01*
X158521400Y-107340400D02*
X159410400Y-106451400D01*
X147472400Y-107340400D02*
X158521400Y-107340400D01*
X146583400Y-106451400D02*
X147472400Y-107340400D01*
X142494000Y-106451400D02*
X146583400Y-106451400D01*
X141833600Y-105791000D02*
X142494000Y-106451400D01*
X132156200Y-105791000D02*
X141833600Y-105791000D01*
X131673600Y-105308400D02*
X132156200Y-105791000D01*
X128955800Y-105308400D02*
X131673600Y-105308400D01*
X127863600Y-106400600D02*
X128955800Y-105308400D01*
X124206000Y-106400600D02*
X127863600Y-106400600D01*
X123748800Y-106857800D02*
X124206000Y-106400600D01*
X121056400Y-106857800D02*
X123748800Y-106857800D01*
X120624600Y-107289600D02*
X121056400Y-106857800D01*
X119176800Y-107289600D02*
X120624600Y-107289600D01*
X118135400Y-108331000D02*
X119176800Y-107289600D01*
X116154200Y-108331000D02*
X118135400Y-108331000D01*
X115163600Y-109321600D02*
X116154200Y-108331000D01*
X112826800Y-109321600D02*
X115163600Y-109321600D01*
X112090200Y-110058200D02*
X112826800Y-109321600D01*
X111658400Y-110058200D02*
X112090200Y-110058200D01*
X111125000Y-109524800D02*
X111658400Y-110058200D01*
X108077000Y-109524800D02*
X111125000Y-109524800D01*
X107240000Y-110361800D02*
X108077000Y-109524800D01*
X76987400Y-108940600D02*
X78130400Y-110083600D01*
X78130400Y-110083600D02*
X89509600Y-110083600D01*
X90678000Y-110083600D02*
X91821000Y-108940600D01*
X89509600Y-110083600D02*
X90678000Y-110083600D01*
X94386400Y-103886000D02*
X93675200Y-103886000D01*
X79552800Y-103606600D02*
X79502000Y-103555800D01*
X81254600Y-103606600D02*
X79552800Y-103606600D01*
X81788000Y-104140000D02*
X81254600Y-103606600D01*
X82270600Y-104140000D02*
X81788000Y-104140000D01*
X82804000Y-103606600D02*
X82270600Y-104140000D01*
X92151200Y-103606600D02*
X82804000Y-103606600D01*
X92684600Y-104140000D02*
X92151200Y-103606600D01*
X93421200Y-104140000D02*
X92684600Y-104140000D01*
X93675200Y-103886000D02*
X93421200Y-104140000D01*
X164084000Y-101396800D02*
X163449000Y-101396800D01*
X95910400Y-103886000D02*
X94386400Y-103886000D01*
X96215200Y-104190800D02*
X95910400Y-103886000D01*
X97180400Y-104190800D02*
X96215200Y-104190800D01*
X97713800Y-103657400D02*
X97180400Y-104190800D01*
X104394000Y-103657400D02*
X97713800Y-103657400D01*
X105003600Y-103047800D02*
X104394000Y-103657400D01*
X156362400Y-103047800D02*
X105003600Y-103047800D01*
X158292800Y-101117400D02*
X156362400Y-103047800D01*
X161798000Y-101117400D02*
X158292800Y-101117400D01*
X162356800Y-101676200D02*
X161798000Y-101117400D01*
X163169600Y-101676200D02*
X162356800Y-101676200D01*
X163449000Y-101396800D02*
X163169600Y-101676200D01*
X197865000Y-113810000D02*
X197865000Y-113003600D01*
X197865000Y-113003600D02*
X195884800Y-111023400D01*
X166116000Y-101396800D02*
X164084000Y-101396800D01*
X166370000Y-101650800D02*
X166116000Y-101396800D01*
X166878000Y-101650800D02*
X166370000Y-101650800D01*
X167386000Y-101142800D02*
X166878000Y-101650800D01*
X195097400Y-101142800D02*
X167386000Y-101142800D01*
X195884800Y-101930200D02*
X195097400Y-101142800D01*
X195884800Y-111023400D02*
X195884800Y-101930200D01*
X197865000Y-113810000D02*
X197865000Y-112978200D01*
X173200200Y-110340000D02*
X174574200Y-108966000D01*
X167390000Y-110340000D02*
X173200200Y-110340000D01*
X167300000Y-110430000D02*
X167390000Y-110340000D01*
X174574200Y-108966000D02*
X179959000Y-108966000D01*
X179959000Y-108966000D02*
X181610000Y-107315000D01*
X181610000Y-107315000D02*
X183591200Y-107315000D01*
X183591200Y-107315000D02*
X184937400Y-105968800D01*
X145340000Y-116240000D02*
X145340000Y-117425400D01*
X166903400Y-118262400D02*
X166903400Y-119024400D01*
X166344600Y-117703600D02*
X166903400Y-118262400D01*
X145618200Y-117703600D02*
X166344600Y-117703600D01*
X145340000Y-117425400D02*
X145618200Y-117703600D01*
X166624000Y-116128800D02*
X181127400Y-116128800D01*
X165684200Y-115189000D02*
X166624000Y-116128800D01*
X142265400Y-115189000D02*
X165684200Y-115189000D01*
X141935200Y-114858800D02*
X142265400Y-115189000D01*
X136728200Y-114858800D02*
X141935200Y-114858800D01*
X136448800Y-114579400D02*
X136728200Y-114858800D01*
X185267600Y-102971600D02*
X185267600Y-102158800D01*
X185750200Y-103454200D02*
X185267600Y-102971600D01*
X189509400Y-103454200D02*
X185750200Y-103454200D01*
X179710000Y-109270802D02*
X179710000Y-109290000D01*
X179710000Y-109540000D02*
X179710000Y-109270802D01*
X179730000Y-109560000D02*
X179710000Y-109540000D01*
X185100000Y-108880000D02*
X183750000Y-110230000D01*
X181700000Y-110230000D02*
X183750000Y-110230000D01*
X180760000Y-109290000D02*
X181700000Y-110230000D01*
X177300000Y-109290000D02*
X179710000Y-109290000D01*
X179710000Y-109290000D02*
X180760000Y-109290000D01*
X177300000Y-109290000D02*
X176800000Y-109790000D01*
X177850800Y-102158800D02*
X177791200Y-102158800D01*
X99441000Y-111480600D02*
X99466400Y-111480600D01*
X99466400Y-111480600D02*
X102489000Y-108458000D01*
X102489000Y-108458000D02*
X104571800Y-108458000D01*
X104571800Y-108458000D02*
X106349800Y-106680000D01*
X106349800Y-106680000D02*
X110159800Y-106680000D01*
X110159800Y-106680000D02*
X110617000Y-106222800D01*
X110617000Y-106222800D02*
X115417600Y-106222800D01*
X115417600Y-106222800D02*
X116509800Y-105130600D01*
X116509800Y-105130600D02*
X121691400Y-105130600D01*
X121691400Y-105130600D02*
X122275600Y-105714800D01*
X122275600Y-105714800D02*
X123012200Y-105714800D01*
X123012200Y-105714800D02*
X123977400Y-104749600D01*
X123977400Y-104749600D02*
X132054600Y-104749600D01*
X132054600Y-104749600D02*
X132562600Y-105257600D01*
X132562600Y-105257600D02*
X133070600Y-105257600D01*
X133070600Y-105257600D02*
X133400800Y-104927400D01*
X133400800Y-104927400D02*
X133400800Y-104495600D01*
X133400800Y-104495600D02*
X133502400Y-104394000D01*
X133502400Y-104394000D02*
X135128000Y-104394000D01*
X135128000Y-104394000D02*
X135356600Y-104622600D01*
X96901000Y-111480600D02*
X96901000Y-110794800D01*
X96901000Y-110794800D02*
X97637600Y-110058200D01*
X97637600Y-110058200D02*
X100380800Y-110058200D01*
X100380800Y-110058200D02*
X100584000Y-109855000D01*
X100584000Y-109855000D02*
X100584000Y-109245400D01*
X100584000Y-109245400D02*
X101727000Y-108102400D01*
X101727000Y-108102400D02*
X104394000Y-108102400D01*
X104394000Y-108102400D02*
X106197400Y-106299000D01*
X106197400Y-106299000D02*
X109956602Y-106299000D01*
X109956602Y-106299000D02*
X110363002Y-105892600D01*
X110363002Y-105892600D02*
X115189000Y-105892600D01*
X115189000Y-105892600D02*
X116357400Y-104724200D01*
X116357400Y-104724200D02*
X121818400Y-104724200D01*
X121818400Y-104724200D02*
X122402600Y-105308400D01*
X122402600Y-105308400D02*
X122885200Y-105308400D01*
X122885200Y-105308400D02*
X123799600Y-104394000D01*
X123799600Y-104394000D02*
X132588000Y-104394000D01*
X132588000Y-104394000D02*
X132816600Y-104622600D01*
X104419400Y-111734600D02*
X103911400Y-112242600D01*
X106984800Y-111734600D02*
X104419400Y-111734600D01*
X108762800Y-109956600D02*
X106984800Y-111734600D01*
X110312200Y-109956600D02*
X108762800Y-109956600D01*
X110947200Y-110591600D02*
X110312200Y-109956600D01*
X112115600Y-110591600D02*
X110947200Y-110591600D01*
X112979200Y-109728000D02*
X112115600Y-110591600D01*
X115366800Y-109728000D02*
X112979200Y-109728000D01*
X116230400Y-108864400D02*
X115366800Y-109728000D01*
X119583200Y-108864400D02*
X116230400Y-108864400D01*
X121132600Y-107315000D02*
X119583200Y-108864400D01*
X127558800Y-107315000D02*
X121132600Y-107315000D01*
X129235200Y-105638600D02*
X127558800Y-107315000D01*
X129844800Y-105638600D02*
X129235200Y-105638600D01*
X130098800Y-105892600D02*
X129844800Y-105638600D01*
X91821000Y-111480600D02*
X92329000Y-111480600D01*
X92329000Y-111480600D02*
X94132400Y-113284000D01*
X125984000Y-105384600D02*
X127736600Y-105384600D01*
X125425200Y-105943400D02*
X125984000Y-105384600D01*
X124917200Y-105943400D02*
X125425200Y-105943400D01*
X124663200Y-105689400D02*
X124917200Y-105943400D01*
X124079000Y-105689400D02*
X124663200Y-105689400D01*
X123342400Y-106426000D02*
X124079000Y-105689400D01*
X121970800Y-106426000D02*
X123342400Y-106426000D01*
X121386600Y-105841800D02*
X121970800Y-106426000D01*
X118160800Y-105841800D02*
X121386600Y-105841800D01*
X117297200Y-106705400D02*
X118160800Y-105841800D01*
X116459000Y-106705400D02*
X117297200Y-106705400D01*
X115900200Y-107264200D02*
X116459000Y-106705400D01*
X111379000Y-107264200D02*
X115900200Y-107264200D01*
X110972600Y-107670600D02*
X111379000Y-107264200D01*
X106984800Y-107670600D02*
X110972600Y-107670600D01*
X105079800Y-109575600D02*
X106984800Y-107670600D01*
X102920800Y-109575600D02*
X105079800Y-109575600D01*
X101269800Y-111226600D02*
X102920800Y-109575600D01*
X101269800Y-112318800D02*
X101269800Y-111226600D01*
X100304600Y-113284000D02*
X101269800Y-112318800D01*
X94132400Y-113284000D02*
X100304600Y-113284000D01*
X123926600Y-105333800D02*
X125196600Y-105333800D01*
X95758000Y-111048800D02*
X95758000Y-111937800D01*
X123164600Y-106095800D02*
X123926600Y-105333800D01*
X122148600Y-106095800D02*
X123164600Y-106095800D01*
X121564400Y-105511600D02*
X122148600Y-106095800D01*
X116636800Y-105511600D02*
X121564400Y-105511600D01*
X115595400Y-106553000D02*
X116636800Y-105511600D01*
X110845600Y-106553000D02*
X115595400Y-106553000D01*
X110363000Y-107035600D02*
X110845600Y-106553000D01*
X106502200Y-107035600D02*
X110363000Y-107035600D01*
X104724200Y-108813600D02*
X106502200Y-107035600D01*
X102616000Y-108813600D02*
X104724200Y-108813600D01*
X100558600Y-110871000D02*
X102616000Y-108813600D01*
X100558600Y-111988600D02*
X100558600Y-110871000D01*
X99923600Y-112623600D02*
X100558600Y-111988600D01*
X96443800Y-112623600D02*
X99923600Y-112623600D01*
X95758000Y-111937800D02*
X96443800Y-112623600D01*
X96901000Y-108940600D02*
X96901000Y-109905800D01*
X96901000Y-109905800D02*
X95758000Y-111048800D01*
X99441000Y-108940600D02*
X100406200Y-108940600D01*
X122377200Y-104368600D02*
X122656600Y-104648000D01*
X116230400Y-104368600D02*
X122377200Y-104368600D01*
X115036600Y-105562400D02*
X116230400Y-104368600D01*
X110236000Y-105562400D02*
X115036600Y-105562400D01*
X109855000Y-105943400D02*
X110236000Y-105562400D01*
X106019600Y-105943400D02*
X109855000Y-105943400D01*
X104190800Y-107772200D02*
X106019600Y-105943400D01*
X101574600Y-107772200D02*
X104190800Y-107772200D01*
X100406200Y-108940600D02*
X101574600Y-107772200D01*
X84607400Y-111480600D02*
X90220800Y-111480600D01*
X118084600Y-106451400D02*
X120116600Y-106451400D01*
X117500400Y-107035600D02*
X118084600Y-106451400D01*
X116586000Y-107035600D02*
X117500400Y-107035600D01*
X116001800Y-107619800D02*
X116586000Y-107035600D01*
X111582200Y-107619800D02*
X116001800Y-107619800D01*
X111201200Y-108000800D02*
X111582200Y-107619800D01*
X107111800Y-108000800D02*
X111201200Y-108000800D01*
X105181400Y-109931200D02*
X107111800Y-108000800D01*
X103073200Y-109931200D02*
X105181400Y-109931200D01*
X101625400Y-111379000D02*
X103073200Y-109931200D01*
X101625400Y-112420400D02*
X101625400Y-111379000D01*
X100431600Y-113614200D02*
X101625400Y-112420400D01*
X92354400Y-113614200D02*
X100431600Y-113614200D01*
X90220800Y-111480600D02*
X92354400Y-113614200D01*
X79527400Y-111480600D02*
X80492600Y-111480600D01*
X117348000Y-107416600D02*
X117576600Y-107645200D01*
X116763800Y-107416600D02*
X117348000Y-107416600D01*
X116230400Y-107950000D02*
X116763800Y-107416600D01*
X115366800Y-107950000D02*
X116230400Y-107950000D01*
X115062000Y-108254800D02*
X115366800Y-107950000D01*
X115062000Y-108635800D02*
X115062000Y-108254800D01*
X114782600Y-108915200D02*
X115062000Y-108635800D01*
X114147600Y-108915200D02*
X114782600Y-108915200D01*
X113614200Y-108381800D02*
X114147600Y-108915200D01*
X112039400Y-108381800D02*
X113614200Y-108381800D01*
X111683800Y-108737400D02*
X112039400Y-108381800D01*
X107569000Y-108737400D02*
X111683800Y-108737400D01*
X105664000Y-110642400D02*
X107569000Y-108737400D01*
X103606600Y-110642400D02*
X105664000Y-110642400D01*
X102311200Y-111937800D02*
X103606600Y-110642400D01*
X102311200Y-112776000D02*
X102311200Y-111937800D01*
X100761800Y-114325400D02*
X102311200Y-112776000D01*
X92024200Y-114325400D02*
X100761800Y-114325400D01*
X90627200Y-112928400D02*
X92024200Y-114325400D01*
X83997800Y-112928400D02*
X90627200Y-112928400D01*
X83667600Y-112598200D02*
X83997800Y-112928400D01*
X81610200Y-112598200D02*
X83667600Y-112598200D01*
X80492600Y-111480600D02*
X81610200Y-112598200D01*
X82067400Y-108940600D02*
X82067400Y-107416602D01*
X114731800Y-104368600D02*
X115036600Y-104673400D01*
X110210602Y-104368600D02*
X114731800Y-104368600D01*
X109956600Y-104622602D02*
X110210602Y-104368600D01*
X109956600Y-104876600D02*
X109956600Y-104622602D01*
X109601000Y-105232200D02*
X109956600Y-104876600D01*
X105714800Y-105232200D02*
X109601000Y-105232200D01*
X103860600Y-107086400D02*
X105714800Y-105232200D01*
X82397602Y-107086400D02*
X103860600Y-107086400D01*
X82067400Y-107416602D02*
X82397602Y-107086400D01*
X84607400Y-108940600D02*
X84607400Y-107696000D01*
X110312200Y-104978200D02*
X112496600Y-104978200D01*
X109677200Y-105613200D02*
X110312200Y-104978200D01*
X105816400Y-105613200D02*
X109677200Y-105613200D01*
X104013000Y-107416600D02*
X105816400Y-105613200D01*
X84886800Y-107416600D02*
X104013000Y-107416600D01*
X84607400Y-107696000D02*
X84886800Y-107416600D01*
X106070400Y-104368600D02*
X109118400Y-104368600D01*
X109118400Y-104368600D02*
X109372400Y-104622600D01*
X79527400Y-108940600D02*
X79527400Y-107612402D01*
X103682800Y-106756200D02*
X106070400Y-104368600D01*
X80383602Y-106756200D02*
X103682800Y-106756200D01*
X79527400Y-107612402D02*
X80383602Y-106756200D01*
X76987400Y-111480600D02*
X77901800Y-111480600D01*
X111658400Y-109067600D02*
X111887000Y-109296200D01*
X107746800Y-109067600D02*
X111658400Y-109067600D01*
X105816400Y-110998000D02*
X107746800Y-109067600D01*
X103784400Y-110998000D02*
X105816400Y-110998000D01*
X102666800Y-112115600D02*
X103784400Y-110998000D01*
X102666800Y-112953800D02*
X102666800Y-112115600D01*
X100914200Y-114706400D02*
X102666800Y-112953800D01*
X91897200Y-114706400D02*
X100914200Y-114706400D01*
X90474800Y-113284000D02*
X91897200Y-114706400D01*
X83845400Y-113284000D02*
X90474800Y-113284000D01*
X83515200Y-112953800D02*
X83845400Y-113284000D01*
X81457800Y-112953800D02*
X83515200Y-112953800D01*
X81127600Y-112623600D02*
X81457800Y-112953800D01*
X79044800Y-112623600D02*
X81127600Y-112623600D01*
X77901800Y-111480600D02*
X79044800Y-112623600D01*
X82067400Y-111480600D02*
X83032600Y-111480600D01*
X114147600Y-107975400D02*
X114452400Y-108280200D01*
X111734600Y-107975400D02*
X114147600Y-107975400D01*
X111328200Y-108381800D02*
X111734600Y-107975400D01*
X107264200Y-108381800D02*
X111328200Y-108381800D01*
X105359200Y-110286800D02*
X107264200Y-108381800D01*
X103479600Y-110286800D02*
X105359200Y-110286800D01*
X101955600Y-111810800D02*
X103479600Y-110286800D01*
X101955600Y-112598200D02*
X101955600Y-111810800D01*
X100558600Y-113995200D02*
X101955600Y-112598200D01*
X92202000Y-113995200D02*
X100558600Y-113995200D01*
X90805000Y-112598200D02*
X92202000Y-113995200D01*
X84150200Y-112598200D02*
X90805000Y-112598200D01*
X83032600Y-111480600D02*
X84150200Y-112598200D01*
X93218000Y-111023400D02*
X93218000Y-111912400D01*
X116535200Y-106121200D02*
X116992400Y-106121200D01*
X115722400Y-106934000D02*
X116535200Y-106121200D01*
X111099600Y-106934000D02*
X115722400Y-106934000D01*
X110693198Y-107340402D02*
X111099600Y-106934000D01*
X106756198Y-107340402D02*
X110693198Y-107340402D01*
X104876600Y-109220000D02*
X106756198Y-107340402D01*
X102819200Y-109220000D02*
X104876600Y-109220000D01*
X100914200Y-111125000D02*
X102819200Y-109220000D01*
X100914200Y-112217200D02*
X100914200Y-111125000D01*
X100177600Y-112953800D02*
X100914200Y-112217200D01*
X94259400Y-112953800D02*
X100177600Y-112953800D01*
X93218000Y-111912400D02*
X94259400Y-112953800D01*
X94361000Y-108940600D02*
X94361000Y-109880400D01*
X94361000Y-109880400D02*
X93218000Y-111023400D01*
X102870000Y-104648000D02*
X103022400Y-104648000D01*
X103352600Y-104978200D02*
X103352600Y-104902000D01*
X103022400Y-104648000D02*
X103352600Y-104978200D01*
X98298000Y-104927400D02*
X98679000Y-104927400D01*
X167665400Y-102666800D02*
X167919400Y-102412800D01*
X161925000Y-102666800D02*
X167665400Y-102666800D01*
X161417000Y-102158800D02*
X161925000Y-102666800D01*
X158699200Y-102158800D02*
X161417000Y-102158800D01*
X156819600Y-104038400D02*
X158699200Y-102158800D01*
X105384600Y-104038400D02*
X156819600Y-104038400D01*
X104775000Y-104648000D02*
X105384600Y-104038400D01*
X101269800Y-104648000D02*
X102870000Y-104648000D01*
X102870000Y-104648000D02*
X104775000Y-104648000D01*
X100761800Y-105156000D02*
X101269800Y-104648000D01*
X98907600Y-105156000D02*
X100761800Y-105156000D01*
X98679000Y-104927400D02*
X98907600Y-105156000D01*
X83489800Y-104851200D02*
X83489800Y-104876600D01*
X98018600Y-105206800D02*
X98298000Y-104927400D01*
X92329000Y-105206800D02*
X98018600Y-105206800D01*
X91694000Y-104571800D02*
X92329000Y-105206800D01*
X86791800Y-104571800D02*
X91694000Y-104571800D01*
X86233000Y-105130600D02*
X86791800Y-104571800D01*
X83743800Y-105130600D02*
X86233000Y-105130600D01*
X83489800Y-104876600D02*
X83743800Y-105130600D01*
X72160000Y-106190000D02*
X72160000Y-105436802D01*
X72160000Y-105436802D02*
X72440802Y-105156000D01*
X72440802Y-105156000D02*
X83185000Y-105156000D01*
X83185000Y-105156000D02*
X83489800Y-104851200D01*
X109780000Y-101000000D02*
X108772400Y-101000000D01*
X103682800Y-101422200D02*
X103403400Y-101142800D01*
X105333800Y-101422200D02*
X103682800Y-101422200D01*
X106807000Y-99949000D02*
X105333800Y-101422200D01*
X107721400Y-99949000D02*
X106807000Y-99949000D01*
X108772400Y-101000000D02*
X107721400Y-99949000D01*
X161569400Y-109220000D02*
X161569400Y-108254800D01*
X145567400Y-105410000D02*
X145338800Y-105638600D01*
X146710400Y-105410000D02*
X145567400Y-105410000D01*
X147548600Y-106248200D02*
X146710400Y-105410000D01*
X148031200Y-106248200D02*
X147548600Y-106248200D01*
X148539200Y-105740200D02*
X148031200Y-106248200D01*
X149124144Y-105740200D02*
X148539200Y-105740200D01*
X149962344Y-106578400D02*
X149124144Y-105740200D01*
X150952200Y-106578400D02*
X149962344Y-106578400D01*
X151155400Y-106375200D02*
X150952200Y-106578400D01*
X151561800Y-106375200D02*
X151155400Y-106375200D01*
X152069800Y-106883200D02*
X151561800Y-106375200D01*
X153847800Y-106883200D02*
X152069800Y-106883200D01*
X154381200Y-106349800D02*
X153847800Y-106883200D01*
X157835600Y-106349800D02*
X154381200Y-106349800D01*
X159055172Y-105130228D02*
X157835600Y-106349800D01*
X159892628Y-105130228D02*
X159055172Y-105130228D01*
X160451800Y-105689400D02*
X159892628Y-105130228D01*
X160451800Y-107137200D02*
X160451800Y-105689400D01*
X161569400Y-108254800D02*
X160451800Y-107137200D01*
X164109400Y-109220000D02*
X164109400Y-108280200D01*
X148082000Y-105384600D02*
X147828000Y-105638600D01*
X149199600Y-105384600D02*
X148082000Y-105384600D01*
X150063200Y-106248200D02*
X149199600Y-105384600D01*
X150774400Y-106248200D02*
X150063200Y-106248200D01*
X151282400Y-105740200D02*
X150774400Y-106248200D01*
X151434800Y-105740200D02*
X151282400Y-105740200D01*
X152247600Y-106553000D02*
X151434800Y-105740200D01*
X153670000Y-106553000D02*
X152247600Y-106553000D01*
X154203400Y-106019600D02*
X153670000Y-106553000D01*
X157708600Y-106019600D02*
X154203400Y-106019600D01*
X159512000Y-104216200D02*
X157708600Y-106019600D01*
X160680400Y-104216200D02*
X159512000Y-104216200D01*
X161112200Y-104648000D02*
X160680400Y-104216200D01*
X162102798Y-104648000D02*
X161112200Y-104648000D01*
X162991800Y-105537002D02*
X162102798Y-104648000D01*
X162991800Y-107162600D02*
X162991800Y-105537002D01*
X164109400Y-108280200D02*
X162991800Y-107162600D01*
X169189400Y-109220000D02*
X169189400Y-108762800D01*
X169189400Y-108762800D02*
X168046400Y-107619800D01*
X153187400Y-104698800D02*
X152933400Y-104952800D01*
X157124400Y-104698800D02*
X153187400Y-104698800D01*
X159004000Y-102819200D02*
X157124400Y-104698800D01*
X161163000Y-102819200D02*
X159004000Y-102819200D01*
X161671000Y-103327200D02*
X161163000Y-102819200D01*
X167411400Y-103327200D02*
X161671000Y-103327200D01*
X168046400Y-103962200D02*
X167411400Y-103327200D01*
X168046400Y-107619800D02*
X168046400Y-103962200D01*
X166649400Y-109220000D02*
X166649400Y-108254800D01*
X150672800Y-105054400D02*
X150418800Y-105308400D01*
X151688800Y-105054400D02*
X150672800Y-105054400D01*
X152527000Y-105892600D02*
X151688800Y-105054400D01*
X153365200Y-105892600D02*
X152527000Y-105892600D01*
X153898600Y-105359200D02*
X153365200Y-105892600D01*
X157429200Y-105359200D02*
X153898600Y-105359200D01*
X159283400Y-103505000D02*
X157429200Y-105359200D01*
X160934400Y-103505000D02*
X159283400Y-103505000D01*
X161417000Y-103987600D02*
X160934400Y-103505000D01*
X164566600Y-103987600D02*
X161417000Y-103987600D01*
X165531800Y-104952800D02*
X164566600Y-103987600D01*
X165531800Y-107137200D02*
X165531800Y-104952800D01*
X166649400Y-108254800D02*
X165531800Y-107137200D01*
X166649400Y-106680000D02*
X166649400Y-104343202D01*
X143002000Y-104724200D02*
X142773400Y-104952800D01*
X151866600Y-104724200D02*
X143002000Y-104724200D01*
X152704800Y-105562400D02*
X151866600Y-104724200D01*
X153187400Y-105562400D02*
X152704800Y-105562400D01*
X153720800Y-105029000D02*
X153187400Y-105562400D01*
X157276800Y-105029000D02*
X153720800Y-105029000D01*
X159156400Y-103149400D02*
X157276800Y-105029000D01*
X161036000Y-103149400D02*
X159156400Y-103149400D01*
X161544000Y-103657400D02*
X161036000Y-103149400D01*
X165963598Y-103657400D02*
X161544000Y-103657400D01*
X166649400Y-104343202D02*
X165963598Y-103657400D01*
X164109400Y-106680000D02*
X164109400Y-105283002D01*
X140563600Y-104698800D02*
X140284200Y-104978200D01*
X141655800Y-104698800D02*
X140563600Y-104698800D01*
X142519400Y-105562400D02*
X141655800Y-104698800D01*
X143052800Y-105562400D02*
X142519400Y-105562400D01*
X143560800Y-105054400D02*
X143052800Y-105562400D01*
X149352000Y-105054400D02*
X143560800Y-105054400D01*
X150190200Y-105892600D02*
X149352000Y-105054400D01*
X150672800Y-105892600D02*
X150190200Y-105892600D01*
X151155400Y-105410000D02*
X150672800Y-105892600D01*
X151587200Y-105410000D02*
X151155400Y-105410000D01*
X152400000Y-106222800D02*
X151587200Y-105410000D01*
X153492200Y-106222800D02*
X152400000Y-106222800D01*
X154025600Y-105689400D02*
X153492200Y-106222800D01*
X157556200Y-105689400D02*
X154025600Y-105689400D01*
X159423472Y-103822128D02*
X157556200Y-105689400D01*
X160794328Y-103822128D02*
X159423472Y-103822128D01*
X161290000Y-104317800D02*
X160794328Y-103822128D01*
X163144198Y-104317800D02*
X161290000Y-104317800D01*
X164109400Y-105283002D02*
X163144198Y-104317800D01*
X169189400Y-106680000D02*
X169189400Y-104648002D01*
X137972800Y-104368600D02*
X137718800Y-104622600D01*
X156972000Y-104368600D02*
X137972800Y-104368600D01*
X158851600Y-102489000D02*
X156972000Y-104368600D01*
X161290000Y-102489000D02*
X158851600Y-102489000D01*
X161798000Y-102997000D02*
X161290000Y-102489000D01*
X167538398Y-102997000D02*
X161798000Y-102997000D01*
X169189400Y-104648002D02*
X167538398Y-102997000D01*
D28*
G36*
X164775388Y-99322693D02*
X164682319Y-99415600D01*
X157836342Y-99415600D01*
X157564177Y-99469737D01*
X157333448Y-99623906D01*
X156709149Y-100248205D01*
X156514698Y-99957189D01*
X156049151Y-99646120D01*
X155500000Y-99536887D01*
X154950849Y-99646120D01*
X154485302Y-99957189D01*
X154230000Y-100339275D01*
X153974698Y-99957189D01*
X153509151Y-99646120D01*
X152960000Y-99536887D01*
X152410849Y-99646120D01*
X151945302Y-99957189D01*
X151690000Y-100339275D01*
X151434698Y-99957189D01*
X150969151Y-99646120D01*
X150420000Y-99536887D01*
X149870849Y-99646120D01*
X149405302Y-99957189D01*
X149150000Y-100339275D01*
X148894698Y-99957189D01*
X148429151Y-99646120D01*
X147880000Y-99536887D01*
X147330849Y-99646120D01*
X146865302Y-99957189D01*
X146610000Y-100339275D01*
X146354698Y-99957189D01*
X145889151Y-99646120D01*
X145340000Y-99536887D01*
X144790849Y-99646120D01*
X144325302Y-99957189D01*
X144070000Y-100339275D01*
X143814698Y-99957189D01*
X143349151Y-99646120D01*
X142800000Y-99536887D01*
X142250849Y-99646120D01*
X141785302Y-99957189D01*
X141530000Y-100339275D01*
X141274698Y-99957189D01*
X140809151Y-99646120D01*
X140260000Y-99536887D01*
X139710849Y-99646120D01*
X139245302Y-99957189D01*
X138990000Y-100339275D01*
X138734698Y-99957189D01*
X138269151Y-99646120D01*
X137720000Y-99536887D01*
X137170849Y-99646120D01*
X136705302Y-99957189D01*
X136450000Y-100339275D01*
X136194698Y-99957189D01*
X135729151Y-99646120D01*
X135180000Y-99536887D01*
X134630849Y-99646120D01*
X134165302Y-99957189D01*
X133910000Y-100339275D01*
X133654698Y-99957189D01*
X133189151Y-99646120D01*
X132640000Y-99536887D01*
X132090849Y-99646120D01*
X131625302Y-99957189D01*
X131370000Y-100339275D01*
X131114698Y-99957189D01*
X130649151Y-99646120D01*
X130100000Y-99536887D01*
X129550849Y-99646120D01*
X129085302Y-99957189D01*
X128830000Y-100339275D01*
X128574698Y-99957189D01*
X128109151Y-99646120D01*
X127560000Y-99536887D01*
X127010849Y-99646120D01*
X126545302Y-99957189D01*
X126290000Y-100339275D01*
X126034698Y-99957189D01*
X125569151Y-99646120D01*
X125020000Y-99536887D01*
X124470849Y-99646120D01*
X124005302Y-99957189D01*
X123750000Y-100339275D01*
X123494698Y-99957189D01*
X123029151Y-99646120D01*
X122480000Y-99536887D01*
X121930849Y-99646120D01*
X121465302Y-99957189D01*
X121210000Y-100339275D01*
X120954698Y-99957189D01*
X120489151Y-99646120D01*
X119940000Y-99536887D01*
X119390849Y-99646120D01*
X118925302Y-99957189D01*
X118670000Y-100339275D01*
X118414698Y-99957189D01*
X117949151Y-99646120D01*
X117400000Y-99536887D01*
X116850849Y-99646120D01*
X116385302Y-99957189D01*
X116130000Y-100339275D01*
X115874698Y-99957189D01*
X115409151Y-99646120D01*
X114860000Y-99536887D01*
X114310849Y-99646120D01*
X113845302Y-99957189D01*
X113590000Y-100339275D01*
X113334698Y-99957189D01*
X112869151Y-99646120D01*
X112320000Y-99536887D01*
X111770849Y-99646120D01*
X111305302Y-99957189D01*
X111050000Y-100339275D01*
X110794698Y-99957189D01*
X110329151Y-99646120D01*
X109780000Y-99536887D01*
X109230849Y-99646120D01*
X108765302Y-99957189D01*
X108753316Y-99975127D01*
X108224294Y-99446106D01*
X107993565Y-99291937D01*
X107721400Y-99237800D01*
X106807000Y-99237800D01*
X106534836Y-99291937D01*
X106487359Y-99323660D01*
X106304105Y-99446106D01*
X105039212Y-100711000D01*
X104283073Y-100711000D01*
X104232907Y-100589588D01*
X103958059Y-100314260D01*
X103598770Y-100165070D01*
X103209737Y-100164731D01*
X102850188Y-100313293D01*
X102574860Y-100588141D01*
X102425670Y-100947430D01*
X102425331Y-101336463D01*
X102425907Y-101337858D01*
X102354170Y-101308070D01*
X101965137Y-101307731D01*
X101605588Y-101456293D01*
X101330260Y-101731141D01*
X101247603Y-101930200D01*
X96302794Y-101930200D01*
X96185659Y-101812860D01*
X95826370Y-101663670D01*
X95437337Y-101663331D01*
X95077788Y-101811893D01*
X94959274Y-101930200D01*
X81469239Y-101930200D01*
X81377459Y-101838260D01*
X81018170Y-101689070D01*
X80629137Y-101688731D01*
X80269588Y-101837293D01*
X79994260Y-102112141D01*
X79943244Y-102235002D01*
X78511398Y-102235002D01*
X78433633Y-102250471D01*
X78427370Y-102247870D01*
X78038337Y-102247531D01*
X77678788Y-102396093D01*
X77403460Y-102670941D01*
X77254270Y-103030230D01*
X77253931Y-103419263D01*
X77394307Y-103759000D01*
X71628000Y-103759000D01*
X71408985Y-103802565D01*
X71355835Y-103813137D01*
X71125106Y-103967306D01*
X70058306Y-105034106D01*
X69904137Y-105264835D01*
X69863718Y-105468035D01*
X69850000Y-105537000D01*
X69850000Y-108864400D01*
X69904137Y-109136565D01*
X70058306Y-109367294D01*
X70909880Y-110218868D01*
X70590729Y-110696511D01*
X70476655Y-111270000D01*
X70590729Y-111843489D01*
X70915585Y-112329670D01*
X71230366Y-112540000D01*
X70915585Y-112750330D01*
X70590729Y-113236511D01*
X70476655Y-113810000D01*
X70590729Y-114383489D01*
X70915585Y-114869670D01*
X71401766Y-115194526D01*
X71975255Y-115308600D01*
X72344745Y-115308600D01*
X72918234Y-115194526D01*
X73404415Y-114869670D01*
X73729271Y-114383489D01*
X73843345Y-113810000D01*
X73729271Y-113236511D01*
X73404415Y-112750330D01*
X73089634Y-112540000D01*
X73404415Y-112329670D01*
X73729271Y-111843489D01*
X73843345Y-111270000D01*
X73729271Y-110696511D01*
X73404415Y-110210330D01*
X73089634Y-110000000D01*
X73404415Y-109789670D01*
X73729271Y-109303489D01*
X73843345Y-108730000D01*
X73729271Y-108156511D01*
X73404415Y-107670330D01*
X73089634Y-107460000D01*
X73404415Y-107249670D01*
X73729271Y-106763489D01*
X73843345Y-106190000D01*
X73779136Y-105867200D01*
X83185000Y-105867200D01*
X83377034Y-105829002D01*
X83680791Y-105829267D01*
X83743800Y-105841800D01*
X86233000Y-105841800D01*
X86505165Y-105787663D01*
X86735894Y-105633494D01*
X87086389Y-105283000D01*
X91399412Y-105283000D01*
X91826106Y-105709695D01*
X92055633Y-105863059D01*
X92056836Y-105863863D01*
X92329000Y-105918000D01*
X98018600Y-105918000D01*
X98096370Y-105902531D01*
X98102630Y-105905130D01*
X98491663Y-105905469D01*
X98689349Y-105823787D01*
X98907600Y-105867200D01*
X100761800Y-105867200D01*
X101033965Y-105813063D01*
X101264694Y-105658894D01*
X101564389Y-105359200D01*
X102483422Y-105359200D01*
X102523093Y-105455212D01*
X102797941Y-105730540D01*
X103157230Y-105879730D01*
X103546263Y-105880069D01*
X103557987Y-105875225D01*
X103388212Y-106045000D01*
X80383602Y-106045000D01*
X80111438Y-106099137D01*
X80067589Y-106128436D01*
X79880707Y-106253306D01*
X79024506Y-107109508D01*
X78870337Y-107340237D01*
X78848538Y-107449830D01*
X78816200Y-107612402D01*
X78816200Y-107628473D01*
X78438371Y-107880930D01*
X78257400Y-108151772D01*
X78076429Y-107880930D01*
X77590248Y-107556074D01*
X77016759Y-107442000D01*
X76958041Y-107442000D01*
X76384552Y-107556074D01*
X75898371Y-107880930D01*
X75573515Y-108367111D01*
X75459441Y-108940600D01*
X75573515Y-109514089D01*
X75898371Y-110000270D01*
X76213152Y-110210600D01*
X75898371Y-110420930D01*
X75573515Y-110907111D01*
X75459441Y-111480600D01*
X75573515Y-112054089D01*
X75898371Y-112540270D01*
X76384552Y-112865126D01*
X76958041Y-112979200D01*
X77016759Y-112979200D01*
X77590248Y-112865126D01*
X78004046Y-112588634D01*
X78541906Y-113126494D01*
X78772635Y-113280663D01*
X78789412Y-113284000D01*
X79044800Y-113334800D01*
X80833011Y-113334800D01*
X80954905Y-113456694D01*
X81103773Y-113556164D01*
X81185636Y-113610863D01*
X81457800Y-113665000D01*
X83220611Y-113665000D01*
X83342505Y-113786894D01*
X83482802Y-113880637D01*
X83573236Y-113941063D01*
X83845400Y-113995200D01*
X88836433Y-113995200D01*
X88836331Y-114112663D01*
X88984893Y-114472212D01*
X89259741Y-114747540D01*
X89619030Y-114896730D01*
X89786488Y-114896876D01*
X90403708Y-115514096D01*
X90634437Y-115668265D01*
X90906602Y-115722402D01*
X97110915Y-115722402D01*
X97102369Y-115734910D01*
X97051360Y-115986800D01*
X97051360Y-117286800D01*
X97095638Y-117522117D01*
X97234710Y-117738241D01*
X97446910Y-117883231D01*
X97698800Y-117934240D01*
X98998800Y-117934240D01*
X99234117Y-117889962D01*
X99450241Y-117750890D01*
X99595231Y-117538690D01*
X99633847Y-117348000D01*
X101762612Y-117348000D01*
X103891105Y-119476494D01*
X104121835Y-119630663D01*
X104166990Y-119639645D01*
X104394000Y-119684800D01*
X104809876Y-119684800D01*
X104842638Y-119858917D01*
X104981710Y-120075041D01*
X105193910Y-120220031D01*
X105445800Y-120271040D01*
X106745800Y-120271040D01*
X106981117Y-120226762D01*
X107197241Y-120087690D01*
X107342231Y-119875490D01*
X107393240Y-119623600D01*
X107393240Y-119228081D01*
X109810577Y-119228081D01*
X110005795Y-119700543D01*
X110366955Y-120062335D01*
X110839076Y-120258377D01*
X111350281Y-120258823D01*
X111822743Y-120063605D01*
X112184535Y-119702445D01*
X112380577Y-119230324D01*
X112381023Y-118719119D01*
X112185805Y-118246657D01*
X111824645Y-117884865D01*
X111352524Y-117688823D01*
X110841319Y-117688377D01*
X110368857Y-117883595D01*
X110007065Y-118244755D01*
X109811023Y-118716876D01*
X109810577Y-119228081D01*
X107393240Y-119228081D01*
X107393240Y-118323600D01*
X107348962Y-118088283D01*
X107209890Y-117872159D01*
X106997690Y-117727169D01*
X106745800Y-117676160D01*
X105445800Y-117676160D01*
X105210483Y-117720438D01*
X104994359Y-117859510D01*
X104849369Y-118071710D01*
X104810753Y-118262400D01*
X104688589Y-118262400D01*
X104114402Y-117688213D01*
X104437535Y-117365645D01*
X104633577Y-116893524D01*
X104634023Y-116382319D01*
X104626727Y-116364661D01*
X108020188Y-112971200D01*
X121818223Y-112971200D01*
X121945341Y-113098540D01*
X122304630Y-113247730D01*
X122693663Y-113248069D01*
X123053212Y-113099507D01*
X123328540Y-112824659D01*
X123477730Y-112465370D01*
X123478069Y-112076337D01*
X123329507Y-111716788D01*
X123054659Y-111441460D01*
X122695370Y-111292270D01*
X122306337Y-111291931D01*
X121946788Y-111440493D01*
X121838292Y-111548800D01*
X108176388Y-111548800D01*
X109057389Y-110667800D01*
X110017612Y-110667800D01*
X110444306Y-111094495D01*
X110675036Y-111248663D01*
X110947200Y-111302800D01*
X112115600Y-111302800D01*
X112387765Y-111248663D01*
X112618494Y-111094494D01*
X113273788Y-110439200D01*
X115366800Y-110439200D01*
X115638965Y-110385063D01*
X115869694Y-110230894D01*
X116524988Y-109575600D01*
X119583200Y-109575600D01*
X119855365Y-109521463D01*
X120086094Y-109367294D01*
X121427189Y-108026200D01*
X127558800Y-108026200D01*
X127830965Y-107972063D01*
X128061694Y-107817894D01*
X129351463Y-106528126D01*
X129544141Y-106721140D01*
X129903430Y-106870330D01*
X130292463Y-106870669D01*
X130652012Y-106722107D01*
X130927340Y-106447259D01*
X131076530Y-106087970D01*
X131076590Y-106019600D01*
X131379012Y-106019600D01*
X131653305Y-106293894D01*
X131807474Y-106396906D01*
X131884036Y-106448063D01*
X132156200Y-106502200D01*
X141539012Y-106502200D01*
X141991106Y-106954295D01*
X142183822Y-107083063D01*
X142221836Y-107108463D01*
X142494000Y-107162600D01*
X146288812Y-107162600D01*
X146969506Y-107843294D01*
X147200235Y-107997463D01*
X147472400Y-108051600D01*
X158521400Y-108051600D01*
X158793565Y-107997463D01*
X159024294Y-107843294D01*
X159438263Y-107429325D01*
X159604063Y-107429469D01*
X159783951Y-107355141D01*
X159794737Y-107409365D01*
X159948906Y-107640094D01*
X160475873Y-108167061D01*
X160155515Y-108646511D01*
X160041441Y-109220000D01*
X160155515Y-109793489D01*
X160480371Y-110279670D01*
X160966552Y-110604526D01*
X161540041Y-110718600D01*
X161598759Y-110718600D01*
X162172248Y-110604526D01*
X162658429Y-110279670D01*
X162839400Y-110008828D01*
X163020371Y-110279670D01*
X163506552Y-110604526D01*
X164080041Y-110718600D01*
X164138759Y-110718600D01*
X164712248Y-110604526D01*
X165198429Y-110279670D01*
X165379400Y-110008828D01*
X165560371Y-110279670D01*
X166046552Y-110604526D01*
X166337975Y-110662494D01*
X166470493Y-110983212D01*
X166745341Y-111258540D01*
X167104630Y-111407730D01*
X167493663Y-111408069D01*
X167853212Y-111259507D01*
X168061883Y-111051200D01*
X173200200Y-111051200D01*
X173472365Y-110997063D01*
X173703094Y-110842894D01*
X174034352Y-110511636D01*
X174247653Y-110600206D01*
X174897894Y-110600774D01*
X175498855Y-110352462D01*
X175835471Y-110016433D01*
X175970493Y-110343212D01*
X176245341Y-110618540D01*
X176604630Y-110767730D01*
X176993663Y-110768069D01*
X177353212Y-110619507D01*
X177628540Y-110344659D01*
X177771157Y-110001200D01*
X178854211Y-110001200D01*
X178900493Y-110113212D01*
X179175341Y-110388540D01*
X179534630Y-110537730D01*
X179923663Y-110538069D01*
X180283212Y-110389507D01*
X180558540Y-110114659D01*
X180564505Y-110100293D01*
X181197106Y-110732895D01*
X181427835Y-110887063D01*
X181700000Y-110941200D01*
X183137286Y-110941200D01*
X182762649Y-111015720D01*
X182297102Y-111326789D01*
X182041800Y-111708875D01*
X181786498Y-111326789D01*
X181320951Y-111015720D01*
X180771800Y-110906487D01*
X180222649Y-111015720D01*
X179757102Y-111326789D01*
X179501800Y-111708875D01*
X179246498Y-111326789D01*
X178780951Y-111015720D01*
X178231800Y-110906487D01*
X177682649Y-111015720D01*
X177217102Y-111326789D01*
X176961800Y-111708875D01*
X176706498Y-111326789D01*
X176240951Y-111015720D01*
X175691800Y-110906487D01*
X175142649Y-111015720D01*
X174677102Y-111326789D01*
X174366033Y-111792336D01*
X174256800Y-112341487D01*
X174256800Y-112397713D01*
X174366033Y-112946864D01*
X174677102Y-113412411D01*
X175142649Y-113723480D01*
X175691800Y-113832713D01*
X176240951Y-113723480D01*
X176706498Y-113412411D01*
X176961800Y-113030325D01*
X177217102Y-113412411D01*
X177682649Y-113723480D01*
X178231800Y-113832713D01*
X178780951Y-113723480D01*
X179246498Y-113412411D01*
X179501800Y-113030325D01*
X179757102Y-113412411D01*
X180222649Y-113723480D01*
X180771800Y-113832713D01*
X181320951Y-113723480D01*
X181786498Y-113412411D01*
X182041800Y-113030325D01*
X182297102Y-113412411D01*
X182762649Y-113723480D01*
X183311800Y-113832713D01*
X183860951Y-113723480D01*
X184326498Y-113412411D01*
X184389205Y-113318563D01*
X186454043Y-113318563D01*
X186552642Y-113585365D01*
X187162182Y-113811801D01*
X187811977Y-113787741D01*
X188300558Y-113585365D01*
X188399157Y-113318563D01*
X187426600Y-112346005D01*
X186454043Y-113318563D01*
X184389205Y-113318563D01*
X184637567Y-112946864D01*
X184746800Y-112397713D01*
X184746800Y-112341487D01*
X184659377Y-111901982D01*
X185781199Y-111901982D01*
X185805259Y-112551777D01*
X186007635Y-113040358D01*
X186274437Y-113138957D01*
X187246995Y-112166400D01*
X187606205Y-112166400D01*
X188578763Y-113138957D01*
X188845565Y-113040358D01*
X189015582Y-112582692D01*
X189215138Y-113065655D01*
X189674527Y-113525846D01*
X190275053Y-113775206D01*
X190925294Y-113775774D01*
X191526255Y-113527462D01*
X191986446Y-113068073D01*
X192235806Y-112467547D01*
X192236374Y-111817306D01*
X191988062Y-111216345D01*
X191528673Y-110756154D01*
X190928147Y-110506794D01*
X190277906Y-110506226D01*
X189676945Y-110754538D01*
X189216754Y-111213927D01*
X189014649Y-111700649D01*
X188845565Y-111292442D01*
X188578763Y-111193843D01*
X187606205Y-112166400D01*
X187246995Y-112166400D01*
X186274437Y-111193843D01*
X186007635Y-111292442D01*
X185781199Y-111901982D01*
X184659377Y-111901982D01*
X184637567Y-111792336D01*
X184326498Y-111326789D01*
X183860951Y-111015720D01*
X183853496Y-111014237D01*
X186454043Y-111014237D01*
X187426600Y-111986795D01*
X188399157Y-111014237D01*
X188300558Y-110747435D01*
X187691018Y-110520999D01*
X187041223Y-110545059D01*
X186552642Y-110747435D01*
X186454043Y-111014237D01*
X183853496Y-111014237D01*
X183486314Y-110941200D01*
X183750000Y-110941200D01*
X184022165Y-110887063D01*
X184252894Y-110732894D01*
X184802812Y-110182976D01*
X184858959Y-110206290D01*
X185338935Y-110206709D01*
X185782535Y-110023418D01*
X186122225Y-109684320D01*
X186306290Y-109241041D01*
X186306291Y-109238935D01*
X186600891Y-109238935D01*
X186784182Y-109682535D01*
X187123280Y-110022225D01*
X187566559Y-110206290D01*
X188046535Y-110206709D01*
X188490135Y-110023418D01*
X188829825Y-109684320D01*
X189013890Y-109241041D01*
X189014309Y-108761065D01*
X188831018Y-108317465D01*
X188491920Y-107977775D01*
X188048641Y-107793710D01*
X187568665Y-107793291D01*
X187125065Y-107976582D01*
X186785375Y-108315680D01*
X186601310Y-108758959D01*
X186600891Y-109238935D01*
X186306291Y-109238935D01*
X186306709Y-108761065D01*
X186123418Y-108317465D01*
X185784320Y-107977775D01*
X185341041Y-107793710D01*
X184861065Y-107793291D01*
X184417465Y-107976582D01*
X184077775Y-108315680D01*
X183893710Y-108758959D01*
X183893429Y-109080782D01*
X183828534Y-109145677D01*
X183828974Y-108642306D01*
X183580662Y-108041345D01*
X183565543Y-108026200D01*
X183591200Y-108026200D01*
X183863365Y-107972063D01*
X184094094Y-107817894D01*
X184397552Y-107514436D01*
X184610853Y-107603006D01*
X185261094Y-107603574D01*
X185862055Y-107355262D01*
X186322246Y-106895873D01*
X186571606Y-106295347D01*
X186571608Y-106292494D01*
X190922626Y-106292494D01*
X191170938Y-106893455D01*
X191630327Y-107353646D01*
X192230853Y-107603006D01*
X192881094Y-107603574D01*
X193482055Y-107355262D01*
X193942246Y-106895873D01*
X194191606Y-106295347D01*
X194192174Y-105645106D01*
X193943862Y-105044145D01*
X193484473Y-104583954D01*
X192883947Y-104334594D01*
X192233706Y-104334026D01*
X191632745Y-104582338D01*
X191172554Y-105041727D01*
X190923194Y-105642253D01*
X190922626Y-106292494D01*
X186571608Y-106292494D01*
X186572174Y-105645106D01*
X186323862Y-105044145D01*
X185864473Y-104583954D01*
X185263947Y-104334594D01*
X184613706Y-104334026D01*
X184012745Y-104582338D01*
X183617086Y-104977308D01*
X183613165Y-104967842D01*
X183346363Y-104869243D01*
X182373805Y-105841800D01*
X182387948Y-105855942D01*
X182208342Y-106035548D01*
X182194200Y-106021405D01*
X182180058Y-106035548D01*
X182000452Y-105855942D01*
X182014595Y-105841800D01*
X181042037Y-104869243D01*
X180775235Y-104967842D01*
X180548799Y-105577382D01*
X180572859Y-106227177D01*
X180775235Y-106715758D01*
X181042036Y-106814356D01*
X180927754Y-106928638D01*
X180959164Y-106960048D01*
X179664412Y-108254800D01*
X176048860Y-108254800D01*
X175960662Y-108041345D01*
X175501273Y-107581154D01*
X175074089Y-107403772D01*
X175498855Y-107228262D01*
X175959046Y-106768873D01*
X176208406Y-106168347D01*
X176208974Y-105518106D01*
X175960662Y-104917145D01*
X175733551Y-104689637D01*
X181221643Y-104689637D01*
X182194200Y-105662195D01*
X183166757Y-104689637D01*
X183068158Y-104422835D01*
X182458618Y-104196399D01*
X181808823Y-104220459D01*
X181320242Y-104422835D01*
X181221643Y-104689637D01*
X175733551Y-104689637D01*
X175501273Y-104456954D01*
X174900747Y-104207594D01*
X174250506Y-104207026D01*
X173649545Y-104455338D01*
X173189354Y-104914727D01*
X172939994Y-105515253D01*
X172939426Y-106165494D01*
X173187738Y-106766455D01*
X173647127Y-107226646D01*
X174074311Y-107404028D01*
X173649545Y-107579538D01*
X173189354Y-108038927D01*
X172939994Y-108639453D01*
X172939426Y-109289694D01*
X173028688Y-109505724D01*
X172905612Y-109628800D01*
X170636044Y-109628800D01*
X170717359Y-109220000D01*
X170603285Y-108646511D01*
X170278429Y-108160330D01*
X170264758Y-108151195D01*
X170288317Y-108146762D01*
X170504441Y-108007690D01*
X170649431Y-107795490D01*
X170700440Y-107543600D01*
X170700440Y-105816400D01*
X170656162Y-105581083D01*
X170517090Y-105364959D01*
X170304890Y-105219969D01*
X170053000Y-105168960D01*
X169900600Y-105168960D01*
X169900600Y-104648002D01*
X169846463Y-104375838D01*
X169775970Y-104270338D01*
X169692294Y-104145107D01*
X168631191Y-103084005D01*
X168695212Y-103020095D01*
X168706800Y-103022400D01*
X169189400Y-103022400D01*
X169461565Y-102968263D01*
X169692294Y-102814094D01*
X169840438Y-102665950D01*
X169933830Y-102704730D01*
X170322863Y-102705069D01*
X170682412Y-102556507D01*
X170957740Y-102281659D01*
X171106930Y-101922370D01*
X171106990Y-101854000D01*
X173924715Y-101854000D01*
X173914043Y-101879700D01*
X173913558Y-102435461D01*
X174125790Y-102949103D01*
X174518430Y-103342429D01*
X175031700Y-103555557D01*
X175587461Y-103556042D01*
X176101103Y-103343810D01*
X176494429Y-102951170D01*
X176580749Y-102743288D01*
X176665790Y-102949103D01*
X177058430Y-103342429D01*
X177571700Y-103555557D01*
X178127461Y-103556042D01*
X178641103Y-103343810D01*
X179034429Y-102951170D01*
X179120749Y-102743288D01*
X179205790Y-102949103D01*
X179598430Y-103342429D01*
X180111700Y-103555557D01*
X180667461Y-103556042D01*
X181181103Y-103343810D01*
X181574429Y-102951170D01*
X181787557Y-102437900D01*
X181788042Y-101882139D01*
X181776415Y-101854000D01*
X183881515Y-101854000D01*
X183870843Y-101879700D01*
X183870358Y-102435461D01*
X184082590Y-102949103D01*
X184475230Y-103342429D01*
X184753734Y-103458074D01*
X184764706Y-103474494D01*
X185247305Y-103957094D01*
X185361347Y-104033294D01*
X185478036Y-104111263D01*
X185750200Y-104165400D01*
X188837606Y-104165400D01*
X188954741Y-104282740D01*
X189314030Y-104431930D01*
X189703063Y-104432269D01*
X190062612Y-104283707D01*
X190337940Y-104008859D01*
X190487130Y-103649570D01*
X190487212Y-103555922D01*
X190624261Y-103556042D01*
X191137903Y-103343810D01*
X191531229Y-102951170D01*
X191744357Y-102437900D01*
X191744842Y-101882139D01*
X191733215Y-101854000D01*
X194802812Y-101854000D01*
X195173600Y-102224789D01*
X195173600Y-111023400D01*
X195227737Y-111295565D01*
X195381906Y-111526294D01*
X196614720Y-112759108D01*
X196295729Y-113236511D01*
X196181655Y-113810000D01*
X196295729Y-114383489D01*
X196620585Y-114869670D01*
X197106766Y-115194526D01*
X197680255Y-115308600D01*
X198049745Y-115308600D01*
X198623234Y-115194526D01*
X199109415Y-114869670D01*
X199434271Y-114383489D01*
X199548345Y-113810000D01*
X199434271Y-113236511D01*
X199109415Y-112750330D01*
X198794634Y-112540000D01*
X199109415Y-112329670D01*
X199434271Y-111843489D01*
X199500138Y-111512350D01*
X200634600Y-111512350D01*
X200634600Y-112368910D01*
X200731273Y-112602299D01*
X200909902Y-112780927D01*
X201143291Y-112877600D01*
X201999850Y-112877600D01*
X202158600Y-112718850D01*
X202158600Y-111353600D01*
X202412600Y-111353600D01*
X202412600Y-112718850D01*
X202571350Y-112877600D01*
X203427909Y-112877600D01*
X203661298Y-112780927D01*
X203839927Y-112602299D01*
X203936600Y-112368910D01*
X203936600Y-111512350D01*
X203777850Y-111353600D01*
X202412600Y-111353600D01*
X202158600Y-111353600D01*
X200793350Y-111353600D01*
X200634600Y-111512350D01*
X199500138Y-111512350D01*
X199548345Y-111270000D01*
X199434271Y-110696511D01*
X199109415Y-110210330D01*
X198794634Y-110000000D01*
X199109415Y-109789670D01*
X199434271Y-109303489D01*
X199548345Y-108730000D01*
X199539713Y-108686600D01*
X200602255Y-108686600D01*
X200727930Y-109318410D01*
X200952566Y-109654601D01*
X200909902Y-109672273D01*
X200731273Y-109850901D01*
X200634600Y-110084290D01*
X200634600Y-110940850D01*
X200793350Y-111099600D01*
X202158600Y-111099600D01*
X202158600Y-111079600D01*
X202412600Y-111079600D01*
X202412600Y-111099600D01*
X203777850Y-111099600D01*
X203936600Y-110940850D01*
X203936600Y-110084290D01*
X203839927Y-109850901D01*
X203661298Y-109672273D01*
X203618634Y-109654601D01*
X203843270Y-109318410D01*
X203968945Y-108686600D01*
X203843270Y-108054790D01*
X203485378Y-107519167D01*
X202949755Y-107161275D01*
X202317945Y-107035600D01*
X202253255Y-107035600D01*
X201621445Y-107161275D01*
X201085822Y-107519167D01*
X200727930Y-108054790D01*
X200602255Y-108686600D01*
X199539713Y-108686600D01*
X199434271Y-108156511D01*
X199109415Y-107670330D01*
X198794634Y-107460000D01*
X199109415Y-107249670D01*
X199434271Y-106763489D01*
X199548345Y-106190000D01*
X199434271Y-105616511D01*
X199109415Y-105130330D01*
X198623234Y-104805474D01*
X198049745Y-104691400D01*
X197680255Y-104691400D01*
X197612000Y-104704977D01*
X197612000Y-103818189D01*
X197815680Y-104022225D01*
X198258959Y-104206290D01*
X198738935Y-104206709D01*
X199182535Y-104023418D01*
X199522225Y-103684320D01*
X199641043Y-103398172D01*
X200532538Y-103398172D01*
X200937709Y-104378761D01*
X201687293Y-105129655D01*
X202667173Y-105536536D01*
X203728172Y-105537462D01*
X204708761Y-105132291D01*
X205459655Y-104382707D01*
X205866536Y-103402827D01*
X205867462Y-102341828D01*
X205462291Y-101361239D01*
X204712707Y-100610345D01*
X203732827Y-100203464D01*
X202671828Y-100202538D01*
X201691239Y-100607709D01*
X200940345Y-101357293D01*
X200533464Y-102337173D01*
X200532538Y-103398172D01*
X199641043Y-103398172D01*
X199706290Y-103241041D01*
X199706709Y-102761065D01*
X199523418Y-102317465D01*
X199184320Y-101977775D01*
X198741041Y-101793710D01*
X198261065Y-101793291D01*
X197817465Y-101976582D01*
X197612000Y-102181689D01*
X197612000Y-101549200D01*
X197557863Y-101277036D01*
X197487371Y-101171537D01*
X197403694Y-101046305D01*
X196006694Y-99649306D01*
X195775965Y-99495137D01*
X195503800Y-99441000D01*
X166000394Y-99441000D01*
X165883259Y-99323660D01*
X165554146Y-99187000D01*
X204154639Y-99187000D01*
X204782745Y-99311938D01*
X205586206Y-99848794D01*
X206123062Y-100652253D01*
X206248000Y-101280361D01*
X206248000Y-118429639D01*
X206182758Y-118757636D01*
X204482637Y-120457757D01*
X204154639Y-120523000D01*
X192062156Y-120523000D01*
X192247001Y-120025418D01*
X192222941Y-119375623D01*
X192020565Y-118887042D01*
X191753763Y-118788443D01*
X190781205Y-119761000D01*
X190795348Y-119775142D01*
X190615742Y-119954748D01*
X190601600Y-119940605D01*
X190587458Y-119954748D01*
X190407852Y-119775142D01*
X190421995Y-119761000D01*
X189449437Y-118788443D01*
X189182635Y-118887042D01*
X189012618Y-119344708D01*
X188813062Y-118861745D01*
X188560595Y-118608837D01*
X189629043Y-118608837D01*
X190601600Y-119581395D01*
X191574157Y-118608837D01*
X191475558Y-118342035D01*
X190866018Y-118115599D01*
X190216223Y-118139659D01*
X189727642Y-118342035D01*
X189629043Y-118608837D01*
X188560595Y-118608837D01*
X188353673Y-118401554D01*
X187753147Y-118152194D01*
X187102906Y-118151626D01*
X186501945Y-118399938D01*
X186041754Y-118859327D01*
X185792394Y-119459853D01*
X185791826Y-120110094D01*
X185962435Y-120523000D01*
X184616460Y-120523000D01*
X184703714Y-120338641D01*
X184582429Y-120116600D01*
X183438800Y-120116600D01*
X183438800Y-120136600D01*
X183184800Y-120136600D01*
X183184800Y-120116600D01*
X183164800Y-120116600D01*
X183164800Y-119862600D01*
X183184800Y-119862600D01*
X183184800Y-118719685D01*
X183438800Y-118719685D01*
X183438800Y-119862600D01*
X184582429Y-119862600D01*
X184703714Y-119640559D01*
X184464189Y-119134466D01*
X184049223Y-118758559D01*
X183660839Y-118597696D01*
X183438800Y-118719685D01*
X183184800Y-118719685D01*
X182962761Y-118597696D01*
X182574377Y-118758559D01*
X182159411Y-119134466D01*
X182056786Y-119351303D01*
X181786498Y-118946789D01*
X181320951Y-118635720D01*
X180771800Y-118526487D01*
X180222649Y-118635720D01*
X179757102Y-118946789D01*
X179501800Y-119328875D01*
X179246498Y-118946789D01*
X178780951Y-118635720D01*
X178231800Y-118526487D01*
X177682649Y-118635720D01*
X177217102Y-118946789D01*
X176961800Y-119328875D01*
X176706498Y-118946789D01*
X176240951Y-118635720D01*
X175691800Y-118526487D01*
X175142649Y-118635720D01*
X174677102Y-118946789D01*
X174366033Y-119412336D01*
X174256800Y-119961487D01*
X174256800Y-120017713D01*
X174357308Y-120523000D01*
X158634642Y-120523000D01*
X159090455Y-120334662D01*
X159550646Y-119875273D01*
X159800006Y-119274747D01*
X159800574Y-118624506D01*
X159713925Y-118414800D01*
X160395560Y-118414800D01*
X160208423Y-118865476D01*
X160207977Y-119376681D01*
X160403195Y-119849143D01*
X160764355Y-120210935D01*
X161236476Y-120406977D01*
X161747681Y-120407423D01*
X162220143Y-120212205D01*
X162581935Y-119851045D01*
X162777977Y-119378924D01*
X162778423Y-118867719D01*
X162591280Y-118414800D01*
X165850149Y-118414800D01*
X165697110Y-118783359D01*
X165696691Y-119263335D01*
X165879982Y-119706935D01*
X166219080Y-120046625D01*
X166662359Y-120230690D01*
X167142335Y-120231109D01*
X167585935Y-120047818D01*
X167925625Y-119708720D01*
X168109690Y-119265441D01*
X168110109Y-118785465D01*
X167926818Y-118341865D01*
X167587720Y-118002175D01*
X167560598Y-117990913D01*
X167560463Y-117990236D01*
X167519075Y-117928294D01*
X167406295Y-117759506D01*
X166847494Y-117200706D01*
X166616765Y-117046537D01*
X166344600Y-116992400D01*
X162471211Y-116992400D01*
X162471269Y-116925737D01*
X162322707Y-116566188D01*
X162047859Y-116290860D01*
X161688570Y-116141670D01*
X161299537Y-116141331D01*
X160939988Y-116289893D01*
X160664660Y-116564741D01*
X160613645Y-116687598D01*
X156851559Y-116687598D01*
X156935000Y-116268113D01*
X156935000Y-116211887D01*
X156873002Y-115900200D01*
X165389612Y-115900200D01*
X166121106Y-116631694D01*
X166351835Y-116785863D01*
X166624000Y-116840000D01*
X180455606Y-116840000D01*
X180572741Y-116957340D01*
X180932030Y-117106530D01*
X181321063Y-117106869D01*
X181680612Y-116958307D01*
X181955940Y-116683459D01*
X182105130Y-116324170D01*
X182105212Y-116230400D01*
X186448589Y-116230400D01*
X186448531Y-116297063D01*
X186597093Y-116656612D01*
X186871941Y-116931940D01*
X187231230Y-117081130D01*
X187620263Y-117081469D01*
X187979812Y-116932907D01*
X188255140Y-116658059D01*
X188306155Y-116535202D01*
X192466014Y-116535202D01*
X192637160Y-116706348D01*
X192637160Y-118348000D01*
X192681438Y-118583317D01*
X192820510Y-118799441D01*
X193032710Y-118944431D01*
X193284600Y-118995440D01*
X195284600Y-118995440D01*
X195519917Y-118951162D01*
X195736041Y-118812090D01*
X195881031Y-118599890D01*
X195932040Y-118348000D01*
X195932040Y-117842046D01*
X197837559Y-117842046D01*
X197883552Y-118064533D01*
X198337855Y-118219405D01*
X198816844Y-118188633D01*
X199116448Y-118064533D01*
X199162441Y-117842046D01*
X198500000Y-117179605D01*
X197837559Y-117842046D01*
X195932040Y-117842046D01*
X195932040Y-116837855D01*
X197280595Y-116837855D01*
X197311367Y-117316844D01*
X197435467Y-117616448D01*
X197657954Y-117662441D01*
X198320395Y-117000000D01*
X198679605Y-117000000D01*
X199342046Y-117662441D01*
X199564533Y-117616448D01*
X199649170Y-117368172D01*
X200532538Y-117368172D01*
X200937709Y-118348761D01*
X201687293Y-119099655D01*
X202667173Y-119506536D01*
X203728172Y-119507462D01*
X204708761Y-119102291D01*
X205459655Y-118352707D01*
X205866536Y-117372827D01*
X205867462Y-116311828D01*
X205462291Y-115331239D01*
X204712707Y-114580345D01*
X203732827Y-114173464D01*
X202671828Y-114172538D01*
X201691239Y-114577709D01*
X200940345Y-115327293D01*
X200533464Y-116307173D01*
X200532538Y-117368172D01*
X199649170Y-117368172D01*
X199719405Y-117162145D01*
X199688633Y-116683156D01*
X199564533Y-116383552D01*
X199342046Y-116337559D01*
X198679605Y-117000000D01*
X198320395Y-117000000D01*
X197657954Y-116337559D01*
X197435467Y-116383552D01*
X197280595Y-116837855D01*
X195932040Y-116837855D01*
X195932040Y-116348000D01*
X195896281Y-116157954D01*
X197837559Y-116157954D01*
X198500000Y-116820395D01*
X199162441Y-116157954D01*
X199116448Y-115935467D01*
X198662145Y-115780595D01*
X198183156Y-115811367D01*
X197883552Y-115935467D01*
X197837559Y-116157954D01*
X195896281Y-116157954D01*
X195887762Y-116112683D01*
X195748690Y-115896559D01*
X195606039Y-115799090D01*
X195669878Y-115735363D01*
X195919316Y-115134648D01*
X195919884Y-114484205D01*
X195671494Y-113883057D01*
X195211963Y-113422722D01*
X194611248Y-113173284D01*
X193960805Y-113172716D01*
X193359657Y-113421106D01*
X192899322Y-113880637D01*
X192649884Y-114481352D01*
X192649599Y-114808000D01*
X180924200Y-114808000D01*
X180652036Y-114862137D01*
X180616143Y-114886120D01*
X180421305Y-115016306D01*
X180324813Y-115112798D01*
X176546072Y-115112798D01*
X176495907Y-114991388D01*
X176221059Y-114716060D01*
X175861770Y-114566870D01*
X175472737Y-114566531D01*
X175113188Y-114715093D01*
X174837860Y-114989941D01*
X174688670Y-115349230D01*
X174688610Y-115417600D01*
X170542864Y-115417600D01*
X170553380Y-115364735D01*
X170553380Y-114708465D01*
X170470821Y-114293414D01*
X170235714Y-113941551D01*
X169883851Y-113706444D01*
X169468800Y-113623885D01*
X169053749Y-113706444D01*
X168829562Y-113856241D01*
X168492735Y-113691619D01*
X168325800Y-113818532D01*
X168325800Y-114909600D01*
X168345800Y-114909600D01*
X168345800Y-115163600D01*
X168325800Y-115163600D01*
X168325800Y-115183600D01*
X168071800Y-115183600D01*
X168071800Y-115163600D01*
X168051800Y-115163600D01*
X168051800Y-114909600D01*
X168071800Y-114909600D01*
X168071800Y-113818532D01*
X167904865Y-113691619D01*
X167568038Y-113856241D01*
X167343851Y-113706444D01*
X166928800Y-113623885D01*
X166513749Y-113706444D01*
X166161886Y-113941551D01*
X165926779Y-114293414D01*
X165882266Y-114517198D01*
X165684200Y-114477800D01*
X162790640Y-114477800D01*
X162790640Y-113472200D01*
X162746362Y-113236883D01*
X162607290Y-113020759D01*
X162395090Y-112875769D01*
X162143200Y-112824760D01*
X160843200Y-112824760D01*
X160607883Y-112869038D01*
X160391759Y-113008110D01*
X160246769Y-113220310D01*
X160195760Y-113472200D01*
X160195760Y-114477800D01*
X142559988Y-114477800D01*
X142438094Y-114355906D01*
X142207365Y-114201737D01*
X141935200Y-114147600D01*
X137328473Y-114147600D01*
X137278307Y-114026188D01*
X137003459Y-113750860D01*
X136644170Y-113601670D01*
X136255137Y-113601331D01*
X135895588Y-113749893D01*
X135620260Y-114024741D01*
X135471070Y-114384030D01*
X135470988Y-114477800D01*
X132232400Y-114477800D01*
X131960236Y-114531937D01*
X131907955Y-114566870D01*
X131729505Y-114686106D01*
X131156244Y-115259367D01*
X131114698Y-115197189D01*
X130649151Y-114886120D01*
X130100000Y-114776887D01*
X129550849Y-114886120D01*
X129085302Y-115197189D01*
X128830000Y-115579275D01*
X128574698Y-115197189D01*
X128109151Y-114886120D01*
X127560000Y-114776887D01*
X127010849Y-114886120D01*
X126545302Y-115197189D01*
X126290000Y-115579275D01*
X126034698Y-115197189D01*
X125569151Y-114886120D01*
X125020000Y-114776887D01*
X124470849Y-114886120D01*
X124005302Y-115197189D01*
X123750000Y-115579275D01*
X123494698Y-115197189D01*
X123029151Y-114886120D01*
X122480000Y-114776887D01*
X121930849Y-114886120D01*
X121465302Y-115197189D01*
X121195014Y-115601703D01*
X121092389Y-115384866D01*
X120677423Y-115008959D01*
X120289039Y-114848096D01*
X120067000Y-114970085D01*
X120067000Y-116113000D01*
X120087000Y-116113000D01*
X120087000Y-116367000D01*
X120067000Y-116367000D01*
X120067000Y-117509915D01*
X120289039Y-117631904D01*
X120677423Y-117471041D01*
X121092389Y-117095134D01*
X121195014Y-116878297D01*
X121465302Y-117282811D01*
X121511375Y-117313596D01*
X121316906Y-117313426D01*
X120715945Y-117561738D01*
X120255754Y-118021127D01*
X120006394Y-118621653D01*
X120005826Y-119271894D01*
X120254138Y-119872855D01*
X120713527Y-120333046D01*
X121170987Y-120523000D01*
X114489442Y-120523000D01*
X114945255Y-120334662D01*
X115405446Y-119875273D01*
X115654806Y-119274747D01*
X115655374Y-118624506D01*
X115407062Y-118023545D01*
X115049550Y-117665409D01*
X115409151Y-117593880D01*
X115874698Y-117282811D01*
X116130000Y-116900725D01*
X116385302Y-117282811D01*
X116850849Y-117593880D01*
X117400000Y-117703113D01*
X117949151Y-117593880D01*
X118414698Y-117282811D01*
X118684986Y-116878297D01*
X118787611Y-117095134D01*
X119202577Y-117471041D01*
X119590961Y-117631904D01*
X119813000Y-117509915D01*
X119813000Y-116367000D01*
X119793000Y-116367000D01*
X119793000Y-116113000D01*
X119813000Y-116113000D01*
X119813000Y-114970085D01*
X119590961Y-114848096D01*
X119202577Y-115008959D01*
X118787611Y-115384866D01*
X118684986Y-115601703D01*
X118414698Y-115197189D01*
X117949151Y-114886120D01*
X117400000Y-114776887D01*
X116850849Y-114886120D01*
X116385302Y-115197189D01*
X116130000Y-115579275D01*
X115874698Y-115197189D01*
X115409151Y-114886120D01*
X114860000Y-114776887D01*
X114310849Y-114886120D01*
X113845302Y-115197189D01*
X113590000Y-115579275D01*
X113334698Y-115197189D01*
X112869151Y-114886120D01*
X112320000Y-114776887D01*
X111770849Y-114886120D01*
X111305302Y-115197189D01*
X111050000Y-115579275D01*
X110794698Y-115197189D01*
X110329151Y-114886120D01*
X109780000Y-114776887D01*
X109230849Y-114886120D01*
X108765302Y-115197189D01*
X108510000Y-115579275D01*
X108254698Y-115197189D01*
X107789151Y-114886120D01*
X107240000Y-114776887D01*
X106690849Y-114886120D01*
X106225302Y-115197189D01*
X105914233Y-115662736D01*
X105805000Y-116211887D01*
X105805000Y-116268113D01*
X105914233Y-116817264D01*
X106225302Y-117282811D01*
X106690849Y-117593880D01*
X107240000Y-117703113D01*
X107789151Y-117593880D01*
X108254698Y-117282811D01*
X108510000Y-116900725D01*
X108765302Y-117282811D01*
X109230849Y-117593880D01*
X109780000Y-117703113D01*
X110329151Y-117593880D01*
X110794698Y-117282811D01*
X111050000Y-116900725D01*
X111305302Y-117282811D01*
X111770849Y-117593880D01*
X112320000Y-117703113D01*
X112869151Y-117593880D01*
X113334698Y-117282811D01*
X113590000Y-116900725D01*
X113845302Y-117282811D01*
X113891375Y-117313596D01*
X113696906Y-117313426D01*
X113095945Y-117561738D01*
X112635754Y-118021127D01*
X112386394Y-118621653D01*
X112385826Y-119271894D01*
X112634138Y-119872855D01*
X113093527Y-120333046D01*
X113550987Y-120523000D01*
X66355361Y-120523000D01*
X65727253Y-120398062D01*
X64923794Y-119861206D01*
X64386938Y-119057745D01*
X64262000Y-118429639D01*
X64262000Y-117368172D01*
X64642538Y-117368172D01*
X65047709Y-118348761D01*
X65797293Y-119099655D01*
X66777173Y-119506536D01*
X67838172Y-119507462D01*
X68818761Y-119102291D01*
X69569655Y-118352707D01*
X69976536Y-117372827D01*
X69977462Y-116311828D01*
X69572291Y-115331239D01*
X68822707Y-114580345D01*
X67842827Y-114173464D01*
X66781828Y-114172538D01*
X65801239Y-114577709D01*
X65050345Y-115327293D01*
X64643464Y-116307173D01*
X64642538Y-117368172D01*
X64262000Y-117368172D01*
X64262000Y-103398172D01*
X64642538Y-103398172D01*
X65047709Y-104378761D01*
X65797293Y-105129655D01*
X66777173Y-105536536D01*
X67838172Y-105537462D01*
X68818761Y-105132291D01*
X69569655Y-104382707D01*
X69976536Y-103402827D01*
X69977462Y-102341828D01*
X69572291Y-101361239D01*
X68822707Y-100610345D01*
X67842827Y-100203464D01*
X66781828Y-100202538D01*
X65801239Y-100607709D01*
X65050345Y-101357293D01*
X64643464Y-102337173D01*
X64642538Y-103398172D01*
X64262000Y-103398172D01*
X64262000Y-101280361D01*
X64386938Y-100652255D01*
X64923794Y-99848794D01*
X65727253Y-99311938D01*
X66355361Y-99187000D01*
X165103792Y-99187000D01*
X164775388Y-99322693D01*
X164775388Y-99322693D01*
G37*
X164775388Y-99322693D02*
X164682319Y-99415600D01*
X157836342Y-99415600D01*
X157564177Y-99469737D01*
X157333448Y-99623906D01*
X156709149Y-100248205D01*
X156514698Y-99957189D01*
X156049151Y-99646120D01*
X155500000Y-99536887D01*
X154950849Y-99646120D01*
X154485302Y-99957189D01*
X154230000Y-100339275D01*
X153974698Y-99957189D01*
X153509151Y-99646120D01*
X152960000Y-99536887D01*
X152410849Y-99646120D01*
X151945302Y-99957189D01*
X151690000Y-100339275D01*
X151434698Y-99957189D01*
X150969151Y-99646120D01*
X150420000Y-99536887D01*
X149870849Y-99646120D01*
X149405302Y-99957189D01*
X149150000Y-100339275D01*
X148894698Y-99957189D01*
X148429151Y-99646120D01*
X147880000Y-99536887D01*
X147330849Y-99646120D01*
X146865302Y-99957189D01*
X146610000Y-100339275D01*
X146354698Y-99957189D01*
X145889151Y-99646120D01*
X145340000Y-99536887D01*
X144790849Y-99646120D01*
X144325302Y-99957189D01*
X144070000Y-100339275D01*
X143814698Y-99957189D01*
X143349151Y-99646120D01*
X142800000Y-99536887D01*
X142250849Y-99646120D01*
X141785302Y-99957189D01*
X141530000Y-100339275D01*
X141274698Y-99957189D01*
X140809151Y-99646120D01*
X140260000Y-99536887D01*
X139710849Y-99646120D01*
X139245302Y-99957189D01*
X138990000Y-100339275D01*
X138734698Y-99957189D01*
X138269151Y-99646120D01*
X137720000Y-99536887D01*
X137170849Y-99646120D01*
X136705302Y-99957189D01*
X136450000Y-100339275D01*
X136194698Y-99957189D01*
X135729151Y-99646120D01*
X135180000Y-99536887D01*
X134630849Y-99646120D01*
X134165302Y-99957189D01*
X133910000Y-100339275D01*
X133654698Y-99957189D01*
X133189151Y-99646120D01*
X132640000Y-99536887D01*
X132090849Y-99646120D01*
X131625302Y-99957189D01*
X131370000Y-100339275D01*
X131114698Y-99957189D01*
X130649151Y-99646120D01*
X130100000Y-99536887D01*
X129550849Y-99646120D01*
X129085302Y-99957189D01*
X128830000Y-100339275D01*
X128574698Y-99957189D01*
X128109151Y-99646120D01*
X127560000Y-99536887D01*
X127010849Y-99646120D01*
X126545302Y-99957189D01*
X126290000Y-100339275D01*
X126034698Y-99957189D01*
X125569151Y-99646120D01*
X125020000Y-99536887D01*
X124470849Y-99646120D01*
X124005302Y-99957189D01*
X123750000Y-100339275D01*
X123494698Y-99957189D01*
X123029151Y-99646120D01*
X122480000Y-99536887D01*
X121930849Y-99646120D01*
X121465302Y-99957189D01*
X121210000Y-100339275D01*
X120954698Y-99957189D01*
X120489151Y-99646120D01*
X119940000Y-99536887D01*
X119390849Y-99646120D01*
X118925302Y-99957189D01*
X118670000Y-100339275D01*
X118414698Y-99957189D01*
X117949151Y-99646120D01*
X117400000Y-99536887D01*
X116850849Y-99646120D01*
X116385302Y-99957189D01*
X116130000Y-100339275D01*
X115874698Y-99957189D01*
X115409151Y-99646120D01*
X114860000Y-99536887D01*
X114310849Y-99646120D01*
X113845302Y-99957189D01*
X113590000Y-100339275D01*
X113334698Y-99957189D01*
X112869151Y-99646120D01*
X112320000Y-99536887D01*
X111770849Y-99646120D01*
X111305302Y-99957189D01*
X111050000Y-100339275D01*
X110794698Y-99957189D01*
X110329151Y-99646120D01*
X109780000Y-99536887D01*
X109230849Y-99646120D01*
X108765302Y-99957189D01*
X108753316Y-99975127D01*
X108224294Y-99446106D01*
X107993565Y-99291937D01*
X107721400Y-99237800D01*
X106807000Y-99237800D01*
X106534836Y-99291937D01*
X106487359Y-99323660D01*
X106304105Y-99446106D01*
X105039212Y-100711000D01*
X104283073Y-100711000D01*
X104232907Y-100589588D01*
X103958059Y-100314260D01*
X103598770Y-100165070D01*
X103209737Y-100164731D01*
X102850188Y-100313293D01*
X102574860Y-100588141D01*
X102425670Y-100947430D01*
X102425331Y-101336463D01*
X102425907Y-101337858D01*
X102354170Y-101308070D01*
X101965137Y-101307731D01*
X101605588Y-101456293D01*
X101330260Y-101731141D01*
X101247603Y-101930200D01*
X96302794Y-101930200D01*
X96185659Y-101812860D01*
X95826370Y-101663670D01*
X95437337Y-101663331D01*
X95077788Y-101811893D01*
X94959274Y-101930200D01*
X81469239Y-101930200D01*
X81377459Y-101838260D01*
X81018170Y-101689070D01*
X80629137Y-101688731D01*
X80269588Y-101837293D01*
X79994260Y-102112141D01*
X79943244Y-102235002D01*
X78511398Y-102235002D01*
X78433633Y-102250471D01*
X78427370Y-102247870D01*
X78038337Y-102247531D01*
X77678788Y-102396093D01*
X77403460Y-102670941D01*
X77254270Y-103030230D01*
X77253931Y-103419263D01*
X77394307Y-103759000D01*
X71628000Y-103759000D01*
X71408985Y-103802565D01*
X71355835Y-103813137D01*
X71125106Y-103967306D01*
X70058306Y-105034106D01*
X69904137Y-105264835D01*
X69863718Y-105468035D01*
X69850000Y-105537000D01*
X69850000Y-108864400D01*
X69904137Y-109136565D01*
X70058306Y-109367294D01*
X70909880Y-110218868D01*
X70590729Y-110696511D01*
X70476655Y-111270000D01*
X70590729Y-111843489D01*
X70915585Y-112329670D01*
X71230366Y-112540000D01*
X70915585Y-112750330D01*
X70590729Y-113236511D01*
X70476655Y-113810000D01*
X70590729Y-114383489D01*
X70915585Y-114869670D01*
X71401766Y-115194526D01*
X71975255Y-115308600D01*
X72344745Y-115308600D01*
X72918234Y-115194526D01*
X73404415Y-114869670D01*
X73729271Y-114383489D01*
X73843345Y-113810000D01*
X73729271Y-113236511D01*
X73404415Y-112750330D01*
X73089634Y-112540000D01*
X73404415Y-112329670D01*
X73729271Y-111843489D01*
X73843345Y-111270000D01*
X73729271Y-110696511D01*
X73404415Y-110210330D01*
X73089634Y-110000000D01*
X73404415Y-109789670D01*
X73729271Y-109303489D01*
X73843345Y-108730000D01*
X73729271Y-108156511D01*
X73404415Y-107670330D01*
X73089634Y-107460000D01*
X73404415Y-107249670D01*
X73729271Y-106763489D01*
X73843345Y-106190000D01*
X73779136Y-105867200D01*
X83185000Y-105867200D01*
X83377034Y-105829002D01*
X83680791Y-105829267D01*
X83743800Y-105841800D01*
X86233000Y-105841800D01*
X86505165Y-105787663D01*
X86735894Y-105633494D01*
X87086389Y-105283000D01*
X91399412Y-105283000D01*
X91826106Y-105709695D01*
X92055633Y-105863059D01*
X92056836Y-105863863D01*
X92329000Y-105918000D01*
X98018600Y-105918000D01*
X98096370Y-105902531D01*
X98102630Y-105905130D01*
X98491663Y-105905469D01*
X98689349Y-105823787D01*
X98907600Y-105867200D01*
X100761800Y-105867200D01*
X101033965Y-105813063D01*
X101264694Y-105658894D01*
X101564389Y-105359200D01*
X102483422Y-105359200D01*
X102523093Y-105455212D01*
X102797941Y-105730540D01*
X103157230Y-105879730D01*
X103546263Y-105880069D01*
X103557987Y-105875225D01*
X103388212Y-106045000D01*
X80383602Y-106045000D01*
X80111438Y-106099137D01*
X80067589Y-106128436D01*
X79880707Y-106253306D01*
X79024506Y-107109508D01*
X78870337Y-107340237D01*
X78848538Y-107449830D01*
X78816200Y-107612402D01*
X78816200Y-107628473D01*
X78438371Y-107880930D01*
X78257400Y-108151772D01*
X78076429Y-107880930D01*
X77590248Y-107556074D01*
X77016759Y-107442000D01*
X76958041Y-107442000D01*
X76384552Y-107556074D01*
X75898371Y-107880930D01*
X75573515Y-108367111D01*
X75459441Y-108940600D01*
X75573515Y-109514089D01*
X75898371Y-110000270D01*
X76213152Y-110210600D01*
X75898371Y-110420930D01*
X75573515Y-110907111D01*
X75459441Y-111480600D01*
X75573515Y-112054089D01*
X75898371Y-112540270D01*
X76384552Y-112865126D01*
X76958041Y-112979200D01*
X77016759Y-112979200D01*
X77590248Y-112865126D01*
X78004046Y-112588634D01*
X78541906Y-113126494D01*
X78772635Y-113280663D01*
X78789412Y-113284000D01*
X79044800Y-113334800D01*
X80833011Y-113334800D01*
X80954905Y-113456694D01*
X81103773Y-113556164D01*
X81185636Y-113610863D01*
X81457800Y-113665000D01*
X83220611Y-113665000D01*
X83342505Y-113786894D01*
X83482802Y-113880637D01*
X83573236Y-113941063D01*
X83845400Y-113995200D01*
X88836433Y-113995200D01*
X88836331Y-114112663D01*
X88984893Y-114472212D01*
X89259741Y-114747540D01*
X89619030Y-114896730D01*
X89786488Y-114896876D01*
X90403708Y-115514096D01*
X90634437Y-115668265D01*
X90906602Y-115722402D01*
X97110915Y-115722402D01*
X97102369Y-115734910D01*
X97051360Y-115986800D01*
X97051360Y-117286800D01*
X97095638Y-117522117D01*
X97234710Y-117738241D01*
X97446910Y-117883231D01*
X97698800Y-117934240D01*
X98998800Y-117934240D01*
X99234117Y-117889962D01*
X99450241Y-117750890D01*
X99595231Y-117538690D01*
X99633847Y-117348000D01*
X101762612Y-117348000D01*
X103891105Y-119476494D01*
X104121835Y-119630663D01*
X104166990Y-119639645D01*
X104394000Y-119684800D01*
X104809876Y-119684800D01*
X104842638Y-119858917D01*
X104981710Y-120075041D01*
X105193910Y-120220031D01*
X105445800Y-120271040D01*
X106745800Y-120271040D01*
X106981117Y-120226762D01*
X107197241Y-120087690D01*
X107342231Y-119875490D01*
X107393240Y-119623600D01*
X107393240Y-119228081D01*
X109810577Y-119228081D01*
X110005795Y-119700543D01*
X110366955Y-120062335D01*
X110839076Y-120258377D01*
X111350281Y-120258823D01*
X111822743Y-120063605D01*
X112184535Y-119702445D01*
X112380577Y-119230324D01*
X112381023Y-118719119D01*
X112185805Y-118246657D01*
X111824645Y-117884865D01*
X111352524Y-117688823D01*
X110841319Y-117688377D01*
X110368857Y-117883595D01*
X110007065Y-118244755D01*
X109811023Y-118716876D01*
X109810577Y-119228081D01*
X107393240Y-119228081D01*
X107393240Y-118323600D01*
X107348962Y-118088283D01*
X107209890Y-117872159D01*
X106997690Y-117727169D01*
X106745800Y-117676160D01*
X105445800Y-117676160D01*
X105210483Y-117720438D01*
X104994359Y-117859510D01*
X104849369Y-118071710D01*
X104810753Y-118262400D01*
X104688589Y-118262400D01*
X104114402Y-117688213D01*
X104437535Y-117365645D01*
X104633577Y-116893524D01*
X104634023Y-116382319D01*
X104626727Y-116364661D01*
X108020188Y-112971200D01*
X121818223Y-112971200D01*
X121945341Y-113098540D01*
X122304630Y-113247730D01*
X122693663Y-113248069D01*
X123053212Y-113099507D01*
X123328540Y-112824659D01*
X123477730Y-112465370D01*
X123478069Y-112076337D01*
X123329507Y-111716788D01*
X123054659Y-111441460D01*
X122695370Y-111292270D01*
X122306337Y-111291931D01*
X121946788Y-111440493D01*
X121838292Y-111548800D01*
X108176388Y-111548800D01*
X109057389Y-110667800D01*
X110017612Y-110667800D01*
X110444306Y-111094495D01*
X110675036Y-111248663D01*
X110947200Y-111302800D01*
X112115600Y-111302800D01*
X112387765Y-111248663D01*
X112618494Y-111094494D01*
X113273788Y-110439200D01*
X115366800Y-110439200D01*
X115638965Y-110385063D01*
X115869694Y-110230894D01*
X116524988Y-109575600D01*
X119583200Y-109575600D01*
X119855365Y-109521463D01*
X120086094Y-109367294D01*
X121427189Y-108026200D01*
X127558800Y-108026200D01*
X127830965Y-107972063D01*
X128061694Y-107817894D01*
X129351463Y-106528126D01*
X129544141Y-106721140D01*
X129903430Y-106870330D01*
X130292463Y-106870669D01*
X130652012Y-106722107D01*
X130927340Y-106447259D01*
X131076530Y-106087970D01*
X131076590Y-106019600D01*
X131379012Y-106019600D01*
X131653305Y-106293894D01*
X131807474Y-106396906D01*
X131884036Y-106448063D01*
X132156200Y-106502200D01*
X141539012Y-106502200D01*
X141991106Y-106954295D01*
X142183822Y-107083063D01*
X142221836Y-107108463D01*
X142494000Y-107162600D01*
X146288812Y-107162600D01*
X146969506Y-107843294D01*
X147200235Y-107997463D01*
X147472400Y-108051600D01*
X158521400Y-108051600D01*
X158793565Y-107997463D01*
X159024294Y-107843294D01*
X159438263Y-107429325D01*
X159604063Y-107429469D01*
X159783951Y-107355141D01*
X159794737Y-107409365D01*
X159948906Y-107640094D01*
X160475873Y-108167061D01*
X160155515Y-108646511D01*
X160041441Y-109220000D01*
X160155515Y-109793489D01*
X160480371Y-110279670D01*
X160966552Y-110604526D01*
X161540041Y-110718600D01*
X161598759Y-110718600D01*
X162172248Y-110604526D01*
X162658429Y-110279670D01*
X162839400Y-110008828D01*
X163020371Y-110279670D01*
X163506552Y-110604526D01*
X164080041Y-110718600D01*
X164138759Y-110718600D01*
X164712248Y-110604526D01*
X165198429Y-110279670D01*
X165379400Y-110008828D01*
X165560371Y-110279670D01*
X166046552Y-110604526D01*
X166337975Y-110662494D01*
X166470493Y-110983212D01*
X166745341Y-111258540D01*
X167104630Y-111407730D01*
X167493663Y-111408069D01*
X167853212Y-111259507D01*
X168061883Y-111051200D01*
X173200200Y-111051200D01*
X173472365Y-110997063D01*
X173703094Y-110842894D01*
X174034352Y-110511636D01*
X174247653Y-110600206D01*
X174897894Y-110600774D01*
X175498855Y-110352462D01*
X175835471Y-110016433D01*
X175970493Y-110343212D01*
X176245341Y-110618540D01*
X176604630Y-110767730D01*
X176993663Y-110768069D01*
X177353212Y-110619507D01*
X177628540Y-110344659D01*
X177771157Y-110001200D01*
X178854211Y-110001200D01*
X178900493Y-110113212D01*
X179175341Y-110388540D01*
X179534630Y-110537730D01*
X179923663Y-110538069D01*
X180283212Y-110389507D01*
X180558540Y-110114659D01*
X180564505Y-110100293D01*
X181197106Y-110732895D01*
X181427835Y-110887063D01*
X181700000Y-110941200D01*
X183137286Y-110941200D01*
X182762649Y-111015720D01*
X182297102Y-111326789D01*
X182041800Y-111708875D01*
X181786498Y-111326789D01*
X181320951Y-111015720D01*
X180771800Y-110906487D01*
X180222649Y-111015720D01*
X179757102Y-111326789D01*
X179501800Y-111708875D01*
X179246498Y-111326789D01*
X178780951Y-111015720D01*
X178231800Y-110906487D01*
X177682649Y-111015720D01*
X177217102Y-111326789D01*
X176961800Y-111708875D01*
X176706498Y-111326789D01*
X176240951Y-111015720D01*
X175691800Y-110906487D01*
X175142649Y-111015720D01*
X174677102Y-111326789D01*
X174366033Y-111792336D01*
X174256800Y-112341487D01*
X174256800Y-112397713D01*
X174366033Y-112946864D01*
X174677102Y-113412411D01*
X175142649Y-113723480D01*
X175691800Y-113832713D01*
X176240951Y-113723480D01*
X176706498Y-113412411D01*
X176961800Y-113030325D01*
X177217102Y-113412411D01*
X177682649Y-113723480D01*
X178231800Y-113832713D01*
X178780951Y-113723480D01*
X179246498Y-113412411D01*
X179501800Y-113030325D01*
X179757102Y-113412411D01*
X180222649Y-113723480D01*
X180771800Y-113832713D01*
X181320951Y-113723480D01*
X181786498Y-113412411D01*
X182041800Y-113030325D01*
X182297102Y-113412411D01*
X182762649Y-113723480D01*
X183311800Y-113832713D01*
X183860951Y-113723480D01*
X184326498Y-113412411D01*
X184389205Y-113318563D01*
X186454043Y-113318563D01*
X186552642Y-113585365D01*
X187162182Y-113811801D01*
X187811977Y-113787741D01*
X188300558Y-113585365D01*
X188399157Y-113318563D01*
X187426600Y-112346005D01*
X186454043Y-113318563D01*
X184389205Y-113318563D01*
X184637567Y-112946864D01*
X184746800Y-112397713D01*
X184746800Y-112341487D01*
X184659377Y-111901982D01*
X185781199Y-111901982D01*
X185805259Y-112551777D01*
X186007635Y-113040358D01*
X186274437Y-113138957D01*
X187246995Y-112166400D01*
X187606205Y-112166400D01*
X188578763Y-113138957D01*
X188845565Y-113040358D01*
X189015582Y-112582692D01*
X189215138Y-113065655D01*
X189674527Y-113525846D01*
X190275053Y-113775206D01*
X190925294Y-113775774D01*
X191526255Y-113527462D01*
X191986446Y-113068073D01*
X192235806Y-112467547D01*
X192236374Y-111817306D01*
X191988062Y-111216345D01*
X191528673Y-110756154D01*
X190928147Y-110506794D01*
X190277906Y-110506226D01*
X189676945Y-110754538D01*
X189216754Y-111213927D01*
X189014649Y-111700649D01*
X188845565Y-111292442D01*
X188578763Y-111193843D01*
X187606205Y-112166400D01*
X187246995Y-112166400D01*
X186274437Y-111193843D01*
X186007635Y-111292442D01*
X185781199Y-111901982D01*
X184659377Y-111901982D01*
X184637567Y-111792336D01*
X184326498Y-111326789D01*
X183860951Y-111015720D01*
X183853496Y-111014237D01*
X186454043Y-111014237D01*
X187426600Y-111986795D01*
X188399157Y-111014237D01*
X188300558Y-110747435D01*
X187691018Y-110520999D01*
X187041223Y-110545059D01*
X186552642Y-110747435D01*
X186454043Y-111014237D01*
X183853496Y-111014237D01*
X183486314Y-110941200D01*
X183750000Y-110941200D01*
X184022165Y-110887063D01*
X184252894Y-110732894D01*
X184802812Y-110182976D01*
X184858959Y-110206290D01*
X185338935Y-110206709D01*
X185782535Y-110023418D01*
X186122225Y-109684320D01*
X186306290Y-109241041D01*
X186306291Y-109238935D01*
X186600891Y-109238935D01*
X186784182Y-109682535D01*
X187123280Y-110022225D01*
X187566559Y-110206290D01*
X188046535Y-110206709D01*
X188490135Y-110023418D01*
X188829825Y-109684320D01*
X189013890Y-109241041D01*
X189014309Y-108761065D01*
X188831018Y-108317465D01*
X188491920Y-107977775D01*
X188048641Y-107793710D01*
X187568665Y-107793291D01*
X187125065Y-107976582D01*
X186785375Y-108315680D01*
X186601310Y-108758959D01*
X186600891Y-109238935D01*
X186306291Y-109238935D01*
X186306709Y-108761065D01*
X186123418Y-108317465D01*
X185784320Y-107977775D01*
X185341041Y-107793710D01*
X184861065Y-107793291D01*
X184417465Y-107976582D01*
X184077775Y-108315680D01*
X183893710Y-108758959D01*
X183893429Y-109080782D01*
X183828534Y-109145677D01*
X183828974Y-108642306D01*
X183580662Y-108041345D01*
X183565543Y-108026200D01*
X183591200Y-108026200D01*
X183863365Y-107972063D01*
X184094094Y-107817894D01*
X184397552Y-107514436D01*
X184610853Y-107603006D01*
X185261094Y-107603574D01*
X185862055Y-107355262D01*
X186322246Y-106895873D01*
X186571606Y-106295347D01*
X186571608Y-106292494D01*
X190922626Y-106292494D01*
X191170938Y-106893455D01*
X191630327Y-107353646D01*
X192230853Y-107603006D01*
X192881094Y-107603574D01*
X193482055Y-107355262D01*
X193942246Y-106895873D01*
X194191606Y-106295347D01*
X194192174Y-105645106D01*
X193943862Y-105044145D01*
X193484473Y-104583954D01*
X192883947Y-104334594D01*
X192233706Y-104334026D01*
X191632745Y-104582338D01*
X191172554Y-105041727D01*
X190923194Y-105642253D01*
X190922626Y-106292494D01*
X186571608Y-106292494D01*
X186572174Y-105645106D01*
X186323862Y-105044145D01*
X185864473Y-104583954D01*
X185263947Y-104334594D01*
X184613706Y-104334026D01*
X184012745Y-104582338D01*
X183617086Y-104977308D01*
X183613165Y-104967842D01*
X183346363Y-104869243D01*
X182373805Y-105841800D01*
X182387948Y-105855942D01*
X182208342Y-106035548D01*
X182194200Y-106021405D01*
X182180058Y-106035548D01*
X182000452Y-105855942D01*
X182014595Y-105841800D01*
X181042037Y-104869243D01*
X180775235Y-104967842D01*
X180548799Y-105577382D01*
X180572859Y-106227177D01*
X180775235Y-106715758D01*
X181042036Y-106814356D01*
X180927754Y-106928638D01*
X180959164Y-106960048D01*
X179664412Y-108254800D01*
X176048860Y-108254800D01*
X175960662Y-108041345D01*
X175501273Y-107581154D01*
X175074089Y-107403772D01*
X175498855Y-107228262D01*
X175959046Y-106768873D01*
X176208406Y-106168347D01*
X176208974Y-105518106D01*
X175960662Y-104917145D01*
X175733551Y-104689637D01*
X181221643Y-104689637D01*
X182194200Y-105662195D01*
X183166757Y-104689637D01*
X183068158Y-104422835D01*
X182458618Y-104196399D01*
X181808823Y-104220459D01*
X181320242Y-104422835D01*
X181221643Y-104689637D01*
X175733551Y-104689637D01*
X175501273Y-104456954D01*
X174900747Y-104207594D01*
X174250506Y-104207026D01*
X173649545Y-104455338D01*
X173189354Y-104914727D01*
X172939994Y-105515253D01*
X172939426Y-106165494D01*
X173187738Y-106766455D01*
X173647127Y-107226646D01*
X174074311Y-107404028D01*
X173649545Y-107579538D01*
X173189354Y-108038927D01*
X172939994Y-108639453D01*
X172939426Y-109289694D01*
X173028688Y-109505724D01*
X172905612Y-109628800D01*
X170636044Y-109628800D01*
X170717359Y-109220000D01*
X170603285Y-108646511D01*
X170278429Y-108160330D01*
X170264758Y-108151195D01*
X170288317Y-108146762D01*
X170504441Y-108007690D01*
X170649431Y-107795490D01*
X170700440Y-107543600D01*
X170700440Y-105816400D01*
X170656162Y-105581083D01*
X170517090Y-105364959D01*
X170304890Y-105219969D01*
X170053000Y-105168960D01*
X169900600Y-105168960D01*
X169900600Y-104648002D01*
X169846463Y-104375838D01*
X169775970Y-104270338D01*
X169692294Y-104145107D01*
X168631191Y-103084005D01*
X168695212Y-103020095D01*
X168706800Y-103022400D01*
X169189400Y-103022400D01*
X169461565Y-102968263D01*
X169692294Y-102814094D01*
X169840438Y-102665950D01*
X169933830Y-102704730D01*
X170322863Y-102705069D01*
X170682412Y-102556507D01*
X170957740Y-102281659D01*
X171106930Y-101922370D01*
X171106990Y-101854000D01*
X173924715Y-101854000D01*
X173914043Y-101879700D01*
X173913558Y-102435461D01*
X174125790Y-102949103D01*
X174518430Y-103342429D01*
X175031700Y-103555557D01*
X175587461Y-103556042D01*
X176101103Y-103343810D01*
X176494429Y-102951170D01*
X176580749Y-102743288D01*
X176665790Y-102949103D01*
X177058430Y-103342429D01*
X177571700Y-103555557D01*
X178127461Y-103556042D01*
X178641103Y-103343810D01*
X179034429Y-102951170D01*
X179120749Y-102743288D01*
X179205790Y-102949103D01*
X179598430Y-103342429D01*
X180111700Y-103555557D01*
X180667461Y-103556042D01*
X181181103Y-103343810D01*
X181574429Y-102951170D01*
X181787557Y-102437900D01*
X181788042Y-101882139D01*
X181776415Y-101854000D01*
X183881515Y-101854000D01*
X183870843Y-101879700D01*
X183870358Y-102435461D01*
X184082590Y-102949103D01*
X184475230Y-103342429D01*
X184753734Y-103458074D01*
X184764706Y-103474494D01*
X185247305Y-103957094D01*
X185361347Y-104033294D01*
X185478036Y-104111263D01*
X185750200Y-104165400D01*
X188837606Y-104165400D01*
X188954741Y-104282740D01*
X189314030Y-104431930D01*
X189703063Y-104432269D01*
X190062612Y-104283707D01*
X190337940Y-104008859D01*
X190487130Y-103649570D01*
X190487212Y-103555922D01*
X190624261Y-103556042D01*
X191137903Y-103343810D01*
X191531229Y-102951170D01*
X191744357Y-102437900D01*
X191744842Y-101882139D01*
X191733215Y-101854000D01*
X194802812Y-101854000D01*
X195173600Y-102224789D01*
X195173600Y-111023400D01*
X195227737Y-111295565D01*
X195381906Y-111526294D01*
X196614720Y-112759108D01*
X196295729Y-113236511D01*
X196181655Y-113810000D01*
X196295729Y-114383489D01*
X196620585Y-114869670D01*
X197106766Y-115194526D01*
X197680255Y-115308600D01*
X198049745Y-115308600D01*
X198623234Y-115194526D01*
X199109415Y-114869670D01*
X199434271Y-114383489D01*
X199548345Y-113810000D01*
X199434271Y-113236511D01*
X199109415Y-112750330D01*
X198794634Y-112540000D01*
X199109415Y-112329670D01*
X199434271Y-111843489D01*
X199500138Y-111512350D01*
X200634600Y-111512350D01*
X200634600Y-112368910D01*
X200731273Y-112602299D01*
X200909902Y-112780927D01*
X201143291Y-112877600D01*
X201999850Y-112877600D01*
X202158600Y-112718850D01*
X202158600Y-111353600D01*
X202412600Y-111353600D01*
X202412600Y-112718850D01*
X202571350Y-112877600D01*
X203427909Y-112877600D01*
X203661298Y-112780927D01*
X203839927Y-112602299D01*
X203936600Y-112368910D01*
X203936600Y-111512350D01*
X203777850Y-111353600D01*
X202412600Y-111353600D01*
X202158600Y-111353600D01*
X200793350Y-111353600D01*
X200634600Y-111512350D01*
X199500138Y-111512350D01*
X199548345Y-111270000D01*
X199434271Y-110696511D01*
X199109415Y-110210330D01*
X198794634Y-110000000D01*
X199109415Y-109789670D01*
X199434271Y-109303489D01*
X199548345Y-108730000D01*
X199539713Y-108686600D01*
X200602255Y-108686600D01*
X200727930Y-109318410D01*
X200952566Y-109654601D01*
X200909902Y-109672273D01*
X200731273Y-109850901D01*
X200634600Y-110084290D01*
X200634600Y-110940850D01*
X200793350Y-111099600D01*
X202158600Y-111099600D01*
X202158600Y-111079600D01*
X202412600Y-111079600D01*
X202412600Y-111099600D01*
X203777850Y-111099600D01*
X203936600Y-110940850D01*
X203936600Y-110084290D01*
X203839927Y-109850901D01*
X203661298Y-109672273D01*
X203618634Y-109654601D01*
X203843270Y-109318410D01*
X203968945Y-108686600D01*
X203843270Y-108054790D01*
X203485378Y-107519167D01*
X202949755Y-107161275D01*
X202317945Y-107035600D01*
X202253255Y-107035600D01*
X201621445Y-107161275D01*
X201085822Y-107519167D01*
X200727930Y-108054790D01*
X200602255Y-108686600D01*
X199539713Y-108686600D01*
X199434271Y-108156511D01*
X199109415Y-107670330D01*
X198794634Y-107460000D01*
X199109415Y-107249670D01*
X199434271Y-106763489D01*
X199548345Y-106190000D01*
X199434271Y-105616511D01*
X199109415Y-105130330D01*
X198623234Y-104805474D01*
X198049745Y-104691400D01*
X197680255Y-104691400D01*
X197612000Y-104704977D01*
X197612000Y-103818189D01*
X197815680Y-104022225D01*
X198258959Y-104206290D01*
X198738935Y-104206709D01*
X199182535Y-104023418D01*
X199522225Y-103684320D01*
X199641043Y-103398172D01*
X200532538Y-103398172D01*
X200937709Y-104378761D01*
X201687293Y-105129655D01*
X202667173Y-105536536D01*
X203728172Y-105537462D01*
X204708761Y-105132291D01*
X205459655Y-104382707D01*
X205866536Y-103402827D01*
X205867462Y-102341828D01*
X205462291Y-101361239D01*
X204712707Y-100610345D01*
X203732827Y-100203464D01*
X202671828Y-100202538D01*
X201691239Y-100607709D01*
X200940345Y-101357293D01*
X200533464Y-102337173D01*
X200532538Y-103398172D01*
X199641043Y-103398172D01*
X199706290Y-103241041D01*
X199706709Y-102761065D01*
X199523418Y-102317465D01*
X199184320Y-101977775D01*
X198741041Y-101793710D01*
X198261065Y-101793291D01*
X197817465Y-101976582D01*
X197612000Y-102181689D01*
X197612000Y-101549200D01*
X197557863Y-101277036D01*
X197487371Y-101171537D01*
X197403694Y-101046305D01*
X196006694Y-99649306D01*
X195775965Y-99495137D01*
X195503800Y-99441000D01*
X166000394Y-99441000D01*
X165883259Y-99323660D01*
X165554146Y-99187000D01*
X204154639Y-99187000D01*
X204782745Y-99311938D01*
X205586206Y-99848794D01*
X206123062Y-100652253D01*
X206248000Y-101280361D01*
X206248000Y-118429639D01*
X206182758Y-118757636D01*
X204482637Y-120457757D01*
X204154639Y-120523000D01*
X192062156Y-120523000D01*
X192247001Y-120025418D01*
X192222941Y-119375623D01*
X192020565Y-118887042D01*
X191753763Y-118788443D01*
X190781205Y-119761000D01*
X190795348Y-119775142D01*
X190615742Y-119954748D01*
X190601600Y-119940605D01*
X190587458Y-119954748D01*
X190407852Y-119775142D01*
X190421995Y-119761000D01*
X189449437Y-118788443D01*
X189182635Y-118887042D01*
X189012618Y-119344708D01*
X188813062Y-118861745D01*
X188560595Y-118608837D01*
X189629043Y-118608837D01*
X190601600Y-119581395D01*
X191574157Y-118608837D01*
X191475558Y-118342035D01*
X190866018Y-118115599D01*
X190216223Y-118139659D01*
X189727642Y-118342035D01*
X189629043Y-118608837D01*
X188560595Y-118608837D01*
X188353673Y-118401554D01*
X187753147Y-118152194D01*
X187102906Y-118151626D01*
X186501945Y-118399938D01*
X186041754Y-118859327D01*
X185792394Y-119459853D01*
X185791826Y-120110094D01*
X185962435Y-120523000D01*
X184616460Y-120523000D01*
X184703714Y-120338641D01*
X184582429Y-120116600D01*
X183438800Y-120116600D01*
X183438800Y-120136600D01*
X183184800Y-120136600D01*
X183184800Y-120116600D01*
X183164800Y-120116600D01*
X183164800Y-119862600D01*
X183184800Y-119862600D01*
X183184800Y-118719685D01*
X183438800Y-118719685D01*
X183438800Y-119862600D01*
X184582429Y-119862600D01*
X184703714Y-119640559D01*
X184464189Y-119134466D01*
X184049223Y-118758559D01*
X183660839Y-118597696D01*
X183438800Y-118719685D01*
X183184800Y-118719685D01*
X182962761Y-118597696D01*
X182574377Y-118758559D01*
X182159411Y-119134466D01*
X182056786Y-119351303D01*
X181786498Y-118946789D01*
X181320951Y-118635720D01*
X180771800Y-118526487D01*
X180222649Y-118635720D01*
X179757102Y-118946789D01*
X179501800Y-119328875D01*
X179246498Y-118946789D01*
X178780951Y-118635720D01*
X178231800Y-118526487D01*
X177682649Y-118635720D01*
X177217102Y-118946789D01*
X176961800Y-119328875D01*
X176706498Y-118946789D01*
X176240951Y-118635720D01*
X175691800Y-118526487D01*
X175142649Y-118635720D01*
X174677102Y-118946789D01*
X174366033Y-119412336D01*
X174256800Y-119961487D01*
X174256800Y-120017713D01*
X174357308Y-120523000D01*
X158634642Y-120523000D01*
X159090455Y-120334662D01*
X159550646Y-119875273D01*
X159800006Y-119274747D01*
X159800574Y-118624506D01*
X159713925Y-118414800D01*
X160395560Y-118414800D01*
X160208423Y-118865476D01*
X160207977Y-119376681D01*
X160403195Y-119849143D01*
X160764355Y-120210935D01*
X161236476Y-120406977D01*
X161747681Y-120407423D01*
X162220143Y-120212205D01*
X162581935Y-119851045D01*
X162777977Y-119378924D01*
X162778423Y-118867719D01*
X162591280Y-118414800D01*
X165850149Y-118414800D01*
X165697110Y-118783359D01*
X165696691Y-119263335D01*
X165879982Y-119706935D01*
X166219080Y-120046625D01*
X166662359Y-120230690D01*
X167142335Y-120231109D01*
X167585935Y-120047818D01*
X167925625Y-119708720D01*
X168109690Y-119265441D01*
X168110109Y-118785465D01*
X167926818Y-118341865D01*
X167587720Y-118002175D01*
X167560598Y-117990913D01*
X167560463Y-117990236D01*
X167519075Y-117928294D01*
X167406295Y-117759506D01*
X166847494Y-117200706D01*
X166616765Y-117046537D01*
X166344600Y-116992400D01*
X162471211Y-116992400D01*
X162471269Y-116925737D01*
X162322707Y-116566188D01*
X162047859Y-116290860D01*
X161688570Y-116141670D01*
X161299537Y-116141331D01*
X160939988Y-116289893D01*
X160664660Y-116564741D01*
X160613645Y-116687598D01*
X156851559Y-116687598D01*
X156935000Y-116268113D01*
X156935000Y-116211887D01*
X156873002Y-115900200D01*
X165389612Y-115900200D01*
X166121106Y-116631694D01*
X166351835Y-116785863D01*
X166624000Y-116840000D01*
X180455606Y-116840000D01*
X180572741Y-116957340D01*
X180932030Y-117106530D01*
X181321063Y-117106869D01*
X181680612Y-116958307D01*
X181955940Y-116683459D01*
X182105130Y-116324170D01*
X182105212Y-116230400D01*
X186448589Y-116230400D01*
X186448531Y-116297063D01*
X186597093Y-116656612D01*
X186871941Y-116931940D01*
X187231230Y-117081130D01*
X187620263Y-117081469D01*
X187979812Y-116932907D01*
X188255140Y-116658059D01*
X188306155Y-116535202D01*
X192466014Y-116535202D01*
X192637160Y-116706348D01*
X192637160Y-118348000D01*
X192681438Y-118583317D01*
X192820510Y-118799441D01*
X193032710Y-118944431D01*
X193284600Y-118995440D01*
X195284600Y-118995440D01*
X195519917Y-118951162D01*
X195736041Y-118812090D01*
X195881031Y-118599890D01*
X195932040Y-118348000D01*
X195932040Y-117842046D01*
X197837559Y-117842046D01*
X197883552Y-118064533D01*
X198337855Y-118219405D01*
X198816844Y-118188633D01*
X199116448Y-118064533D01*
X199162441Y-117842046D01*
X198500000Y-117179605D01*
X197837559Y-117842046D01*
X195932040Y-117842046D01*
X195932040Y-116837855D01*
X197280595Y-116837855D01*
X197311367Y-117316844D01*
X197435467Y-117616448D01*
X197657954Y-117662441D01*
X198320395Y-117000000D01*
X198679605Y-117000000D01*
X199342046Y-117662441D01*
X199564533Y-117616448D01*
X199649170Y-117368172D01*
X200532538Y-117368172D01*
X200937709Y-118348761D01*
X201687293Y-119099655D01*
X202667173Y-119506536D01*
X203728172Y-119507462D01*
X204708761Y-119102291D01*
X205459655Y-118352707D01*
X205866536Y-117372827D01*
X205867462Y-116311828D01*
X205462291Y-115331239D01*
X204712707Y-114580345D01*
X203732827Y-114173464D01*
X202671828Y-114172538D01*
X201691239Y-114577709D01*
X200940345Y-115327293D01*
X200533464Y-116307173D01*
X200532538Y-117368172D01*
X199649170Y-117368172D01*
X199719405Y-117162145D01*
X199688633Y-116683156D01*
X199564533Y-116383552D01*
X199342046Y-116337559D01*
X198679605Y-117000000D01*
X198320395Y-117000000D01*
X197657954Y-116337559D01*
X197435467Y-116383552D01*
X197280595Y-116837855D01*
X195932040Y-116837855D01*
X195932040Y-116348000D01*
X195896281Y-116157954D01*
X197837559Y-116157954D01*
X198500000Y-116820395D01*
X199162441Y-116157954D01*
X199116448Y-115935467D01*
X198662145Y-115780595D01*
X198183156Y-115811367D01*
X197883552Y-115935467D01*
X197837559Y-116157954D01*
X195896281Y-116157954D01*
X195887762Y-116112683D01*
X195748690Y-115896559D01*
X195606039Y-115799090D01*
X195669878Y-115735363D01*
X195919316Y-115134648D01*
X195919884Y-114484205D01*
X195671494Y-113883057D01*
X195211963Y-113422722D01*
X194611248Y-113173284D01*
X193960805Y-113172716D01*
X193359657Y-113421106D01*
X192899322Y-113880637D01*
X192649884Y-114481352D01*
X192649599Y-114808000D01*
X180924200Y-114808000D01*
X180652036Y-114862137D01*
X180616143Y-114886120D01*
X180421305Y-115016306D01*
X180324813Y-115112798D01*
X176546072Y-115112798D01*
X176495907Y-114991388D01*
X176221059Y-114716060D01*
X175861770Y-114566870D01*
X175472737Y-114566531D01*
X175113188Y-114715093D01*
X174837860Y-114989941D01*
X174688670Y-115349230D01*
X174688610Y-115417600D01*
X170542864Y-115417600D01*
X170553380Y-115364735D01*
X170553380Y-114708465D01*
X170470821Y-114293414D01*
X170235714Y-113941551D01*
X169883851Y-113706444D01*
X169468800Y-113623885D01*
X169053749Y-113706444D01*
X168829562Y-113856241D01*
X168492735Y-113691619D01*
X168325800Y-113818532D01*
X168325800Y-114909600D01*
X168345800Y-114909600D01*
X168345800Y-115163600D01*
X168325800Y-115163600D01*
X168325800Y-115183600D01*
X168071800Y-115183600D01*
X168071800Y-115163600D01*
X168051800Y-115163600D01*
X168051800Y-114909600D01*
X168071800Y-114909600D01*
X168071800Y-113818532D01*
X167904865Y-113691619D01*
X167568038Y-113856241D01*
X167343851Y-113706444D01*
X166928800Y-113623885D01*
X166513749Y-113706444D01*
X166161886Y-113941551D01*
X165926779Y-114293414D01*
X165882266Y-114517198D01*
X165684200Y-114477800D01*
X162790640Y-114477800D01*
X162790640Y-113472200D01*
X162746362Y-113236883D01*
X162607290Y-113020759D01*
X162395090Y-112875769D01*
X162143200Y-112824760D01*
X160843200Y-112824760D01*
X160607883Y-112869038D01*
X160391759Y-113008110D01*
X160246769Y-113220310D01*
X160195760Y-113472200D01*
X160195760Y-114477800D01*
X142559988Y-114477800D01*
X142438094Y-114355906D01*
X142207365Y-114201737D01*
X141935200Y-114147600D01*
X137328473Y-114147600D01*
X137278307Y-114026188D01*
X137003459Y-113750860D01*
X136644170Y-113601670D01*
X136255137Y-113601331D01*
X135895588Y-113749893D01*
X135620260Y-114024741D01*
X135471070Y-114384030D01*
X135470988Y-114477800D01*
X132232400Y-114477800D01*
X131960236Y-114531937D01*
X131907955Y-114566870D01*
X131729505Y-114686106D01*
X131156244Y-115259367D01*
X131114698Y-115197189D01*
X130649151Y-114886120D01*
X130100000Y-114776887D01*
X129550849Y-114886120D01*
X129085302Y-115197189D01*
X128830000Y-115579275D01*
X128574698Y-115197189D01*
X128109151Y-114886120D01*
X127560000Y-114776887D01*
X127010849Y-114886120D01*
X126545302Y-115197189D01*
X126290000Y-115579275D01*
X126034698Y-115197189D01*
X125569151Y-114886120D01*
X125020000Y-114776887D01*
X124470849Y-114886120D01*
X124005302Y-115197189D01*
X123750000Y-115579275D01*
X123494698Y-115197189D01*
X123029151Y-114886120D01*
X122480000Y-114776887D01*
X121930849Y-114886120D01*
X121465302Y-115197189D01*
X121195014Y-115601703D01*
X121092389Y-115384866D01*
X120677423Y-115008959D01*
X120289039Y-114848096D01*
X120067000Y-114970085D01*
X120067000Y-116113000D01*
X120087000Y-116113000D01*
X120087000Y-116367000D01*
X120067000Y-116367000D01*
X120067000Y-117509915D01*
X120289039Y-117631904D01*
X120677423Y-117471041D01*
X121092389Y-117095134D01*
X121195014Y-116878297D01*
X121465302Y-117282811D01*
X121511375Y-117313596D01*
X121316906Y-117313426D01*
X120715945Y-117561738D01*
X120255754Y-118021127D01*
X120006394Y-118621653D01*
X120005826Y-119271894D01*
X120254138Y-119872855D01*
X120713527Y-120333046D01*
X121170987Y-120523000D01*
X114489442Y-120523000D01*
X114945255Y-120334662D01*
X115405446Y-119875273D01*
X115654806Y-119274747D01*
X115655374Y-118624506D01*
X115407062Y-118023545D01*
X115049550Y-117665409D01*
X115409151Y-117593880D01*
X115874698Y-117282811D01*
X116130000Y-116900725D01*
X116385302Y-117282811D01*
X116850849Y-117593880D01*
X117400000Y-117703113D01*
X117949151Y-117593880D01*
X118414698Y-117282811D01*
X118684986Y-116878297D01*
X118787611Y-117095134D01*
X119202577Y-117471041D01*
X119590961Y-117631904D01*
X119813000Y-117509915D01*
X119813000Y-116367000D01*
X119793000Y-116367000D01*
X119793000Y-116113000D01*
X119813000Y-116113000D01*
X119813000Y-114970085D01*
X119590961Y-114848096D01*
X119202577Y-115008959D01*
X118787611Y-115384866D01*
X118684986Y-115601703D01*
X118414698Y-115197189D01*
X117949151Y-114886120D01*
X117400000Y-114776887D01*
X116850849Y-114886120D01*
X116385302Y-115197189D01*
X116130000Y-115579275D01*
X115874698Y-115197189D01*
X115409151Y-114886120D01*
X114860000Y-114776887D01*
X114310849Y-114886120D01*
X113845302Y-115197189D01*
X113590000Y-115579275D01*
X113334698Y-115197189D01*
X112869151Y-114886120D01*
X112320000Y-114776887D01*
X111770849Y-114886120D01*
X111305302Y-115197189D01*
X111050000Y-115579275D01*
X110794698Y-115197189D01*
X110329151Y-114886120D01*
X109780000Y-114776887D01*
X109230849Y-114886120D01*
X108765302Y-115197189D01*
X108510000Y-115579275D01*
X108254698Y-115197189D01*
X107789151Y-114886120D01*
X107240000Y-114776887D01*
X106690849Y-114886120D01*
X106225302Y-115197189D01*
X105914233Y-115662736D01*
X105805000Y-116211887D01*
X105805000Y-116268113D01*
X105914233Y-116817264D01*
X106225302Y-117282811D01*
X106690849Y-117593880D01*
X107240000Y-117703113D01*
X107789151Y-117593880D01*
X108254698Y-117282811D01*
X108510000Y-116900725D01*
X108765302Y-117282811D01*
X109230849Y-117593880D01*
X109780000Y-117703113D01*
X110329151Y-117593880D01*
X110794698Y-117282811D01*
X111050000Y-116900725D01*
X111305302Y-117282811D01*
X111770849Y-117593880D01*
X112320000Y-117703113D01*
X112869151Y-117593880D01*
X113334698Y-117282811D01*
X113590000Y-116900725D01*
X113845302Y-117282811D01*
X113891375Y-117313596D01*
X113696906Y-117313426D01*
X113095945Y-117561738D01*
X112635754Y-118021127D01*
X112386394Y-118621653D01*
X112385826Y-119271894D01*
X112634138Y-119872855D01*
X113093527Y-120333046D01*
X113550987Y-120523000D01*
X66355361Y-120523000D01*
X65727253Y-120398062D01*
X64923794Y-119861206D01*
X64386938Y-119057745D01*
X64262000Y-118429639D01*
X64262000Y-117368172D01*
X64642538Y-117368172D01*
X65047709Y-118348761D01*
X65797293Y-119099655D01*
X66777173Y-119506536D01*
X67838172Y-119507462D01*
X68818761Y-119102291D01*
X69569655Y-118352707D01*
X69976536Y-117372827D01*
X69977462Y-116311828D01*
X69572291Y-115331239D01*
X68822707Y-114580345D01*
X67842827Y-114173464D01*
X66781828Y-114172538D01*
X65801239Y-114577709D01*
X65050345Y-115327293D01*
X64643464Y-116307173D01*
X64642538Y-117368172D01*
X64262000Y-117368172D01*
X64262000Y-103398172D01*
X64642538Y-103398172D01*
X65047709Y-104378761D01*
X65797293Y-105129655D01*
X66777173Y-105536536D01*
X67838172Y-105537462D01*
X68818761Y-105132291D01*
X69569655Y-104382707D01*
X69976536Y-103402827D01*
X69977462Y-102341828D01*
X69572291Y-101361239D01*
X68822707Y-100610345D01*
X67842827Y-100203464D01*
X66781828Y-100202538D01*
X65801239Y-100607709D01*
X65050345Y-101357293D01*
X64643464Y-102337173D01*
X64642538Y-103398172D01*
X64262000Y-103398172D01*
X64262000Y-101280361D01*
X64386938Y-100652255D01*
X64923794Y-99848794D01*
X65727253Y-99311938D01*
X66355361Y-99187000D01*
X165103792Y-99187000D01*
X164775388Y-99322693D01*
M02*
